<svg width="180pt" height="275pt" viewBox="0 0 477 730" xmlns="http://www.w3.org/2000/svg">
	<rect x="0" y="0" width="100%" height="100%" fill="#FFF" />
	<path d="M 182.500 43.645 C 169.832 45.105, 163.124 47.907, 157.567 54.058 C 147.515 65.184, 145.355 81.555, 152.037 95.973 C 155.186 102.768, 155.489 104.219, 155.382 111.973 C 155.216 123.898, 153.800 128.117, 147.450 135.602 C 144.473 139.111, 140.620 144.799, 138.888 148.241 C 137.156 151.684, 134.447 155.979, 132.868 157.787 C 122.667 169.463, 119.345 190.247, 124.603 209.500 C 125.504 212.800, 126.346 219.550, 126.474 224.500 C 126.938 242.465, 130.463 264.932, 133.071 266.544 C 133.507 266.813, 133.222 268.264, 132.438 269.767 C 130.726 273.049, 130.583 278.822, 132.119 282.685 C 132.735 284.233, 133.586 290.900, 134.011 297.500 C 134.437 304.100, 135.363 312.264, 136.070 315.642 C 137.300 321.521, 137.242 322.045, 134.703 327.899 C 126.482 346.855, 127.001 365.286, 136.284 384 L 140.500 392.500 140.269 410.309 L 140.038 428.118 143.382 429.515 L 146.726 430.912 146.893 439.706 C 147.069 448.943, 148.047 458.565, 150.581 475.987 C 153.354 495.048, 153.155 496.375, 145.126 512.429 C 134.365 533.945, 133.484 537.310, 133.581 556.500 C 133.648 569.794, 134.038 573.853, 135.884 580.500 C 141.726 601.539, 141.064 639.949, 134.523 659.501 C 126.965 682.089, 130.835 688.901, 150.496 687.619 C 155.723 687.279, 164.265 686.722, 169.477 686.382 C 177.397 685.865, 180.395 686.131, 187.713 687.997 C 194.473 689.722, 197.729 690.064, 201.986 689.499 C 209.023 688.565, 211.629 688.563, 216.194 689.492 C 224.567 691.195, 231 687.733, 231 681.523 C 231 677.293, 228.595 675.504, 221.742 674.638 C 219.126 674.307, 215.976 673.417, 214.742 672.660 C 213.509 671.902, 209.800 670.298, 206.500 669.093 C 203.049 667.834, 195.089 663.063, 187.765 657.865 C 176.157 649.625, 174.930 648.458, 173.898 644.663 C 172.449 639.334, 173.219 621.358, 175.575 605.500 C 177.112 595.154, 177.042 586.624, 175.435 588.232 C 173.029 590.638, 168.840 631.357, 170.031 640.769 C 171.208 650.082, 171.881 651.225, 178.778 655.627 C 181.925 657.635, 186.975 661.194, 190 663.535 C 195.984 668.166, 201.273 671.025, 207.500 672.995 C 209.700 673.691, 212.120 674.765, 212.878 675.380 C 213.636 675.996, 217.187 676.950, 220.770 677.500 C 228.359 678.665, 230.514 680.669, 227.619 683.869 C 225.137 686.611, 219.493 687.316, 213.223 685.667 C 210.320 684.903, 207.706 684.666, 207.414 685.139 C 206.567 686.510, 192.942 686.136, 186.960 684.578 C 176.851 681.945, 170.019 681.693, 158.167 683.519 C 146.322 685.343, 141.333 685.103, 137.394 682.523 C 133.822 680.182, 134.048 671.155, 137.958 659.942 C 144.032 642.525, 144.883 598.774, 139.512 580 C 137.201 571.924, 136.777 568.477, 136.683 557 C 136.547 540.459, 137.787 535.397, 146.236 518 C 151.823 506.499, 152.358 505.740, 152.942 508.500 L 153.577 511.500 154.273 509 C 156.227 501.988, 156.143 488.199, 154.063 474.500 C 152.289 462.813, 149.596 432.021, 150.294 431.394 C 150.407 431.292, 154.775 431.586, 160 432.048 C 165.225 432.510, 178.725 433.390, 190 434.004 C 214.340 435.329, 215.139 435.470, 214.539 438.356 C 210.413 458.193, 205.977 471.629, 199.923 482.623 C 195.798 490.113, 195.278 491.564, 197.126 490.422 C 200.239 488.498, 195.580 493.588, 187.068 501.409 C 176.548 511.076, 169.847 515.478, 159.500 519.517 C 148.737 523.719, 144 529.067, 144 537.016 C 144 542.342, 145.040 544.210, 152.188 551.720 C 156.528 556.279, 159.324 560.540, 162.660 567.679 C 167.956 579.012, 182.355 595, 187.265 595 C 188.635 595, 190.315 595.675, 191 596.500 C 191.685 597.325, 193.187 598, 194.339 598 C 195.491 598, 198.318 598.720, 200.622 599.600 C 205.688 601.534, 209.890 600.097, 211.356 595.929 C 212.131 593.725, 211.600 592.497, 207.599 587.235 C 199.945 577.171, 198.298 572.435, 197.130 557.123 L 196.109 543.746 200.805 536.644 C 206.649 527.805, 214.022 521.789, 233 510.373 C 240.975 505.577, 253.125 497.738, 260 492.953 C 266.875 488.169, 273.625 483.681, 275 482.980 C 276.375 482.279, 279.975 479.576, 283 476.973 C 286.025 474.369, 290.975 470.908, 294 469.281 C 304.206 463.790, 310.595 451.414, 308.080 442.006 C 305.924 433.938, 294.468 411.703, 287.983 403 C 277.373 388.760, 262.921 375, 258.574 375 C 255.971 375, 256.817 376.086, 264.637 382.785 C 275.980 392.502, 288.975 408.254, 294.515 419 C 299.704 429.065, 305 442.840, 305 446.271 C 305 454.246, 299.536 462.681, 291.848 466.577 C 289.082 467.979, 284.948 470.833, 282.660 472.921 C 280.372 475.009, 276.475 477.967, 274 479.494 C 271.525 481.022, 264.550 485.760, 258.500 490.024 C 252.450 494.288, 242.100 501.030, 235.500 505.007 C 211.721 519.334, 201.817 527.583, 195.584 538.251 L 192.808 543.003 193.881 557.251 C 195.158 574.229, 196.103 577.964, 200.350 582.821 C 208.632 592.292, 209.979 594.942, 207.541 596.966 C 204.809 599.233, 200.160 597.306, 199.808 593.760 C 199.639 592.052, 198.996 590.489, 198.381 590.287 C 197.669 590.054, 197.444 590.872, 197.763 592.539 C 198.219 594.927, 198.008 595.129, 195.382 594.829 C 193.253 594.586, 192.543 594.001, 192.665 592.592 C 192.756 591.543, 192.340 589.518, 191.742 588.092 L 190.653 585.500 190.076 588.921 C 189.759 590.802, 188.950 592.523, 188.278 592.744 C 187.143 593.119, 186.058 592.180, 180.342 585.879 C 179.155 584.571, 176.817 582.474, 175.147 581.220 C 173.219 579.772, 170.045 574.841, 166.456 567.720 C 162.673 560.215, 159.059 554.669, 155.540 550.971 C 143.118 537.914, 144.051 529.975, 158.785 523.389 C 163.028 521.492, 168.067 519.166, 169.983 518.220 C 182.382 512.096, 207.370 487.893, 215.564 474.069 C 221.476 464.096, 228.466 457.531, 238.929 452.125 C 250.363 446.217, 257.015 444.388, 261.826 445.830 C 263.975 446.473, 266.805 446.997, 268.116 446.993 C 273.079 446.980, 264.820 443.123, 255.071 440.902 C 239.061 437.255, 221.746 430.318, 215.085 424.883 L 212.670 422.912 216.835 418.668 C 221.947 413.460, 221.978 412.429, 217.212 406.340 C 211.153 398.599, 208.495 394.573, 210.053 395.494 C 210.849 395.964, 213.975 398.002, 217 400.022 C 228.696 407.835, 227.263 408.382, 242.035 390.458 C 248.170 383.013, 254.272 376.212, 255.595 375.346 C 259.154 373.014, 258.577 371.535, 252.750 368.062 C 249.863 366.341, 242.779 361.673, 237.008 357.689 C 226.823 350.657, 226.497 350.315, 225.847 345.973 C 225.478 343.513, 224.462 339.827, 223.588 337.782 C 222.715 335.737, 222 331.670, 222 328.744 C 222 325.641, 221.266 321.980, 220.239 319.961 C 218.677 316.891, 218.616 315.765, 219.701 310 C 220.561 305.430, 220.649 301.402, 219.998 296.436 C 219.157 290.024, 219.297 288.825, 221.512 283.436 C 223.398 278.850, 223.958 275.660, 223.976 269.407 C 223.992 263.971, 224.657 259.404, 226 255.500 C 228.470 248.322, 228.474 247.172, 226.063 237.747 C 224.148 230.257, 224.148 230.133, 226.063 226.376 C 228.763 221.081, 228.724 209.010, 225.984 201.687 C 224.351 197.323, 213.957 178.915, 203.315 161.537 C 202.317 159.908, 199.925 157.518, 198 156.227 C 193.315 153.085, 193.311 153.042, 196.978 143.557 L 200.178 135.280 207.062 135.772 C 219.139 136.636, 221.356 134.775, 223.089 122.313 C 223.687 118.016, 225.067 111.925, 226.156 108.778 L 228.136 103.055 226.015 95.322 C 224.642 90.318, 224.111 86.300, 224.511 83.936 C 225.767 76.501, 219.622 59.689, 213.359 53.425 C 207.626 47.693, 194.245 42.463, 187.066 43.150 C 186.205 43.232, 184.150 43.455, 182.500 43.645 M 175.344 48.041 C 161.375 50.805, 151.990 62.824, 152.006 77.932 C 152.014 85.986, 153.365 89.781, 159.518 99.027 C 165.508 108.027, 166.647 111.375, 161.971 106.234 L 159 102.968 158.984 110.734 C 158.965 120.191, 156.937 129.345, 154.078 132.874 C 146.783 141.881, 142.028 148.736, 142.015 150.264 C 142.007 151.234, 139.900 154.606, 137.334 157.757 C 127.095 170.328, 124.094 183.433, 127.005 202.858 L 128.301 211.500 130.160 207.500 L 132.020 203.500 131.263 210 C 129.701 223.422, 131.099 248.259, 134.077 260 C 134.705 262.475, 135.352 268.550, 135.515 273.500 C 135.845 283.518, 138.383 309.846, 139.467 314.500 C 139.851 316.150, 143.503 327.460, 147.583 339.633 C 151.662 351.806, 155.032 362.831, 155.070 364.133 C 155.246 370.051, 156.672 370.663, 158.257 365.500 C 160.387 358.561, 160.590 364.230, 158.490 372 C 155.272 383.905, 155.001 388.849, 156.796 402.987 C 158.280 414.678, 158.760 416.523, 160.404 416.839 C 162.137 417.173, 162.251 416.721, 161.723 411.602 C 161.405 408.521, 161.325 406, 161.547 406 C 162.645 406, 165 412.307, 165 415.250 C 165 418.795, 166.466 421, 168.824 421 C 169.938 421, 170.149 419.807, 169.793 415.518 C 169.421 411.035, 169.581 410.237, 170.669 411.140 C 171.401 411.748, 172 414.183, 172 416.551 C 172 421.193, 174.230 424.510, 176.711 423.558 C 177.510 423.251, 178.352 423, 178.582 423 C 178.812 423, 179 420.210, 179 416.800 C 179 409.199, 180.747 410.073, 181.193 417.897 C 181.404 421.601, 182.023 423.622, 183.166 424.339 C 186.493 426.426, 187.766 423.603, 188.526 412.455 C 189.392 399.747, 190.956 398.718, 191.118 410.750 C 191.222 418.551, 191.321 418.990, 192.028 414.800 C 192.463 412.215, 193.123 409.611, 193.493 409.012 C 194.142 407.961, 193.235 403.109, 190.380 392.375 C 189.513 389.115, 187.347 385.222, 184.428 381.676 C 176.947 372.589, 171.499 349.379, 172.063 329 C 172.963 296.475, 172.814 294.475, 168.595 282.500 C 164.119 269.796, 162.871 265, 164.041 265 C 164.497 265, 165.440 266.575, 166.136 268.500 C 167.837 273.203, 168.006 273.082, 171.799 264.474 C 177.351 251.876, 179.146 237.044, 177.102 220.653 C 176.229 213.652, 178.351 206.195, 182.354 202.192 C 185.819 198.726, 186.760 200.034, 184.007 204.489 L 181.786 208.083 184.380 211.827 C 192.078 222.935, 198.631 227.072, 210 227.998 C 216.606 228.537, 217.143 228.722, 214.500 229.555 C 202.241 233.418, 190.824 228.347, 183.705 215.877 C 180.308 209.927, 179.640 211.078, 180.380 221.612 C 181.147 232.521, 182.142 234.069, 189.766 236.220 C 192.112 236.882, 195.262 238.739, 196.766 240.347 L 199.500 243.271 196.500 242.558 C 194.850 242.165, 192.825 241.260, 192 240.545 C 191.175 239.831, 188.363 238.316, 185.750 237.179 L 181 235.112 181 240.479 C 181 245.700, 181.092 245.875, 184.418 246.973 C 187.484 247.985, 191.811 252.522, 190.736 253.598 C 190.502 253.831, 188.779 252.983, 186.906 251.713 C 180.736 247.529, 180.248 247.597, 179.131 252.808 C 178.193 257.182, 178.302 257.686, 180.740 260.240 C 183.807 263.453, 183.336 264.566, 179.625 262.875 C 176.449 261.428, 176.928 260.932, 173.171 269.558 L 170.097 276.615 172.930 284.797 C 174.488 289.298, 176.075 296.307, 176.456 300.374 L 177.149 307.768 181.148 308.408 C 183.347 308.759, 189.726 310.326, 195.323 311.888 C 200.920 313.451, 207.588 315.035, 210.140 315.409 L 214.779 316.089 216.025 310.894 C 216.838 307.508, 217.045 302.744, 216.620 297.220 C 216.040 289.675, 216.256 287.909, 218.580 281.176 C 220.738 274.924, 221.083 272.559, 220.568 267.555 C 220.077 262.783, 220.374 260.386, 221.972 256.239 C 224.405 249.928, 224.510 245.348, 222.389 238 C 220.381 231.039, 220.395 230.717, 223.040 223.500 C 227.072 212.498, 224.106 202.225, 210.800 181.102 C 207.543 175.933, 203.558 169.087, 201.944 165.889 C 198.421 158.910, 197.985 158.649, 186.243 156.491 C 175.160 154.454, 173.817 152.504, 184 153.232 C 189.774 153.645, 191 153.471, 191 152.235 C 191 151.411, 192.404 146.650, 194.119 141.654 L 197.238 132.570 195.119 131.163 C 191.026 128.446, 193.073 128.235, 200.538 130.606 C 211.309 134.026, 217.533 133.322, 218.449 128.579 C 221.048 115.120, 222.172 109.834, 223.205 106.222 C 224.234 102.624, 224.156 100.873, 222.715 95.222 C 221.772 91.525, 221.086 85.575, 221.189 82 C 221.892 57.597, 201.899 42.788, 175.344 48.041 M 170.467 106 C 172.144 117.213, 174.365 120.620, 182.195 123.989 C 188.785 126.824, 189.159 126.088, 183.117 122.173 C 177.411 118.475, 175.937 116.450, 173.531 109 C 171.168 101.686, 169.591 100.141, 170.467 106 M 178 129.623 C 178 134.636, 184.200 152.133, 185.512 150.822 C 186.001 150.333, 179.620 129.286, 178.705 128.372 C 178.317 127.984, 178 128.547, 178 129.623 M 151.500 147.881 C 147.258 149.829, 143.257 153.590, 144.308 154.642 C 144.654 154.988, 146.133 154.422, 147.594 153.385 C 154.101 148.767, 155.710 148.010, 159.027 148.005 C 162.803 148, 165.577 149.501, 170.750 154.347 C 172.644 156.122, 174 156.829, 174 156.041 C 174 153.787, 166.440 147.338, 162.988 146.648 C 158.016 145.653, 155.843 145.886, 151.500 147.881 M 182.792 184.511 C 182.369 191.941, 181.728 194.633, 179.105 200.002 L 175.932 206.500 178.857 203.168 C 183.632 197.730, 186.492 183.683, 184.082 177.509 C 183.582 176.229, 183.122 178.726, 182.792 184.511 M 137.496 202 C 138.367 205.092, 142.441 211.209, 145.264 213.664 C 147.954 216.004, 141.877 204.578, 138.794 201.500 L 136.791 199.500 137.496 202 M 161.522 215.241 C 157.446 218.132, 156.080 219.584, 157.226 219.805 C 158.545 220.059, 158.972 221.463, 159.204 226.314 L 159.500 232.500 160.812 225.500 C 161.893 219.730, 162.763 217.841, 165.765 214.750 C 170.563 209.808, 168.911 209.999, 161.522 215.241 M 137.091 240.750 C 137.664 242.262, 139.095 244.527, 140.271 245.782 C 141.880 247.500, 142.513 249.692, 142.828 254.642 C 143.314 262.270, 144.981 261.373, 144.949 253.500 C 144.928 248.177, 144.088 246.156, 139.815 241.148 C 136.510 237.275, 135.732 237.161, 137.091 240.750 M 211.322 242.506 C 207.891 249.009, 207.929 253.020, 211.455 256.545 C 215.091 260.182, 218.217 259.908, 214.821 256.250 C 210.319 251.402, 209.911 249.880, 212.143 246.268 C 213.243 244.488, 213.984 242.012, 213.790 240.766 C 213.478 238.769, 213.185 238.975, 211.322 242.506 M 202.004 257.750 C 202.009 260.085, 206.196 266.822, 206.712 265.325 C 207.112 264.163, 203.407 256, 202.480 256 C 202.216 256, 202.002 256.788, 202.004 257.750 M 142.497 276.324 C 141.838 280.586, 142.261 282.511, 146.125 292.824 C 150.591 304.742, 152.783 305.513, 149.468 294 C 148.597 290.975, 147.184 285.575, 146.328 282 C 143.809 271.482, 143.351 270.803, 142.497 276.324 M 206.058 277.250 C 207.221 283.431, 207.835 284.604, 210.555 285.843 C 213.219 287.057, 213.855 285.954, 211.580 284.067 C 210.800 283.419, 209.361 280.664, 208.383 277.944 C 206.201 271.878, 204.978 271.513, 206.058 277.250 M 205.123 296.215 C 206.495 304.895, 208.109 312, 208.708 312 C 209.624 312, 208.363 299.871, 206.967 295.250 C 205.191 289.368, 204.129 289.924, 205.123 296.215 M 175.647 319.651 C 174.313 335.427, 175.510 347.032, 180.440 366.123 C 182.198 372.931, 183.524 375.772, 186.741 379.623 C 194.715 389.167, 197.614 401.549, 194.995 414.877 C 194.061 419.627, 193.264 421.380, 191.871 421.744 C 190.842 422.013, 190 422.845, 190 423.594 C 190 425.801, 185.322 428.298, 182.507 427.591 C 181.128 427.245, 180 426.505, 180 425.946 C 180 425.296, 179.234 425.340, 177.874 426.068 C 175.581 427.295, 171 425.952, 171 424.053 C 171 423.508, 170.293 423.334, 169.428 423.666 C 168.563 423.998, 166.556 423.309, 164.968 422.135 C 163.380 420.961, 161.173 420, 160.064 420 C 156.661 420, 155.133 415.987, 153.389 402.474 C 152.014 391.816, 151.921 388.251, 152.869 382.500 C 154.321 373.690, 152.726 364.534, 146.857 348 C 144.612 341.675, 142.038 334.138, 141.137 331.252 C 140.237 328.365, 139.232 326.003, 138.905 326.002 C 137.263 325.997, 133.702 341.309, 133.252 350.308 C 132.444 366.498, 136.743 380.611, 146.038 392.285 C 149.901 397.136, 150.005 400.106, 146.192 396.688 C 144.612 395.272, 144.478 396.179, 144.173 410.449 C 143.873 424.489, 143.995 425.785, 145.673 426.439 C 148.229 427.436, 177.997 429.980, 193 430.484 C 199.875 430.715, 207.924 431.376, 210.886 431.952 C 220.671 433.856, 221.383 433.081, 214.176 428.371 L 209.388 425.242 206.624 427.255 L 203.860 429.269 199.930 425.432 C 197.768 423.321, 196 420.785, 196 419.797 C 196 417.365, 196.317 417.476, 200.636 421.433 L 204.382 424.865 207.941 422.021 C 209.899 420.456, 212.961 417.654, 214.747 415.794 L 217.994 412.411 212.145 404.442 C 206.099 396.204, 202.530 390.136, 203.288 389.379 C 204.203 388.463, 209.812 391.309, 217.681 396.682 C 222.314 399.845, 226.495 402.024, 227.322 401.706 C 228.126 401.398, 232.501 396.500, 237.045 390.823 C 241.589 385.145, 247.024 378.697, 249.122 376.494 L 252.937 372.488 238.969 363.157 C 231.286 358.024, 225 353.490, 225 353.081 C 225 352.672, 222.750 350.879, 220 349.097 C 213.522 344.899, 212.833 342.311, 219.050 345.526 C 221.900 346.999, 222 346.974, 221.995 344.776 C 221.993 343.524, 220.900 339.822, 219.566 336.548 C 217.698 331.962, 217.271 329.505, 217.706 325.838 C 218.371 320.217, 217.772 319.797, 206.500 317.997 C 202.650 317.382, 195.694 315.781, 191.043 314.439 C 186.392 313.098, 181.171 312, 179.440 312 L 176.293 312 175.647 319.651 M 177.570 318.886 C 177.269 319.374, 179.605 320.077, 182.761 320.450 C 185.918 320.823, 193.621 321.999, 199.880 323.064 C 213.183 325.327, 212 325.225, 212 324.114 C 212 323.626, 210.088 322.940, 207.750 322.589 C 205.412 322.239, 199.900 321.068, 195.500 319.988 C 187.078 317.920, 178.493 317.393, 177.570 318.886 M 192.374 330.537 C 194.505 332.024, 199.005 334.361, 202.373 335.730 C 205.741 337.098, 210.683 339.326, 213.355 340.680 C 220.362 344.231, 218.742 341.344, 211.131 336.717 C 204.333 332.585, 197.448 329.642, 192 328.541 L 188.500 327.833 192.374 330.537 M 184.750 341.654 C 181.533 342.559, 182.945 343.787, 189.750 346.004 C 193.463 347.213, 198.075 348.806, 200 349.545 C 204.149 351.136, 216.425 351.497, 215.500 350 C 215.160 349.450, 212.951 349, 210.590 349 C 205.487 349, 200.787 347.504, 195.984 344.352 C 192.290 341.927, 187.698 340.825, 184.750 341.654 M 228.904 422.918 C 232.987 426.744, 242.113 431.803, 248 433.503 C 252.104 434.688, 249.285 432.639, 239.033 426.984 C 233.826 424.111, 228.426 421.093, 227.033 420.276 C 225.603 419.439, 226.419 420.590, 228.904 422.918 M 221 434.500 C 221 435.325, 220.397 436, 219.660 436 C 218.782 436, 217.878 438.497, 217.036 443.250 C 215.225 453.470, 210.653 468.433, 206.525 477.650 L 203.009 485.500 206.118 481.730 C 207.828 479.656, 211.538 474.273, 214.363 469.768 C 221.501 458.384, 232.434 449.868, 246.075 445.064 L 251.025 443.321 242.762 441.057 C 238.218 439.811, 231.625 437.489, 228.112 435.896 C 220.647 432.512, 221 432.581, 221 434.500 M 176.852 463.262 C 172.185 471.535, 168.299 481.633, 169.370 482.703 C 169.686 483.019, 170.368 482.202, 170.885 480.889 C 171.403 479.575, 174.134 473.605, 176.954 467.622 C 183.212 454.344, 183.160 452.082, 176.852 463.262 M 281.099 458.750 C 279.160 460.348, 274.543 470.876, 275.404 471.737 C 275.605 471.938, 277.812 468.705, 280.309 464.552 C 284.858 456.983, 285.062 455.483, 281.099 458.750 M 255 469.115 C 251.975 471.329, 245.734 474.930, 241.131 477.118 C 231.656 481.620, 231.072 482.983, 239.676 480.514 C 247.258 478.338, 252.462 475.226, 257.958 469.580 C 263.434 463.955, 262.295 463.775, 255 469.115 M 229.317 486.908 C 222.609 489.195, 213.816 494.549, 209.729 498.834 L 206.500 502.220 212 498.743 C 215.025 496.830, 221.662 493.176, 226.750 490.623 C 238.436 484.757, 239.303 483.503, 229.317 486.908 M 179.756 518.395 C 172.812 523.203, 170.883 525.124, 169.339 528.773 C 166.752 534.887, 171.628 538.985, 179.097 536.974 C 184.522 535.513, 183.971 534.500, 177.752 534.500 C 172.605 534.500, 172.494 534.438, 172.197 531.385 C 171.884 528.170, 172.453 527.473, 183 518.152 C 187.584 514.101, 185.761 514.237, 179.756 518.395 M 189.654 573.750 C 190.440 579.803, 191.927 582.774, 191.970 578.375 C 192.012 573.981, 190.910 569, 189.894 569 C 189.423 569, 189.316 571.138, 189.654 573.750 M 163.586 580.500 C 163.144 582.150, 162.169 585.750, 161.420 588.500 C 159.639 595.032, 158.132 605, 158.926 605 C 160.047 605, 165.180 583.463, 164.779 580.443 L 164.389 577.500 163.586 580.500 M 148.478 643.453 C 145.377 657.393, 151.280 665.399, 158.411 656.923 C 161.754 652.950, 161.796 650.662, 158.460 654.260 C 152.702 660.469, 149.570 656.754, 150.513 644.835 C 151.367 634.040, 150.677 633.571, 148.478 643.453" stroke="none" fill="#333" fill-rule="evenodd"/>
</svg>