<svg width="240pt" height="275pt" viewBox="0 0 635 729" xmlns="http://www.w3.org/2000/svg">
	<rect x="0" y="0" width="100%" height="100%" fill="#FFF" />
	<path d="M 243.500 41.428 C 242.950 41.648, 239.887 42.611, 236.694 43.568 C 217.693 49.265, 211.198 75.815, 223.065 99.282 C 227.358 107.772, 228.239 116.170, 225.673 124.147 C 224.569 127.580, 211.955 143.064, 198.687 157.274 C 192.009 164.426, 186.281 175.362, 185.420 182.603 C 185.100 185.296, 183.761 190.005, 182.445 193.066 C 181.129 196.128, 179.311 201.528, 178.404 205.066 C 176.692 211.750, 176.687 210.590, 178.613 251.737 C 179.217 264.645, 179.081 266.558, 177.163 272.238 C 173.786 282.235, 174.560 329.021, 178.400 347 C 182.536 366.365, 183.107 373.224, 181.309 381.943 C 180.241 387.120, 179.960 391.991, 180.386 397.943 C 182.131 422.337, 183.715 427.648, 189.788 429.457 C 191.554 429.983, 193 430.935, 193 431.572 C 193 433.795, 196.984 437.772, 199.731 438.290 C 201.254 438.578, 203.445 439.115, 204.601 439.484 C 205.934 439.910, 207.279 439.578, 208.279 438.578 C 209.147 437.710, 210.587 437, 211.480 437 C 213.796 437, 216 430.990, 216 424.671 C 216 419.575, 216.127 419.302, 218.311 419.719 C 222.466 420.513, 223.390 417.912, 223.346 405.541 C 223.302 393.048, 221.119 386.440, 213.630 376.127 C 207.753 368.035, 205.817 339.282, 210.019 322.500 C 213.141 310.030, 213.612 297.927, 211.473 285.106 L 209.653 274.195 214.045 266.925 L 218.438 259.655 220.762 264.777 C 226.450 277.312, 227.347 294.406, 222.455 297.024 C 220.670 297.979, 219.924 299.443, 219.459 302.898 C 219.119 305.429, 218.233 309.525, 217.492 312 C 208.318 342.612, 214.086 369.014, 232.492 380.658 C 238.958 384.749, 241.496 393.749, 240.497 409.045 C 239.441 425.211, 240.583 435.891, 243.486 436.995 C 245.429 437.733, 245.847 438.828, 246.423 444.678 C 247.335 453.945, 249.676 466.667, 252.463 477.500 C 256.575 493.482, 256.673 497.831, 253.116 506.376 C 243.408 529.695, 240.716 557.288, 246.366 575.551 C 252.978 596.923, 253.672 627.505, 248.310 661.300 C 244.959 682.418, 248.666 685.513, 275 683.592 C 284.530 682.896, 286.054 683.033, 291.500 685.069 C 296.263 686.850, 300.284 687.410, 311 687.785 C 337.153 688.701, 334.858 688.933, 338.110 685.038 C 341.406 681.089, 341.576 680.015, 339.530 676.059 C 338.068 673.230, 333.678 671, 329.573 671 C 325.897 671, 313.261 664.299, 301.752 656.247 C 288.917 647.268, 287.863 645.609, 286.022 631.500 C 284.495 619.798, 286.356 597.101, 291.063 570 C 292.162 563.675, 293.720 551.038, 294.526 541.918 C 295.396 532.079, 296.746 523.134, 297.847 519.918 C 298.867 516.938, 300.022 512.700, 300.414 510.500 C 300.806 508.300, 302.268 503.612, 303.662 500.083 C 305.819 494.623, 306.098 492.738, 305.531 487.445 C 304.949 482.006, 305.261 480.108, 308.015 472.362 C 311.270 463.204, 315 446.326, 315 440.752 C 315 438.580, 315.787 436.931, 317.488 435.538 C 319.632 433.782, 320.117 432.225, 320.993 424.291 C 321.553 419.226, 322.683 411.884, 323.505 407.976 C 324.327 404.067, 325 399.351, 325 397.496 C 325 393.674, 323.105 394.208, 344.482 392 C 350.522 391.376, 360.527 389.770, 366.715 388.433 C 381.919 385.145, 381.188 385.027, 397.442 393.386 C 414.246 402.028, 421.472 404.616, 432.738 406.027 C 440.450 406.993, 456.628 405.966, 459.253 404.344 C 459.748 404.038, 468.894 404.115, 479.577 404.516 L 499 405.244 499 542.050 C 499 664.711, 499.161 679.019, 500.561 680.418 C 505.132 684.989, 525.516 686.865, 532.666 683.372 L 536.500 681.500 536.115 594.500 C 535.675 495.141, 536.672 410, 538.277 410 C 538.849 410, 543.326 411.847, 548.226 414.104 C 567.313 422.896, 571.782 420.012, 577.938 394.925 C 579.878 387.018, 582.441 379.717, 585.090 374.551 C 592.665 359.780, 594.834 351.771, 594.527 339.714 C 594.182 326.170, 592.278 321.543, 587 321.416 C 585.075 321.370, 582.725 321.717, 581.778 322.186 C 579.861 323.137, 573 336.685, 573 339.519 C 573 344.864, 540.312 373.547, 536.738 371.338 C 536.208 371.011, 536.140 318.748, 536.571 243.969 L 537.302 117.154 533.989 115.139 C 527.239 111.034, 507.896 111.448, 502.036 115.822 L 499.500 117.715 499.239 158.932 L 498.978 200.148 496.009 202.646 C 494.377 204.019, 491.615 207.819, 489.871 211.090 C 487.300 215.914, 485.586 217.714, 480.789 220.628 C 477.537 222.603, 472.135 226.758, 468.784 229.860 L 462.691 235.500 444.095 235.477 C 427.136 235.456, 424.620 235.218, 415.500 232.779 C 400.117 228.663, 383.595 226, 373.448 226 C 363.025 226, 363.261 226.143, 359.018 217.257 C 353.995 206.738, 342.481 196.273, 329.738 190.644 C 326.568 189.244, 323.711 187.289, 323.389 186.300 C 318.621 171.666, 307.999 160.086, 295.200 155.571 C 292.871 154.749, 288.028 151.980, 284.437 149.418 C 280.846 146.855, 277.693 144.974, 277.430 145.236 C 276.482 146.185, 278.167 148.554, 281.709 151.250 C 285.146 153.866, 285.202 154, 282.852 154 C 281.494 154, 279.509 154.693, 278.441 155.540 C 276.645 156.965, 276.947 157.058, 282.500 156.793 C 295.798 156.156, 309.274 165.188, 316.767 179.759 C 318.957 184.016, 320.560 188.008, 320.331 188.630 C 320.100 189.254, 324.156 191.824, 329.387 194.368 C 340.695 199.869, 348.523 206.719, 355.784 217.466 C 358.583 221.610, 360.452 225, 359.937 225 C 358.117 225, 359.033 226.976, 361.647 228.688 C 363.829 230.118, 366.241 230.376, 375.397 230.160 C 387.014 229.886, 394.557 231.064, 416.050 236.513 C 425.658 238.948, 427.563 239.096, 445.627 238.808 L 464.936 238.500 470.218 233.389 C 473.123 230.578, 477.750 226.798, 480.500 224.989 C 487.982 220.067, 489.927 218.040, 493.019 211.940 C 497.370 203.355, 499 202.534, 499 208.926 C 499 213.313, 498.583 214.463, 496.250 216.516 C 491.405 220.781, 496.290 219.407, 501.613 215.008 C 505.639 211.681, 506.667 211.238, 507.778 212.349 C 510.409 214.981, 506.587 221.499, 500.101 225.439 C 495.224 228.401, 494.079 229.698, 492.080 234.520 C 489.168 241.546, 486.210 245.101, 480.482 248.457 C 475.150 251.583, 474.906 252.154, 479.250 251.344 C 486.522 249.987, 492.565 243.856, 495.061 235.302 C 497.228 227.875, 499.001 228.993, 498.992 237.781 L 498.984 245.500 491.985 251 C 482.392 258.538, 477.406 260.360, 468.500 259.580 C 459.837 258.820, 445.645 260.234, 423.500 264.060 C 404.133 267.407, 388.820 267.880, 377.500 265.483 C 373.651 264.667, 369.024 264, 367.218 264 C 362.555 264, 358.206 261.938, 352.560 257.052 C 346.011 251.384, 341.744 248.827, 334.170 246.032 C 326.459 243.187, 317.912 237.746, 312.346 232.140 C 306.448 226.200, 305.409 218.367, 309.664 211.919 C 312.286 207.946, 312.495 206.920, 312.429 198.311 C 312.391 193.190, 312.775 189, 313.283 189 C 313.791 189, 312.923 187.459, 311.354 185.575 C 309.784 183.692, 307.187 180.205, 305.583 177.827 C 301.779 172.189, 301.221 174.187, 304.522 181.626 C 311.013 196.253, 310.839 204.879, 303.873 213.857 C 302.522 215.598, 302.299 216.691, 303.022 218.041 C 304.482 220.769, 304.203 228.578, 302.500 232.654 C 301.675 234.629, 300.997 238.552, 300.994 241.372 C 300.987 247.939, 299.391 253.667, 297.211 254.954 C 295.787 255.794, 295.735 256.118, 296.897 256.882 C 298.024 257.622, 298.138 259.514, 297.488 266.650 C 297.045 271.517, 296.609 278.875, 296.519 283 C 296.054 304.406, 296.274 303, 293.394 303 C 289.795 303, 280.366 300.531, 268.480 296.475 C 256.438 292.367, 247.025 291.309, 237.218 292.963 C 233.265 293.630, 229.732 294.024, 229.368 293.838 C 229.005 293.652, 228.801 290.297, 228.915 286.382 C 229.145 278.492, 227.345 270.290, 223.449 261.481 L 220.875 255.659 223.548 247.080 C 225.019 242.361, 226.393 237.910, 226.603 237.188 C 226.905 236.149, 227.449 236.201, 229.215 237.438 C 232.323 239.615, 242.436 239.644, 239.559 237.468 C 238.491 236.661, 236.819 236, 235.843 236 C 232.591 236, 227.234 232.843, 227.571 231.125 C 227.746 230.231, 228.148 227.877, 228.463 225.893 L 229.037 222.286 233.485 223.751 C 238.308 225.338, 244.997 224.510, 245.756 222.231 C 246.048 221.357, 244.585 221, 240.708 221 C 237.706 221, 233.844 220.719, 232.125 220.375 L 229 219.750 229 211.675 C 229 199.895, 227.155 203.107, 225.434 217.883 C 222.899 239.651, 219.735 250.450, 212.158 263.199 C 208.625 269.144, 207.288 270.654, 206.291 269.827 C 204.409 268.265, 204.612 271.217, 207.105 281.671 C 210.128 294.346, 209.942 306.460, 206.502 321 C 201.723 341.199, 204.227 368.202, 211.915 379.376 C 218.633 389.140, 220.251 394.211, 220.292 405.620 C 220.331 416.605, 219.723 418.709, 217.418 415.557 C 216.422 414.195, 216 410.698, 216 403.809 C 216 397.936, 215.599 394, 215 394 C 214.450 394, 213.965 394.563, 213.923 395.250 C 213.881 395.938, 213.529 404.690, 213.141 414.699 C 212.212 438.656, 211.190 440.030, 207.501 422.289 C 205.029 410.406, 204.246 408, 202.848 408 C 201.838 408, 202.095 409.950, 205.145 425.400 C 207.016 434.882, 206.687 438.773, 204.265 435.792 C 203.108 434.367, 198 418.688, 198 416.559 C 198 415.823, 197.062 414.159, 195.916 412.861 C 194.502 411.259, 194.002 411.042, 194.361 412.188 C 194.652 413.116, 195.384 416.602, 195.988 419.936 C 196.593 423.269, 197.747 427.867, 198.554 430.154 C 199.816 433.729, 199.850 436.262, 198.619 434.917 C 197.356 433.537, 191.992 421.755, 191.955 420.279 C 191.930 419.300, 191.257 417.150, 190.459 415.500 C 189.028 412.542, 189.013 412.576, 189.373 418 C 189.574 421.025, 190.062 424.400, 190.457 425.500 C 191.024 427.077, 190.644 426.925, 188.664 424.783 C 186.819 422.787, 185.995 420.529, 185.559 416.283 C 185.234 413.102, 184.505 407.575, 183.941 404 C 182.899 397.401, 183.900 383.091, 185.750 378.129 C 186.743 375.464, 185.065 359.622, 182.611 348.500 C 179.370 333.810, 178.815 327.813, 178.584 305.003 C 178.379 284.782, 178.598 280.655, 180.151 275.451 C 182.293 268.272, 182.937 242.276, 181.152 235 C 178.961 226.063, 180.269 208.492, 183.794 199.517 L 185.620 194.869 188.848 200.063 C 192.877 206.543, 193.848 205.882, 191.098 198.531 C 186.347 185.835, 190.344 170.931, 201.407 160.086 C 205.499 156.075, 206.438 155.635, 211.705 155.264 C 221.607 154.567, 222.365 152.250, 212.750 152.070 C 210.688 152.032, 209 151.645, 209 151.212 C 209 150.778, 213.201 145.837, 218.336 140.232 C 228.972 128.620, 230.053 126.188, 230.099 113.752 C 230.127 106.061, 229.831 104.839, 225.997 96.849 C 216.532 77.123, 220.898 55.085, 235.695 47.898 C 243.010 44.344, 257.142 43.992, 267.645 47.102 C 281.491 51.201, 287.078 59.213, 290.237 79.500 C 293.022 97.388, 290.575 122.552, 285.802 125.106 C 282.832 126.696, 264.952 123.018, 257.706 119.326 C 254.866 117.880, 247.027 103.534, 247.009 99.750 C 247.004 98.787, 246.550 98, 246 98 C 243.145 98, 248.311 115.371, 252.564 120.071 C 254.452 122.157, 261.718 125.077, 269.674 126.947 L 274.848 128.163 274.325 131.831 C 274.038 133.849, 273.400 137.075, 272.907 139 C 271.697 143.725, 271.759 153, 273 153 C 273.550 153, 273.996 152.213, 273.990 151.250 C 273.985 150.287, 274.960 144.887, 276.157 139.250 L 278.334 129 281.733 129 C 289.860 129, 292.547 123.601, 294.952 102.436 C 295.737 95.528, 295.646 92.173, 294.537 87.051 C 293.757 83.448, 292.627 77.437, 292.024 73.693 C 288.545 52.062, 277.037 42.420, 253.500 41.413 C 248.550 41.202, 244.050 41.208, 243.500 41.428 M 507.625 116.469 C 501.909 118.506, 501.039 119.766, 503.793 122.016 C 510.077 127.152, 533.500 125.158, 533.500 119.487 C 533.500 115.401, 516.261 113.391, 507.625 116.469 M 530.146 125.721 C 526.148 127.354, 509.636 127.572, 505.620 126.045 C 504.107 125.470, 502.674 125, 502.435 125 C 502.196 125, 502 144.125, 502 167.500 C 502 190.875, 502.255 210, 502.566 210 C 502.877 210, 504.002 209.534, 505.066 208.965 C 507.664 207.574, 510.584 209.206, 511.414 212.514 C 512.317 216.111, 508.970 223.173, 505.033 225.977 L 501.813 228.269 502.121 299.154 L 502.429 370.038 506.465 371.158 C 508.684 371.774, 515.450 372.328, 521.500 372.389 L 532.500 372.500 533.241 260.500 C 533.649 198.900, 533.874 143.066, 533.741 136.425 L 533.500 124.350 530.146 125.721 M 245 125.434 C 245 127.093, 252.350 143.879, 254.005 146 C 257.613 150.624, 256.370 145.115, 251.589 135.291 C 247.838 127.585, 245 123.339, 245 125.434 M 265.083 146.601 C 264.965 151.021, 266.873 155.862, 269.232 157.124 C 272 158.606, 273.737 156.076, 271.231 154.213 C 270.279 153.504, 268.525 150.804, 267.333 148.213 C 265.229 143.635, 265.164 143.589, 265.083 146.601 M 235.500 153.952 L 232.500 154.667 236 155.286 C 242.667 156.464, 265.260 156.860, 264.179 155.779 C 261.779 153.379, 242.937 152.179, 235.500 153.952 M 227.439 168.001 C 227.405 172.951, 227.506 177, 227.663 177 C 228.688 177, 231 170.499, 231 167.615 C 231 163.777, 229.488 158.999, 228.275 159.001 C 227.849 159.002, 227.472 163.052, 227.439 168.001 M 276 169.380 C 276 169.782, 277.362 173.311, 279.028 177.225 C 283.988 188.882, 284.850 202.807, 281.050 209.907 C 279.941 211.979, 273.187 215, 269.661 215 C 264.238 215, 256.380 211.464, 245.322 204.047 C 238.835 199.697, 233.297 196.381, 233.014 196.678 C 232.123 197.615, 244.876 208.558, 251.324 212.390 C 266.820 221.601, 279.121 220.614, 284.643 209.718 C 289.751 199.637, 286.327 178.353, 278.399 170.905 C 277.080 169.666, 276 168.979, 276 169.380 M 214.920 205.324 C 211.146 207.319, 206.009 213.346, 207.130 214.462 C 207.505 214.835, 218.281 207.010, 220.964 204.416 C 223.349 202.110, 220.064 202.604, 214.920 205.324 M 286.657 209.745 C 285.403 211.775, 289.901 217, 292.904 217 C 299.351 217, 301.115 214.605, 295.357 213.670 C 293.353 213.345, 290.700 212.128, 289.462 210.964 C 288.224 209.801, 286.962 209.253, 286.657 209.745 M 312 210.373 C 312 214.090, 324.985 223.092, 332.250 224.410 C 337.553 225.372, 336.957 224.612, 329.225 220.549 C 325.498 218.590, 320.274 215.191, 317.616 212.994 C 312.223 208.538, 312 208.434, 312 210.373 M 282.927 227.561 C 280.583 229.520, 277.390 231.781, 275.832 232.587 C 273.109 233.995, 271.994 236, 273.935 236 C 277.681 236, 289 228.020, 289 225.380 C 289 223.198, 287.507 223.735, 282.927 227.561 M 291 225.358 C 291 228.219, 292.850 230.871, 295.973 232.486 C 300.566 234.861, 300.323 232.734, 295.457 227.957 C 292.166 224.728, 291 224.048, 291 225.358 M 242 227.100 C 242 229.488, 248.779 235, 251.650 234.948 L 254.500 234.895 252.024 233.198 C 250.662 232.264, 248.127 230.262, 246.392 228.750 C 242.966 225.764, 242 225.402, 242 227.100 M 305.473 234.750 C 305.064 236.262, 304.820 239.339, 304.930 241.587 C 305.041 243.835, 304.178 248.503, 303.013 251.961 C 301.721 255.797, 301.134 259.334, 301.508 261.035 C 301.845 262.569, 301.569 266.675, 300.895 270.162 C 300.221 273.648, 299.764 280.325, 299.879 285 C 299.994 289.675, 299.659 295.730, 299.134 298.456 C 298.336 302.605, 298.444 303.605, 299.798 304.594 C 300.687 305.244, 301.921 307.281, 302.541 309.120 C 303.469 311.879, 304.352 312.615, 307.583 313.326 C 322.219 316.548, 331.504 319.147, 332.905 320.414 C 333.800 321.224, 336.775 322.377, 339.516 322.975 C 346.485 324.497, 356.031 327.670, 366 331.776 C 371.925 334.218, 377.075 335.541, 383 336.146 C 395.172 337.388, 400.492 339.216, 410.154 345.475 C 419.232 351.355, 419.047 351.300, 442.157 355.034 C 449.118 356.159, 464.110 359.762, 475.472 363.040 C 486.835 366.318, 496.776 369, 497.565 369 C 498.796 369, 499 360.438, 499 308.907 L 499 248.815 493.802 253.488 C 485.181 261.239, 482.217 262.333, 469 262.638 C 453.606 262.993, 448.542 263.562, 428 267.239 C 406.869 271.022, 386.879 271.587, 376.169 268.704 C 372.687 267.767, 368.104 267, 365.984 267 C 360.308 267, 357.552 265.631, 349.114 258.618 C 344.926 255.138, 339.700 251.720, 337.500 251.023 C 330.195 248.708, 318.432 242.030, 312.769 236.982 C 306.226 231.150, 306.430 231.212, 305.473 234.750 M 292 238.357 C 292 246.040, 290.042 250.956, 286.371 252.489 C 281.826 254.389, 282.033 256.147, 286.750 255.702 C 289.941 255.400, 290.780 254.785, 292.381 251.573 C 294.457 247.405, 294.894 237.494, 293.081 235.681 C 292.306 234.906, 292 235.665, 292 238.357 M 195.032 246.550 C 195.061 255.723, 195.184 256.344, 196.609 254.500 C 198.458 252.106, 198.169 239.769, 196.218 237.818 C 195.261 236.861, 195.007 238.728, 195.032 246.550 M 263.022 240.250 C 263.118 245.701, 271.033 255, 275.577 255 C 278.815 255, 278.646 254.563, 274.393 251.934 C 272.409 250.708, 269.246 247.296, 267.362 244.352 C 263.861 238.879, 262.983 238.049, 263.022 240.250 M 355.101 241.017 C 357.292 244.328, 361.802 246.041, 365 244.778 C 367.396 243.832, 367.292 243.718, 362.500 242.040 C 359.750 241.077, 356.600 239.909, 355.500 239.445 C 353.588 238.637, 353.571 238.706, 355.101 241.017 M 243 242.518 C 243 244.279, 245.397 247.154, 247.980 248.490 C 251.322 250.218, 253.401 250.458, 252.508 249.013 C 251.682 247.676, 243 241.745, 243 242.518 M 225.978 247.959 C 228.189 252.091, 240 258.788, 240 255.910 C 240 255.014, 226.847 246, 225.540 246 C 225.204 246, 225.402 246.882, 225.978 247.959 M 264 256.521 C 264 256.808, 265.078 258.721, 266.395 260.771 C 267.713 262.822, 269.342 266.300, 270.016 268.500 C 271.759 274.190, 273 275.091, 273 270.668 C 273 266.198, 270.951 260.951, 268.088 258.088 C 266.144 256.144, 264 255.322, 264 256.521 M 290.558 262.500 C 289.310 271.585, 288.862 272.984, 286.714 274.488 C 284.613 275.960, 284.611 275.995, 286.544 277.457 C 289.374 279.597, 289.471 279.520, 291.317 273.662 C 293.105 267.990, 293.376 262.780, 292.053 259.500 C 291.424 257.941, 291.094 258.603, 290.558 262.500 M 185.607 265.582 C 184.520 268.414, 184.966 275.521, 186.568 280.917 C 188.782 288.373, 189.253 286.780, 188.437 274.594 C 187.764 264.546, 186.972 262.025, 185.607 265.582 M 270.315 279.274 C 271.693 281.625, 273.509 286.189, 274.352 289.416 C 276.557 297.862, 278.440 299.167, 277.610 291.676 C 276.858 284.881, 275.016 280.016, 272.088 277.088 C 268.596 273.596, 267.662 274.748, 270.315 279.274 M 186.893 295.500 C 186.344 302.279, 189.303 322.031, 190.663 320.671 C 191.351 319.982, 188.976 296.932, 187.966 294.500 C 187.244 292.762, 187.104 292.893, 186.893 295.500 M 235.388 296.972 C 223.299 299.548, 223.239 299.586, 222.683 304.763 C 222.403 307.368, 221.219 312.875, 220.052 317 C 211.455 347.393, 221.200 375.124, 242.768 381.641 C 250.458 383.965, 251.362 385, 245.700 385 C 243.115 385, 241 385.168, 241 385.374 C 241 385.580, 241.675 387.662, 242.500 390 C 243.625 393.188, 244.004 398.909, 244.015 412.876 C 244.024 423.119, 244.361 431.994, 244.765 432.597 C 245.275 433.359, 248.558 432.782, 255.500 430.711 C 273.130 425.452, 290.081 425.726, 314.599 431.667 C 316.552 432.140, 316.737 431.664, 317.256 424.796 C 317.563 420.737, 318.821 412.363, 320.052 406.186 C 321.282 400.009, 322.046 394.712, 321.748 394.415 C 321.450 394.117, 319.158 395.865, 316.653 398.299 C 314.149 400.733, 310.428 403.518, 308.386 404.487 L 304.673 406.249 289.918 398.623 C 279.568 393.272, 272.229 390.222, 265.332 388.403 C 253.921 385.394, 251.629 384, 258.090 384 C 265.723 384, 273.962 386.690, 287.897 393.731 C 295.266 397.454, 301.636 400.636, 302.054 400.802 C 302.471 400.968, 302.416 399.393, 301.930 397.302 C 300.324 390.383, 300.853 373.895, 302.943 365.723 C 306.766 350.775, 317.167 328.111, 322.190 323.784 C 325.903 320.586, 326.504 320.919, 311 317.579 C 285.875 312.167, 278.144 311, 267.405 311 C 255.733 311, 253.976 309.439, 264.147 308.105 C 274.442 306.754, 256.345 303.747, 243 304.591 C 235.752 305.049, 234.795 304.934, 236.500 303.814 C 240.534 301.164, 262.105 302.079, 273 305.363 C 278.225 306.938, 282.927 308.626, 283.450 309.113 C 283.972 309.601, 285.997 310.011, 287.950 310.024 C 289.902 310.037, 293.165 310.435, 295.200 310.907 C 299.395 311.882, 299.976 311.625, 299.312 309.087 C 298.944 307.677, 297.122 307.046, 290.876 306.163 C 286.494 305.543, 277.417 303.173, 270.705 300.895 C 257.656 296.468, 244.574 295.015, 235.388 296.972 M 273.718 316.092 C 266.173 317.868, 254.929 325.588, 248.552 333.372 C 243.208 339.893, 244.227 339.759, 252.205 332.893 C 260.395 325.843, 269.661 319.614, 274.625 317.819 C 276.481 317.147, 278 316.239, 278 315.799 C 278 315.360, 277.887 315.045, 277.750 315.100 C 277.613 315.156, 275.798 315.602, 273.718 316.092 M 325.196 325.575 C 317.217 331.164, 302.813 372.735, 304.530 385.219 L 305.188 390 317.844 389.992 C 333.634 389.982, 343.969 388.851, 365.193 384.812 L 381.887 381.636 398.193 389.767 C 421.390 401.335, 425.488 402.511, 441 402.052 C 447.875 401.849, 467.225 401.693, 484 401.707 C 523.052 401.738, 535.409 403.625, 552.251 412.127 C 559.216 415.642, 564.156 416.074, 567.085 413.423 C 570.189 410.614, 570.653 409.427, 574.369 394.805 C 576.669 385.752, 579.309 378.354, 582.523 371.958 C 588.680 359.704, 591 352.832, 591 346.843 C 591 340.783, 590.017 340.726, 587.154 346.621 C 585.919 349.162, 584.659 350.993, 584.355 350.688 C 583.144 349.477, 586.351 342.800, 589.130 340.745 C 591.026 339.344, 591.978 337.836, 591.791 336.532 C 591.323 333.261, 588.742 334.185, 586.298 338.500 C 583.714 343.063, 583.187 341.516, 585.596 336.438 C 586.475 334.587, 588.074 332.794, 589.152 332.452 C 590.229 332.110, 590.935 331.306, 590.722 330.665 C 589.918 328.255, 587.458 329.646, 585.162 333.809 C 583.855 336.179, 582.557 337.890, 582.278 337.611 C 581.277 336.611, 586.348 327.722, 588.195 327.239 C 591.321 326.421, 589.530 324.479, 585.930 324.782 C 581.982 325.115, 582.049 325.025, 577.397 336.175 C 573.961 344.409, 573.100 345.525, 560.418 358.175 C 543.533 375.016, 540.966 376.293, 524 376.293 C 510.919 376.293, 498.943 373.927, 474.751 366.561 C 456.533 361.015, 431.575 356.078, 408.736 353.503 C 402.481 352.797, 401.826 351.014, 407.809 350.978 L 411.500 350.956 409 348.976 C 402.445 343.784, 393.603 340.947, 376.831 338.654 L 373.163 338.152 376.968 341.590 C 380.241 344.547, 382.854 349, 381.317 349 C 381.044 349, 378.049 346.525, 374.660 343.501 C 366.595 336.301, 358.151 331.960, 343.692 327.578 C 330.419 323.556, 328.392 323.337, 325.196 325.575 M 279.843 349.916 C 267.880 353.144, 245.831 363.165, 247.350 364.683 C 247.626 364.959, 253.397 362.962, 260.176 360.245 C 266.954 357.529, 275.988 354.066, 280.250 352.552 C 284.512 351.037, 288 349.393, 288 348.899 C 288 347.748, 287.778 347.776, 279.843 349.916 M 382.662 349.618 C 381.100 350.464, 380.014 351.347, 380.246 351.579 C 380.959 352.293, 396 350.756, 396 349.970 C 396 347.727, 386.609 347.479, 382.662 349.618 M 338.500 365.630 C 323.168 367.609, 321.132 368.848, 333.074 368.932 C 342.062 368.996, 358.949 366.783, 363.472 364.949 C 366.762 363.615, 350.722 364.052, 338.500 365.630 M 276.105 370.093 C 272.587 371.712, 266.400 374.212, 262.355 375.648 C 254.035 378.602, 253.028 379.560, 259.250 378.600 C 266.847 377.429, 278.540 373.032, 282.061 370.022 C 286.442 366.276, 284.341 366.301, 276.105 370.093 M 421.500 373.893 C 418.242 374.723, 417.709 374.627, 439 377.056 C 443.675 377.589, 449.300 378.259, 451.500 378.544 C 455.366 379.045, 455.417 379.016, 453 377.651 C 447.798 374.713, 427.694 372.315, 421.500 373.893 M 370 377.288 L 364.500 378.338 369 379.223 C 375.999 380.599, 391.774 378.739, 388.845 376.883 C 387.065 375.755, 376.881 375.974, 370 377.288 M 481.414 389.861 C 482.585 391.756, 508.375 396.958, 509.756 395.577 C 510.245 395.088, 506.867 394.116, 494 391.044 C 484.924 388.876, 480.552 388.465, 481.414 389.861 M 550.500 392 C 548.479 393.339, 545.806 393.989, 542.309 393.993 C 535.576 394.002, 534.608 395.645, 540.731 396.672 C 548.226 397.930, 551.461 396.744, 554.128 391.761 C 555.356 389.466, 554.212 389.542, 550.500 392 M 305.301 396.466 C 306.113 401.469, 306.325 401.580, 310.335 399.102 C 316.087 395.547, 316.853 394.002, 312.872 393.986 C 311.018 393.979, 308.417 393.683, 307.094 393.329 C 304.794 392.713, 304.714 392.852, 305.301 396.466 M 453.731 396.406 C 444.018 399.280, 442.757 400.474, 450.336 399.620 C 456.348 398.943, 462 396.691, 462 394.974 C 462 394.438, 461.887 394.024, 461.750 394.054 C 461.613 394.083, 458.004 395.142, 453.731 396.406 M 503 541.823 L 503 678.923 508.182 680.461 C 514.293 682.276, 526.833 682.489, 530.453 680.839 L 533 679.679 533 543.977 L 533 408.274 525.750 407.154 C 521.763 406.537, 515.013 405.738, 510.750 405.378 L 503 404.724 503 541.823 M 271.388 430.989 C 268.026 431.462, 263.414 432.333, 261.138 432.924 C 258.862 433.516, 255.266 434.450, 253.147 434.999 L 249.293 435.998 249.675 441.249 C 250.389 451.082, 252.189 461.285, 255.597 474.815 C 259.856 491.726, 260.061 499.351, 256.474 507.462 C 253.173 514.927, 249.530 529.180, 247.967 540.745 C 246.248 553.460, 247.154 564.218, 251.146 578.500 L 254.500 590.500 254.473 618.500 C 254.450 641.135, 254.093 648.491, 252.609 656.892 C 250.572 668.420, 250.854 676.282, 253.395 678.825 C 255.151 680.582, 256.935 680.669, 277 679.982 C 284.876 679.712, 287.696 680.056, 293.500 681.993 C 299.063 683.850, 302.450 684.302, 310 684.194 C 315.225 684.119, 321.852 684.524, 324.726 685.095 C 333.862 686.908, 340.381 681.017, 332 678.522 C 328.064 677.351, 323.631 675.036, 324.211 674.456 C 324.611 674.055, 333.058 676.200, 336.500 677.575 C 338.256 678.277, 338.338 678.175, 337.173 676.742 C 336.443 675.844, 333.293 674.586, 330.173 673.946 C 327.053 673.306, 321.930 671.745, 318.790 670.477 C 312.724 668.029, 292.998 654.722, 288.729 650.199 C 281.340 642.370, 280.139 616.287, 285.571 581.623 C 288.776 561.164, 290.877 544.983, 291.493 536 C 292.172 526.103, 295.459 512.031, 299.636 501.139 C 301.590 496.043, 302.043 493.138, 301.912 486.530 C 301.777 479.670, 302.202 477.153, 304.434 471.572 C 307.449 464.037, 310.508 450.805, 311.523 440.907 L 312.199 434.313 303.850 432.684 C 293.242 430.613, 279.251 429.883, 271.388 430.989 M 293.592 474.091 C 291.708 478.166, 288.554 483.611, 286.583 486.190 C 282.525 491.501, 282.278 492.192, 284.750 491.320 C 289.555 489.624, 294.798 481.660, 297.083 472.584 C 298.919 465.294, 297.344 465.973, 293.592 474.091 M 268.483 501.737 C 269.237 506.762, 271.489 512, 272.897 512 C 274.064 512, 272.407 503.688, 270.507 500.014 C 268.294 495.735, 267.664 496.272, 268.483 501.737 M 288.685 503.534 C 286.880 507.320, 286.498 512.659, 287.876 514.834 C 289.061 516.703, 289.634 514.935, 290.518 506.674 C 291.334 499.061, 291.050 498.575, 288.685 503.534 M 271.763 550.950 C 269.811 559.120, 267.873 564.393, 265.001 569.354 C 260.726 576.738, 260.503 578.755, 264.362 575.130 C 269.682 570.132, 275.461 552.933, 274.822 544 C 274.527 539.876, 274.271 540.458, 271.763 550.950 M 259.931 635.680 C 257.660 641.655, 257.747 646.320, 260.216 650.931 C 264.388 658.722, 266.984 656.809, 262.956 648.913 C 261.269 645.606, 261.029 643.866, 261.585 638.953 C 262.300 632.628, 261.611 631.263, 259.931 635.680" stroke="none" fill="#333" fill-rule="evenodd"/>
</svg>