<svg width="87pt" height="275pt" viewBox="0 0 273 864" xmlns="http://www.w3.org/2000/svg">
	<rect x="0" y="0" width="100%" height="100%" fill="#FFF" />
	<path d="M 134.410 42.134 C 122.935 44.716, 114.869 52.955, 110.440 66.619 C 105.431 82.076, 106.909 93.223, 115.518 104.918 C 122.697 114.670, 124.791 120.020, 126.568 133.153 C 127.543 140.356, 124.996 147.251, 117.942 156.500 C 102.415 176.860, 97 194.334, 97 224.076 C 97 241.715, 99.085 252.152, 104.976 264 C 105.933 265.925, 106.982 269.535, 107.308 272.023 C 107.633 274.510, 109.314 279.910, 111.042 284.023 C 118.602 302.007, 118.340 301.014, 117.121 307.060 C 115.654 314.335, 115.752 317.943, 117.500 321 C 118.286 322.375, 118.945 325.881, 118.965 328.792 C 118.984 331.703, 119.712 337.533, 120.583 341.747 C 122.430 350.689, 121.881 356.507, 118.578 363 C 112.639 374.678, 106.658 400.611, 106.702 414.500 C 106.723 421.257, 107.406 424.519, 111.099 435.500 C 113.503 442.650, 115.368 449.175, 115.243 450 C 114.471 455.083, 112.064 490.471, 111.807 500.500 L 111.500 512.500 116.150 513.990 C 120.460 515.370, 120.839 515.764, 121.322 519.363 C 121.608 521.499, 123.981 532.014, 126.594 542.728 L 131.345 562.210 129.535 577.855 C 127.917 591.846, 127.279 594.557, 123.494 603.500 C 109.154 637.390, 107.725 652.207, 115.878 682.503 C 120.999 701.535, 122.611 711.344, 124.081 732.410 C 125.688 755.442, 124.571 766.323, 118.014 791.500 C 113.173 810.091, 118.102 814.744, 144 816.031 C 152.930 816.475, 163.951 817.720, 170 818.967 C 176.472 820.302, 183.185 821.027, 187.500 820.859 C 191.350 820.708, 195.930 820.932, 197.677 821.356 C 203.896 822.865, 221.490 819.492, 227.092 815.717 C 232.235 812.251, 232.404 805.642, 227.383 804.381 L 224.796 803.732 227.789 801.837 C 231.377 799.565, 233.600 794.894, 232.244 792.472 C 231.339 790.854, 226.879 788.960, 214.742 785.039 C 207.632 782.742, 179.806 767.970, 173.396 763.090 C 170.802 761.116, 167.312 757.799, 165.640 755.720 L 162.602 751.940 162.824 734.720 C 163.153 709.163, 164.849 692.611, 170.018 664.500 C 171.636 655.700, 173.592 640.400, 174.364 630.500 C 175.602 614.648, 176.131 611.605, 178.804 605 C 180.474 600.875, 182.131 595.700, 182.487 593.500 C 182.843 591.300, 184.659 586.125, 186.524 582 C 189.848 574.644, 191.977 565.199, 191.992 557.740 C 191.998 555.195, 193.452 551.296, 196.494 545.669 C 199.071 540.904, 201.957 533.572, 203.257 528.488 C 205.468 519.845, 205.614 519.598, 209.011 518.717 C 213.612 517.525, 213.630 517.479, 214.439 505.151 C 214.824 499.293, 216.016 487.525, 217.088 479 C 218.160 470.475, 219.464 459, 219.985 453.500 C 220.648 446.500, 221.990 440.500, 224.456 433.500 C 229.541 419.069, 228.950 411.929, 220.581 386.704 C 216.591 374.677, 216.391 373.543, 217.257 367.821 C 218.058 362.531, 217.932 361.390, 216.295 359.117 C 214.940 357.233, 214.601 355.660, 215.088 353.500 C 216.181 348.648, 216.088 332.509, 214.937 327.141 C 214.150 323.472, 214.188 321.055, 215.084 317.842 C 215.749 315.454, 216.253 308.797, 216.204 303.048 C 216.135 294.937, 216.577 291.241, 218.177 286.548 C 220.041 281.082, 220.165 279.249, 219.457 267.500 C 218.562 252.642, 218.571 248.102, 219.511 239 C 220.959 224.979, 212.384 206.943, 195.869 189.275 C 190.329 183.349, 184.643 177.262, 183.232 175.750 C 181.821 174.237, 180.364 173, 179.994 173 C 176.661 173, 176.917 145.829, 180.298 140.668 C 181.891 138.237, 182.468 138.083, 189.685 138.167 C 196.298 138.244, 197.607 137.969, 199.037 136.203 C 200.863 133.948, 202.423 122.187, 202.471 110.316 C 202.496 104.177, 202.828 102.825, 204.750 101.027 C 205.988 99.869, 207 98.332, 207 97.611 C 207 96.232, 202.296 89.239, 198.516 85 C 196.723 82.989, 196.076 80.482, 195.213 72.186 C 194.301 63.415, 193.726 61.321, 191.368 58.186 C 184.496 49.049, 177.811 44.704, 167.144 42.443 C 159.783 40.883, 140.770 40.703, 134.410 42.134 M 136.410 45.134 C 126.382 47.390, 118.976 54.103, 115.107 64.443 C 109.323 79.903, 110.180 89.651, 118.417 102.067 C 126.978 114.975, 129.947 123.858, 129.983 136.685 C 130.005 144.690, 129.235 146.533, 121.087 157.958 C 112.662 169.773, 111.291 172.487, 106.120 187.592 C 99.150 207.954, 98.182 232.711, 103.680 250 L 105.429 255.500 106.168 246.356 C 106.575 241.327, 107.598 234.234, 108.442 230.595 C 109.551 225.812, 109.800 221.484, 109.339 214.988 C 108.533 203.640, 109.988 203.271, 112.248 214.251 C 113.881 222.185, 113.871 222.866, 111.986 232.001 C 107.848 252.056, 109.660 272.302, 117.107 289.224 C 121.551 299.324, 122.090 302.418, 120.760 310.188 C 119.660 316.610, 119.724 317.099, 122.374 322.511 C 125.418 328.727, 129.354 343.015, 128.778 345.755 C 128.576 346.715, 127.368 343.338, 126.093 338.250 C 123.165 326.562, 121.846 326.290, 123.668 337.750 C 126.389 354.875, 132.528 373.043, 141.999 392 C 153.279 414.577, 155.752 423.958, 153.429 435.349 C 151.595 444.338, 151.918 448.852, 155.062 458.184 C 156.680 462.987, 157.020 465.687, 156.515 469.730 C 155.977 474.033, 156.148 475.120, 157.440 475.615 C 160.077 476.627, 161.837 474.153, 162.552 468.430 C 162.925 465.444, 163.629 463, 164.115 463 C 165.321 463, 165.190 470.598, 163.900 475.500 C 162.263 481.719, 162.330 483.403, 164.233 483.789 C 166.855 484.320, 170.762 479.420, 171.489 474.687 C 172.928 465.319, 173.264 464, 174.213 464 C 175.602 464, 174.174 477.757, 172.407 481.404 C 170.424 485.495, 170.627 486.176, 173.718 485.816 C 177.914 485.328, 180.576 480.473, 181.378 471.847 C 181.751 467.830, 182.551 464.084, 183.156 463.522 C 184.697 462.090, 183.422 480.352, 181.799 482.950 C 180.265 485.406, 181.417 486.729, 183.549 484.959 C 188.398 480.935, 189.511 476.243, 189.288 460.750 C 189.008 441.264, 190.819 440.728, 192.587 459.772 C 193.169 466.032, 194.269 469.125, 195.460 467.850 C 196.016 467.255, 193.016 445.693, 191.897 442.244 C 191.316 440.454, 188.327 435.504, 185.254 431.244 C 181.310 425.778, 179.006 421.294, 177.421 416 C 176.186 411.875, 174.433 406.475, 173.525 404 C 168.104 389.229, 166 377.267, 165.992 361.182 C 165.983 341.770, 165.073 335.919, 159.512 319.500 C 155.631 308.042, 154.480 303.040, 154.909 299.500 C 154.976 298.950, 155.409 299.097, 155.871 299.826 C 156.781 301.261, 160.457 292.265, 164.151 279.561 C 166.672 270.893, 168.203 238.139, 166.024 239.485 C 164.368 240.508, 165.417 237.183, 169.017 230 C 170.533 226.975, 172.341 222.602, 173.035 220.283 C 173.729 217.963, 174.665 216.293, 175.116 216.572 C 176.191 217.236, 175.212 222.174, 172.651 229 C 170.883 233.715, 170.629 236.355, 170.875 247.500 C 171.221 263.164, 169.309 276.290, 164.959 288.126 C 157.571 308.224, 157.621 304.441, 164.487 323.781 C 166.937 330.683, 168.361 336.764, 168.819 342.281 L 169.500 350.500 178.500 351.122 C 186.296 351.662, 201.940 354.007, 208.645 355.641 C 210.607 356.120, 210.898 355.552, 212.079 348.944 C 213.459 341.221, 212.198 324.798, 210.060 322.660 C 209.350 321.950, 209.567 321.031, 210.756 319.717 C 212.200 318.121, 212.485 315.735, 212.492 305.181 L 212.500 292.554 208.250 292.853 C 205.697 293.033, 204 292.723, 204 292.076 C 204 291.484, 205.012 290.994, 206.250 290.986 C 212.874 290.946, 215.409 288.087, 216.515 279.406 C 217.428 272.232, 215.386 252.729, 213.598 251.555 C 212.374 250.752, 212.478 250.002, 214.287 246.555 C 222.384 231.135, 210.544 207.475, 179.177 176.392 L 173.853 171.117 174.535 156.809 C 175.064 145.714, 175.626 141.783, 177.040 139.310 L 178.862 136.120 166.571 132.024 C 153.021 127.508, 150.628 125.751, 149.167 119.250 C 147.908 113.642, 149.276 113.816, 151.463 119.542 C 153.671 125.325, 154.889 126.047, 170 130.539 C 184.850 134.953, 193.836 136.021, 196.205 133.652 C 197.861 131.996, 199.891 108.765, 198.660 105.557 C 198.342 104.728, 199.185 102.745, 200.542 101.133 C 203.913 97.127, 203.703 96.115, 198.204 89.831 C 193.445 84.392, 193.400 84.273, 192.210 74.137 C 191.551 68.520, 190.369 62.680, 189.583 61.160 C 187.528 57.187, 179.548 50.130, 174.670 47.972 C 166.465 44.343, 146.508 42.862, 136.410 45.134 M 135.229 87.669 C 132.880 88.614, 130.834 93.960, 131.535 97.323 C 133.158 105.122, 140.403 113, 145.951 113 C 149.185 113, 147.938 110.741, 144.164 109.763 C 138.055 108.180, 132.311 97.024, 135.009 91.983 C 136.062 90.016, 136.743 89.825, 140.851 90.354 L 145.500 90.951 143.139 88.976 C 140.870 87.077, 137.915 86.589, 135.229 87.669 M 138.817 131.250 C 142.435 136.526, 146.308 144.099, 150.709 154.500 C 153.395 160.847, 153.994 161.725, 153.609 158.748 C 152.679 151.542, 139.674 127.146, 136.702 127.031 C 136.263 127.014, 137.215 128.912, 138.817 131.250 M 141.250 167.608 C 138.663 168.764, 140.178 169.504, 145.379 169.626 C 155.984 169.874, 167.164 177.986, 171.527 188.600 L 173.953 194.500 173.976 190.718 C 174.026 182.800, 168.429 175.568, 158.276 170.431 C 153.015 167.769, 144.173 166.303, 141.250 167.608 M 125.933 179.266 C 122.791 181.384, 117.542 187.876, 118.333 188.666 C 118.524 188.858, 121.231 186.464, 124.348 183.348 C 130.590 177.105, 131.105 175.781, 125.933 179.266 M 125 232.377 C 125 233.300, 142.135 248.198, 142.629 247.705 C 143.460 246.873, 135.130 238.185, 130.343 234.892 C 126.368 232.157, 125 231.513, 125 232.377 M 177 235.711 C 177 239.370, 191.992 249.040, 199.750 250.386 C 204.815 251.265, 203.581 249.605, 197.250 247.024 C 192.209 244.968, 187.403 242.118, 179.250 236.348 C 178.012 235.473, 177 235.186, 177 235.711 M 145 261.294 C 145 264.271, 144.746 269.585, 144.435 273.103 C 143.971 278.361, 144.087 279.157, 145.084 277.573 C 146.749 274.929, 147.617 257.499, 146.129 256.580 C 145.343 256.094, 145 257.528, 145 261.294 M 173.947 261.444 C 176.751 264.428, 182.468 267.251, 184.790 266.797 C 185.876 266.585, 184.068 265.101, 179.838 262.732 C 172.046 258.368, 170.802 258.096, 173.947 261.444 M 211.888 263.500 C 211.552 264.050, 210.994 265.685, 210.649 267.133 C 210.303 268.582, 208.653 271.231, 206.981 273.021 C 203.509 276.738, 203.744 278.053, 207.448 275.626 C 210.686 273.505, 213.205 268.599, 212.810 265.184 C 212.640 263.708, 212.225 262.950, 211.888 263.500 M 120.022 274.191 C 120.078 277.544, 129.479 293.854, 130.669 292.664 C 130.931 292.402, 129.088 288.561, 126.573 284.128 C 124.058 279.696, 122 275.630, 122 275.094 C 122 274.557, 121.550 273.840, 121 273.500 C 120.450 273.160, 120.010 273.471, 120.022 274.191 M 196.612 293.750 C 195.820 295.262, 193.687 298.006, 191.872 299.848 C 188.754 303.011, 188.702 303.176, 190.934 302.848 C 193.461 302.476, 198.371 296.954, 199.468 293.250 C 200.414 290.056, 198.357 290.417, 196.612 293.750 M 130.572 309.366 C 130.125 312.353, 130.432 315.118, 131.547 318.116 C 132.443 320.527, 134.008 327.900, 135.024 334.500 C 136.984 347.227, 139.985 358.234, 142.391 361.514 C 143.318 362.779, 142.818 359.831, 141.015 353.401 C 138.235 343.487, 135.437 328.230, 136.250 327.416 C 136.477 327.189, 138.117 329.028, 139.894 331.502 C 141.671 333.976, 143.330 336, 143.582 336 C 144.325 336, 139.981 327.871, 136.636 323 C 134.103 319.311, 133.477 317.284, 133.160 311.750 C 132.720 304.044, 131.534 302.952, 130.572 309.366 M 191.809 308.552 C 191.327 309.378, 194.303 325.789, 195.427 328.500 C 195.656 329.050, 195.843 326.800, 195.844 323.500 C 195.845 317.612, 192.897 306.689, 191.809 308.552 M 195.030 336.068 C 194.997 341.109, 197.988 352.325, 198.773 350.100 C 199.360 348.436, 197.139 335.150, 195.915 333 C 195.346 332.001, 195.051 333.027, 195.030 336.068 M 169.915 360.271 C 169.714 379.619, 170.156 382.420, 176.493 402 C 178.362 407.775, 180.374 414.379, 180.964 416.676 C 181.554 418.972, 183.997 423.472, 186.393 426.676 C 193.946 436.775, 196.027 442.008, 197.488 454.574 C 198.210 460.786, 199.072 466.308, 199.404 466.844 C 200.602 468.782, 198.775 471, 195.981 471 C 193.494 471, 193.100 471.447, 192.509 474.948 C 191.110 483.225, 183.516 491.417, 179.323 489.173 C 178.128 488.533, 176.841 488.488, 175.946 489.054 C 173.719 490.463, 171.316 490.173, 169.408 488.265 C 168.453 487.311, 166.587 486.673, 165.256 486.847 C 162.452 487.215, 159 484.492, 159 481.912 C 159 480.935, 158.088 479.845, 156.973 479.492 C 153.119 478.268, 151.787 474.825, 153.170 469.655 C 154.293 465.457, 154.164 464.350, 151.700 457.053 C 148.587 447.830, 148.514 446.458, 150.529 435.064 C 152.535 423.717, 151.387 419.523, 139.884 396.157 C 134.917 386.069, 129.333 373.244, 127.476 367.657 C 125.618 362.071, 124.009 358.175, 123.901 359 C 123.793 359.825, 123.649 361.175, 123.583 362 C 123.516 362.825, 122.465 365.380, 121.247 367.678 C 116.345 376.928, 111.001 401.306, 110.999 414.426 C 110.998 420.987, 116.364 443.007, 117.961 442.996 C 118.257 442.994, 119.341 440.948, 120.369 438.448 C 123.072 431.875, 123.395 433.601, 121.047 442.075 C 118.614 450.852, 115 489.950, 115 507.486 C 115 511.159, 119.589 512.490, 138.817 514.395 C 145.056 515.013, 145.095 514.956, 149.592 498.755 C 152.884 486.891, 152.969 486.636, 153.458 487.125 C 153.684 487.351, 154.558 493.774, 155.399 501.399 C 156.241 509.024, 157.125 515.458, 157.363 515.697 C 158.654 516.987, 201.737 517.129, 205.500 515.855 L 209.500 514.500 210.278 506 C 214.536 459.477, 216.577 445.190, 220.703 433.028 C 225.063 420.176, 224.917 413.047, 219.975 397.500 C 218.227 392, 215.884 384.289, 214.769 380.364 L 212.741 373.228 202.121 371.605 C 196.279 370.712, 188.481 369.615, 184.791 369.167 L 178.081 368.353 177.493 371.426 C 175.835 380.089, 174.711 384, 173.881 384 C 173.376 384, 173.175 382.988, 173.435 381.750 C 174.326 377.511, 176 368.902, 176 368.559 C 176 368.371, 174.875 367.934, 173.500 367.589 C 170.813 366.915, 170.048 365, 172.466 365 C 175.324 365, 196.617 368.083, 204.361 369.619 C 213.487 371.428, 214.255 371.043, 213.814 364.886 L 213.500 360.500 206.500 358.801 C 202.650 357.867, 193.875 356.381, 187 355.499 C 180.125 354.617, 173.488 353.479, 172.250 352.969 C 170.027 352.054, 169.999 352.143, 169.915 360.271 M 187.800 374 C 187.442 375.375, 186.456 380.100, 185.609 384.500 C 184.761 388.900, 183.399 394.637, 182.582 397.250 C 181.764 399.863, 181.492 402, 181.976 402 C 183.055 402, 186.720 392.402, 188.103 385.956 C 189.230 380.699, 188.949 369.587, 187.800 374 M 210.107 394.250 C 215.420 412.090, 217 419.052, 217 424.614 C 217 428.062, 217.450 431.160, 218 431.500 C 219.588 432.481, 219.200 418.189, 217.457 411.497 C 215.195 402.811, 210.863 391, 209.940 391 C 209.500 391, 209.575 392.462, 210.107 394.250 M 151.882 503.500 C 151.544 504.050, 150.249 507.602, 149.005 511.393 L 146.742 518.285 135.847 517.623 L 124.952 516.962 125.446 519.231 C 125.717 520.479, 127.810 529.375, 130.097 539 C 136.181 564.609, 135.298 588.421, 127.648 605 C 113.848 634.907, 112.210 651.301, 119.902 682.500 C 125.525 705.309, 126.789 713.203, 128.034 733.297 C 129.344 754.455, 128.596 762.602, 123.322 784.557 C 117.375 809.316, 119.103 812, 140.991 812 C 147.356 812, 155.372 812.897, 164.116 814.588 C 171.477 816.011, 181.775 817.319, 187 817.494 C 192.225 817.669, 198.007 818.137, 199.848 818.534 C 205.570 819.767, 203.519 815.994, 196.662 812.672 C 193.451 811.116, 191.044 809.622, 191.314 809.352 C 192.510 808.156, 200.174 811.585, 203.136 814.640 C 206.116 817.715, 210 819.156, 210 817.187 C 210 815.881, 204.788 811.374, 201.157 809.540 C 199.318 808.612, 198.012 807.655, 198.254 807.413 C 199.183 806.484, 206.224 810.207, 210.015 813.633 C 212.649 816.012, 214.548 817.004, 215.658 816.578 C 217.918 815.711, 211.998 809.490, 207.295 807.790 C 204.363 806.729, 202.766 804.985, 204.750 805.009 C 206.241 805.028, 215.545 810.818, 217.405 812.884 C 219.289 814.977, 222 815.751, 222 814.196 C 222 812.610, 215.422 807.148, 211.500 805.479 C 209.300 804.543, 208.029 803.576, 208.675 803.330 C 210.133 802.776, 217.533 806.465, 221.327 809.637 C 224.623 812.392, 226.542 812.637, 227.396 810.410 C 228.232 808.231, 227.497 807.333, 224.259 806.577 C 222.742 806.222, 218.800 804.611, 215.500 802.997 C 212.200 801.383, 206.933 799.123, 203.797 797.976 C 198.565 796.064, 179.135 784.347, 171.165 778.299 C 165.663 774.124, 161.554 765.230, 159.013 752 C 156.982 741.418, 161.263 688.592, 166.037 665.340 C 167.072 660.301, 168.393 651.076, 168.974 644.840 C 171.709 615.489, 172.172 612.623, 175.625 603.734 C 177.497 598.913, 178.933 593.702, 178.815 592.155 C 178.697 590.608, 179.585 587.673, 180.789 585.634 C 184.490 579.361, 187.043 569.936, 187.694 560.142 C 188.157 553.180, 188.757 550.363, 190.038 549.142 C 193.572 545.772, 197.916 535.161, 200.432 523.750 L 201.038 521 188.625 521 C 174.931 521, 155.974 519.353, 154.657 518.048 C 154.193 517.589, 153.517 513.903, 153.154 509.857 C 152.792 505.811, 152.219 502.950, 151.882 503.500 M 144.013 530.691 C 144.029 536.503, 147.175 552.158, 149.301 557 C 151.414 561.816, 151.347 558.921, 149.089 547.860 C 148.038 542.712, 146.860 535.907, 146.472 532.737 C 145.593 525.560, 143.995 524.230, 144.013 530.691 M 191.386 527.607 C 189.011 534.404, 184.284 542.376, 179.415 547.796 C 173.100 554.824, 172.760 556.255, 178.349 552.278 C 183.211 548.819, 189.598 539.189, 191.602 532.298 C 193.065 527.265, 192.883 523.320, 191.386 527.607 M 166.058 563.137 C 164.609 565.513, 164.030 568.114, 164.083 572 C 164.140 576.206, 164.344 576.912, 164.948 575 C 169.464 560.701, 169.812 556.979, 166.058 563.137 M 164.277 589.500 C 164.815 595.400, 167.919 604.532, 168.669 602.422 C 169.129 601.128, 165.380 585.024, 164.410 584.128 C 164.036 583.783, 163.976 586.200, 164.277 589.500 M 143.534 587.288 C 142.278 590.178, 143.891 597.168, 146.647 600.782 C 149.868 605.005, 150.927 604.236, 148.128 599.707 C 146.973 597.838, 145.642 593.877, 145.169 590.905 C 144.549 586.998, 144.095 585.996, 143.534 587.288 M 156.542 635.250 C 156.269 636.487, 155.551 640.390, 154.948 643.922 C 153.503 652.369, 147.971 669.133, 144.092 676.818 C 140.581 683.772, 139.996 686.992, 143.059 682.500 C 150.023 672.285, 156.793 652.990, 157.707 640.750 C 158.256 633.400, 157.616 630.379, 156.542 635.250 M 164.486 761 C 167.460 771.522, 169.079 773.340, 184.514 783.492 C 198.735 792.846, 206.485 797, 209.715 797 C 210.567 797, 212.796 797.947, 214.669 799.104 C 218.432 801.430, 222.861 801.187, 226.784 798.438 C 231.510 795.128, 228.839 792.045, 221.218 792.014 C 217.831 792, 210.313 789.354, 211.184 788.482 C 211.455 788.212, 213.122 788.495, 214.889 789.111 C 216.656 789.727, 218.331 790.002, 218.611 789.722 C 218.892 789.442, 216.104 788.238, 212.418 787.047 C 200.187 783.096, 174.879 769.176, 168.140 762.694 C 164.285 758.986, 163.861 758.790, 164.486 761 M 137.172 768.076 C 135.271 776.312, 135.646 779.573, 138.917 783.234 C 142.899 787.689, 143.771 786.171, 140.467 780.535 C 137.735 775.872, 137.607 773.473, 139.656 765.250 C 139.965 764.013, 139.795 763, 139.280 763 C 138.765 763, 137.816 765.284, 137.172 768.076" stroke="none" fill="#333" fill-rule="evenodd"/>
</svg>