<svg width="662pt" height="275pt" viewBox="0 0 701 291" xmlns="http://www.w3.org/2000/svg">
	<rect x="0" y="0" width="100%" height="100%" fill="#FFF" />
	<path d="M 235.231 47.612 C 232.874 48.477, 227.835 52.049, 223.977 55.590 C 220.135 59.115, 216.582 62, 216.080 62 C 215.579 62, 210.867 66.050, 205.609 71 L 196.048 80 190.475 80 C 183.677 80, 180.511 78.465, 176.174 73.067 C 171.321 67.028, 165.857 63.725, 160.745 63.740 C 158.410 63.747, 154.700 62.837, 152.500 61.718 C 146.745 58.791, 135.377 58.202, 129.314 60.518 C 115.063 65.960, 105.662 88.404, 111.810 102.304 C 114.370 108.090, 122.001 116.345, 127.966 119.779 C 130.460 121.215, 133.907 123.438, 135.627 124.720 C 137.550 126.152, 141.789 127.619, 146.627 128.525 C 150.957 129.336, 156.975 130.494, 160 131.097 C 163.025 131.700, 167.912 131.997, 170.860 131.756 L 176.221 131.317 175.687 135.296 C 175.291 138.250, 174.001 140.464, 170.680 143.888 C 162.560 152.260, 159.282 163.120, 161.825 173.221 C 162.701 176.698, 162.610 178.447, 161.365 182.030 C 160.231 185.295, 159.989 188.319, 160.467 193.250 L 161.121 200 143.811 200.010 C 123.865 200.021, 119.896 201.161, 112.500 209.001 C 107.080 214.747, 101.151 219, 98.561 219 C 97.385 219, 94.658 219.900, 92.500 221 C 90.342 222.100, 86.697 223, 84.399 223 C 79.040 223, 74.957 225.975, 76.593 228.687 C 79.409 233.357, 86.674 235.392, 100.500 235.385 C 115.911 235.377, 120.023 234.368, 128.888 228.421 C 137.506 222.640, 139.970 222.667, 153.759 228.695 C 165.624 233.882, 169.058 234.214, 193.171 232.500 C 200.576 231.973, 204.091 232.175, 208.171 233.359 C 223.958 237.943, 238.655 238.988, 246.500 236.084 C 256.405 232.418, 263.269 229.175, 265.192 227.252 C 267.985 224.460, 268.622 217.918, 266.615 212.662 L 264.964 208.340 270.486 202.818 L 276.008 197.296 290.254 196.503 C 305.161 195.672, 306.532 195.662, 332.707 196.179 L 348.915 196.500 353.207 200.703 C 358.368 205.755, 362.415 207.543, 370.864 208.501 C 374.364 208.898, 380.664 210.473, 384.864 212.002 C 389.064 213.530, 397.225 215.719, 403 216.865 C 408.775 218.011, 417.292 220.085, 421.926 221.474 C 431.684 224.399, 442.025 224.880, 444 222.500 C 445.643 220.521, 447.546 220.598, 460 223.153 C 469.706 225.145, 471.279 225.213, 480.806 224.052 C 487.158 223.278, 494.507 223.065, 499.961 223.497 C 507.050 224.058, 509.972 223.846, 514.655 222.428 C 519.032 221.104, 523.389 220.712, 532 220.868 C 545.700 221.117, 551.997 219.699, 562.296 214.049 C 582.362 203.040, 594.593 201.646, 610.229 208.588 C 629.368 217.084, 638.025 218.290, 644.079 213.301 C 644.947 212.585, 646.203 212, 646.869 212 C 653.147 212, 659.691 198.834, 655.498 194.641 C 654.162 193.305, 654.321 192.907, 656.939 191.043 C 660.254 188.683, 661.656 185.498, 660.171 183.702 C 659.624 183.041, 659.162 181.375, 659.145 180 C 659.090 175.695, 657.839 171.111, 656.391 169.910 C 655.626 169.275, 655 168.308, 655 167.761 C 655 167.214, 653.121 164.943, 650.825 162.714 C 644.094 156.182, 626.564 153.238, 591 152.668 C 580.502 152.500, 580.499 152.499, 571.966 147.816 C 556.806 139.494, 550.726 138, 532.008 138 C 514.292 138, 515.507 138.321, 503.500 130.463 C 499.100 127.583, 491.369 122.879, 486.319 120.008 C 477.545 115.020, 477.187 114.683, 478.232 112.390 C 478.833 111.071, 479.121 109.788, 478.873 109.540 C 478.004 108.670, 450.413 98.222, 440.500 95.008 C 435 93.225, 427.742 90.701, 424.371 89.399 C 414.360 85.535, 406.305 84.059, 391.500 83.376 C 374.504 82.593, 365.459 84.137, 353.447 89.873 C 343.015 94.855, 335.664 94.463, 330.549 88.654 C 328.872 86.749, 325.475 84.039, 323 82.633 C 320.525 81.226, 313.550 75.076, 307.500 68.965 C 293.932 55.261, 291.697 54, 280.978 54 C 273.665 54, 272.136 53.639, 265.266 50.289 C 256.191 45.864, 243.155 44.702, 235.231 47.612 M 238.139 50.083 C 233.402 51.537, 227.807 55.252, 224.582 59.085 C 223.068 60.885, 219.955 63.572, 217.664 65.058 C 215.374 66.543, 211.025 70.152, 208 73.077 C 198.590 82.176, 197.204 83, 191.306 83 C 185.158 83, 185.265 82.829, 188.456 87.531 C 195.962 98.591, 197.119 113.121, 191.167 121.566 L 188.041 126 194.580 126 C 198.891 126, 200.897 126.358, 200.469 127.050 C 200.092 127.660, 196.613 128.030, 192.160 127.934 C 181.265 127.699, 179.395 128.793, 178.594 135.876 C 178.040 140.766, 177.484 141.912, 174.509 144.286 C 167.952 149.517, 165.516 155.260, 165.507 165.500 C 165.502 172.170, 165.824 174.435, 166.750 174.250 C 168.434 173.913, 168.348 174.397, 165.853 179.288 C 163.608 183.689, 162.857 192.159, 164.265 197.214 C 164.856 199.337, 165.944 200.170, 169.260 201.039 C 173.226 202.077, 181.599 206.739, 180.842 207.487 C 180.654 207.673, 177.350 206.751, 173.500 205.438 C 167.072 203.247, 164.907 203.050, 147 203.036 C 124.195 203.017, 121.259 203.862, 112.500 212.965 C 107.239 218.433, 101.504 222, 97.974 222 C 95.042 222, 92 223.791, 92 225.516 C 92 227.463, 96.175 228.390, 100.757 227.461 C 102.815 227.044, 105.175 226.606, 106 226.489 C 106.825 226.372, 109.923 225.297, 112.885 224.100 C 120.354 221.080, 121.820 222.177, 114.648 225.419 C 103.899 230.279, 93.189 231.236, 89.172 227.696 C 87.982 226.646, 86.827 226.478, 85.166 227.110 C 78.430 229.673, 90.607 233.383, 103 232.543 C 116.784 231.609, 120.064 230.685, 127.313 225.692 C 134.310 220.874, 135.241 220.594, 143.079 220.950 C 146.778 221.119, 148.276 220.639, 150.871 218.455 C 155.015 214.968, 156.223 216.114, 152.500 220 C 149.075 223.575, 148.686 223.111, 158.522 227.172 C 168.452 231.271, 184.009 232.075, 186.536 228.620 C 187.762 226.943, 188.395 226.862, 192.398 227.870 C 194.866 228.492, 198.469 229, 200.404 229 C 202.339 229, 207.652 229.865, 212.211 230.921 C 234.625 236.116, 240.675 235.986, 253.269 230.036 C 256.802 228.366, 260.220 227, 260.863 227 C 262.985 227, 265.320 220.519, 264.593 216.646 C 263.528 210.969, 262.352 211.522, 260.436 218.598 C 258.465 225.878, 255.748 228.656, 251.612 227.617 C 249.975 227.207, 249.024 227.495, 248.630 228.522 C 247.755 230.801, 243.072 232.305, 241.336 230.864 C 240.260 229.971, 239.634 229.966, 238.758 230.842 C 237.090 232.510, 232.043 232.277, 231.362 230.500 C 231.045 229.675, 229.686 229, 228.342 229 C 222.908 229, 220.555 211.917, 224.726 202.750 L 226.888 198 221.694 198.016 C 218.837 198.024, 213.800 198.683, 210.500 199.480 C 202.550 201.400, 202.309 201.369, 204.736 198.750 C 213.944 188.813, 205.427 167.669, 190.934 164.486 C 187.017 163.625, 186.194 161.995, 189.691 162.022 C 193.650 162.053, 200.100 165.192, 204.649 169.302 C 207.671 172.032, 210.919 173.500, 219.401 175.971 C 243.377 182.956, 248.260 181.388, 257 163.904 C 260.189 157.522, 261.841 153.076, 261.464 151.887 C 261.021 150.492, 261.358 150, 262.754 150 C 266.012 150, 272.789 136.737, 275.097 125.845 C 278.427 110.133, 278.440 110, 276.713 110 C 275.861 110, 274.564 109.771, 273.832 109.492 C 272.802 109.099, 272.484 110.631, 272.430 116.242 C 272.292 130.467, 265.520 142.697, 256.250 145.463 C 252.848 146.479, 253.541 144.447, 257.414 142.053 C 264.033 137.963, 270 124.890, 270 114.481 C 270 109.667, 268.944 108.107, 263.353 104.661 C 261.072 103.255, 257.089 99.653, 254.503 96.657 C 251.502 93.182, 248.750 91, 246.900 90.630 C 242.781 89.806, 243.294 88.319, 247.526 88.813 C 250.610 89.173, 251.685 88.633, 256.091 84.511 C 258.863 81.919, 261.435 80.102, 261.807 80.474 C 262.179 80.846, 260.339 83.176, 257.718 85.652 L 252.954 90.154 255.980 93.975 C 260.554 99.750, 272.526 106.798, 278.031 106.956 C 278.955 106.983, 280.991 104.112, 283.169 99.710 C 286.576 92.824, 291.785 85.451, 292.639 86.305 C 292.853 86.520, 290.602 91.826, 287.636 98.098 C 282.311 109.360, 280.733 114.213, 277.549 129.120 C 276.325 134.851, 274.445 139.238, 269.964 146.816 C 266.688 152.358, 261.868 161.074, 259.253 166.185 C 255.398 173.722, 253.508 176.235, 249.246 179.489 C 246.356 181.695, 241.631 185.300, 238.746 187.500 C 234.571 190.683, 232.620 193.236, 229.191 200 C 225 208.266, 224.897 208.701, 225.432 215.800 C 226.405 228.700, 230.007 230.985, 229.990 218.691 C 229.980 211.490, 233.318 199, 235.252 199 C 235.738 199, 235.892 199.787, 235.595 200.750 C 231.938 212.615, 231.015 226.415, 233.701 229.101 C 236.543 231.943, 238.963 227.709, 238.986 219.855 C 239.003 214.333, 243.192 200.247, 243.771 203.767 C 243.976 205.014, 243.688 207.489, 243.131 209.267 C 240.954 216.218, 240.597 227.908, 242.540 228.654 C 244.908 229.562, 248 225.702, 248 221.837 C 248 217.492, 250.988 205.125, 252.223 204.362 C 252.937 203.921, 253.073 204.661, 252.633 206.601 C 251.344 212.289, 250.727 224.713, 251.704 225.317 C 253.534 226.448, 256.918 222.954, 257.606 219.221 C 259.063 211.316, 261.062 207.589, 266.395 202.836 C 272.927 197.014, 275.172 192.600, 274.878 186.159 C 274.597 179.997, 274.380 180.287, 294.733 159.626 C 304.012 150.207, 313.089 140.327, 314.904 137.672 C 318.241 132.788, 323.469 121.136, 322.678 120.345 C 322.441 120.108, 318.973 124.215, 314.971 129.471 C 310.968 134.726, 307.490 138.824, 307.243 138.576 C 306.568 137.902, 317.012 122.214, 323.930 113.507 C 329.758 106.173, 329.999 105.642, 329.985 100.184 C 329.966 92.570, 328.577 90.241, 321.162 85.385 C 317.706 83.121, 309.825 76.283, 303.648 70.189 C 291.156 57.864, 289.635 57, 280.435 57 C 274.005 57, 272.956 57.556, 275.183 59.783 C 278.171 62.771, 274.797 61.670, 270.884 58.380 C 261.895 50.822, 247.564 47.191, 238.139 50.083 M 131.137 63.308 C 115.463 69.265, 108.060 93.525, 117.787 107.057 C 121.964 112.869, 140.062 124.985, 144.626 125.026 C 146.207 125.040, 151.325 125.928, 156 127 C 166.354 129.374, 170.102 129.456, 176.833 127.457 C 190.076 123.524, 195.071 112.240, 190.041 97.618 C 185.263 83.733, 165.597 64.004, 159.687 67.168 C 158.195 67.966, 156.655 67.586, 152.735 65.452 C 146.840 62.244, 136.610 61.228, 131.137 63.308 M 219.216 71.250 C 218.100 73.488, 216.016 80.708, 216.006 82.372 C 215.991 84.618, 218.810 80.558, 219.902 76.762 C 220.576 74.418, 221.354 71.713, 221.631 70.750 C 222.359 68.221, 220.539 68.597, 219.216 71.250 M 225 82.027 C 225 83.722, 230.619 89, 232.423 89 C 234.626 89, 234.543 88.878, 229.500 84.662 C 227.025 82.593, 225 81.407, 225 82.027 M 305 83.938 C 305 84.454, 307.025 86.330, 309.500 88.107 C 315.168 92.178, 315.233 94.065, 310 102.742 C 306.227 108.997, 305.372 111, 306.474 111 C 308.305 111, 317.059 96.210, 316.797 93.560 C 316.418 89.743, 305 80.430, 305 83.938 M 375 87.088 C 367.976 87.990, 356.085 91.486, 353.422 93.433 C 351.905 94.542, 351.938 94.958, 353.831 98.668 C 358.621 108.058, 362.625 138.808, 361.687 159 C 361.066 172.374, 359.605 178.722, 354.821 188.825 C 351.902 194.991, 351.872 195.202, 353.662 197.179 C 357.301 201.200, 363.824 204.174, 370.250 204.742 C 373.687 205.046, 379.650 206.542, 383.500 208.068 C 387.350 209.594, 396.125 212.022, 403 213.464 C 409.875 214.906, 419.011 217.191, 423.302 218.543 C 434.337 222.018, 436.150 221.898, 435.225 217.750 C 432.745 206.632, 435.303 190.186, 441.778 175.617 L 444.392 169.734 441.733 167.447 C 440.270 166.189, 433.320 163.328, 426.287 161.090 C 410.841 156.175, 411.966 156.908, 408.118 149.257 C 402.942 138.966, 399.565 119, 403 119 C 403.550 119, 404.007 121.138, 404.015 123.750 C 404.046 133.807, 410.565 151.852, 414.747 153.456 C 416.963 154.307, 417.337 153.498, 415.937 150.882 C 414.134 147.513, 412.025 139.008, 412.012 135.050 C 411.995 130.193, 413.442 132.372, 414.967 139.500 C 415.673 142.800, 417.281 147.831, 418.539 150.679 C 420.827 155.857, 420.829 155.859, 429 158.440 C 438.295 161.377, 440.358 162.347, 444.335 165.655 C 447.540 168.322, 449 167.970, 449 164.530 C 449 161.620, 453.367 142.999, 455.384 137.308 C 456.829 133.232, 467.355 116.621, 471.166 112.404 L 473.060 110.308 456.280 104.259 C 447.051 100.932, 436.350 97.247, 432.500 96.070 C 428.650 94.894, 422.125 92.641, 418 91.064 C 412.432 88.935, 407.364 87.914, 398.328 87.098 C 384.919 85.888, 384.347 85.888, 375 87.088 M 214.099 91.992 C 211.479 98.082, 210 105.510, 210 112.577 C 210 119.855, 211.713 120.331, 212.469 113.264 C 213.039 107.929, 216.535 91.120, 217.672 88.250 C 217.944 87.563, 217.735 87, 217.206 87 C 216.678 87, 215.280 89.246, 214.099 91.992 M 363 95.784 C 363 96.281, 363.895 99.289, 364.990 102.470 C 370.253 117.769, 374.811 149.427, 373.481 161.451 C 372.602 169.395, 368.747 180.748, 363.874 189.750 C 359.714 197.433, 360.013 199.137, 364.575 193.750 C 367.750 190.001, 371.932 181.144, 374.609 172.500 C 379.246 157.527, 374.825 115.338, 367.014 100.028 C 365.059 96.195, 363 94.019, 363 95.784 M 334 100.052 C 334 102.940, 333.048 106.025, 331.082 109.510 C 329.476 112.354, 327.637 116.635, 326.994 119.024 C 326.350 121.413, 324.401 126.322, 322.662 129.933 C 320.322 134.793, 319.485 137.949, 319.444 142.073 C 319.402 146.225, 318.801 148.471, 317.085 150.881 C 314.111 155.057, 313.309 154.185, 315.375 149.021 C 318.797 140.470, 317.420 140.350, 309.750 148.532 C 300.703 158.183, 300.754 158, 307.117 158 C 311.320 158, 312.147 158.253, 311.160 159.240 C 310.428 159.972, 307.468 160.446, 303.934 160.398 L 297.948 160.317 287.974 170.672 L 278 181.028 278 186.953 L 278 192.877 282.276 193.519 C 284.627 193.871, 290.815 193.702, 296.026 193.142 C 301.237 192.582, 315.277 192.321, 327.226 192.563 C 352.464 193.073, 349.918 194.194, 354.615 180.500 C 359.784 165.429, 358.991 129.926, 352.959 106.340 C 350.519 96.798, 351.118 97.326, 341.750 96.472 L 334 95.765 334 100.052 M 197 102.781 C 197 104.182, 204.129 115, 205.052 115 C 206.346 115, 204.417 110.411, 201.230 105.903 C 198.650 102.254, 197 101.037, 197 102.781 M 385 112.920 C 385 120.126, 395.233 145, 398.197 145 C 398.966 145, 397.944 142.177, 392.124 128.220 C 390.455 124.217, 388.560 118.254, 387.914 114.970 C 386.579 108.184, 385 107.073, 385 112.920 M 466.173 124.750 C 459.885 134.342, 458.848 136.823, 455.150 151.090 C 451.805 163.995, 451.741 163.438, 456.764 165.063 C 458.819 165.728, 464.775 168.260, 470 170.690 C 493.215 181.488, 502.501 183.079, 515.500 178.483 C 524.342 175.358, 526.612 175.380, 534.280 178.665 C 542.643 182.250, 550.912 182.281, 560.500 178.766 C 564.350 177.354, 570.076 175.255, 573.225 174.100 C 579.292 171.874, 591.378 171.185, 592.500 173 C 592.840 173.550, 592.551 174, 591.859 174 C 588.208 174, 593.570 175.899, 601.472 177.405 C 606.407 178.346, 614.732 180.932, 619.972 183.152 C 625.328 185.422, 632.346 187.565, 636 188.046 C 639.575 188.517, 644.110 189.309, 646.078 189.807 C 650.306 190.876, 655.759 189.391, 657.404 186.722 C 658.841 184.389, 656.807 183.036, 651.832 183.015 C 647.840 182.999, 645 182.194, 645 181.079 C 645 180.690, 647.744 180.571, 651.098 180.813 C 656.637 181.214, 657.163 181.083, 656.836 179.385 C 656.575 178.034, 655.160 177.274, 651.738 176.649 C 645.947 175.591, 645.355 173.713, 651.101 174.632 C 654.752 175.216, 655.162 175.082, 654.840 173.409 C 654.591 172.115, 653.311 171.341, 650.728 170.921 C 645.838 170.126, 644.776 169, 648.917 169 C 653.101 169, 652.567 166.902, 647.998 165.392 C 645.922 164.706, 645.189 164.088, 646.073 163.767 C 651.710 161.724, 635.175 158.018, 615.500 156.915 C 607.250 156.452, 598.534 155.780, 596.131 155.420 C 592.992 154.951, 591.530 155.143, 590.937 156.102 C 589.517 158.399, 579.729 155.576, 566.555 149.070 C 551.133 141.452, 547.567 140.662, 532.440 141.506 C 516.767 142.381, 514.685 141.758, 497.524 131.053 C 478.877 119.421, 474.616 117, 472.788 117 C 471.943 117, 468.966 120.487, 466.173 124.750 M 204.500 127.936 C 198.909 132.210, 194.165 137.014, 195.576 136.973 C 197.582 136.915, 210.516 127.394, 210.822 125.750 C 211.289 123.232, 210.132 123.632, 204.500 127.936 M 326.653 125.537 C 327.766 128.439, 340.899 133.002, 348 132.953 C 352.240 132.925, 347.700 130.282, 341.118 128.948 C 338.028 128.322, 333.530 126.952, 331.123 125.905 C 325.851 123.611, 325.915 123.616, 326.653 125.537 M 221.500 133.556 C 227.531 138.548, 245.156 147, 249.538 147 C 252.798 147, 250.627 145.144, 244.250 142.481 C 240.537 140.931, 233.571 137.714, 228.770 135.331 C 218.840 130.405, 217.214 130.008, 221.500 133.556 M 188 137.624 C 185.339 138.996, 184.265 139.955, 185.372 139.972 C 186.936 139.995, 187.036 140.251, 185.980 141.524 C 183.275 144.784, 186.261 144.205, 189.654 140.813 C 194.350 136.117, 193.627 134.723, 188 137.624 M 491.500 147 C 481.592 147.495, 481.535 147.513, 485.362 148.865 C 489.709 150.400, 499.418 149.982, 501.219 148.181 C 502.895 146.505, 502.461 146.452, 491.500 147 M 251.154 153.594 C 251.718 155.639, 251.896 159.209, 251.548 161.526 C 250.892 165.901, 245.810 175, 244.022 175 C 243.460 175, 243 175.462, 243 176.026 C 243 178.071, 249.061 173.864, 251.565 170.081 C 255.870 163.576, 255.719 151.719, 251.313 150.267 C 250.419 149.972, 250.380 150.792, 251.154 153.594 M 327.352 156.993 C 324.518 158.137, 323.508 159.908, 324.897 161.297 C 325.727 162.127, 326.774 161.974, 328.914 160.710 C 330.506 159.769, 332.639 158.986, 333.654 158.968 C 335.407 158.938, 335.402 158.862, 333.559 157.468 C 331.380 155.820, 330.439 155.748, 327.352 156.993 M 398.296 164.750 C 390.413 172.837, 376 193.901, 376 197.333 C 376 199.596, 378.410 197.002, 382.580 190.250 C 387.765 181.855, 393.845 173.522, 400.817 165.250 C 406.337 158.702, 404.538 158.346, 398.296 164.750 M 501 163.935 C 501 169.430, 504.352 175, 507.660 175 C 508.788 175, 508.520 174.218, 506.615 171.955 C 505.206 170.280, 503.573 167.130, 502.988 164.955 C 501.724 160.262, 501 159.890, 501 163.935 M 310.058 165.324 C 309.421 167.253, 307.085 170.894, 304.865 173.416 C 302.646 175.937, 301.317 178, 301.912 178 C 304.202 178, 310.992 170.690, 311.960 167.182 C 313.283 162.391, 311.576 160.724, 310.058 165.324 M 560.250 164.675 C 557.913 164.917, 556 165.532, 556 166.041 C 556 166.550, 553.638 168.196, 550.750 169.699 C 546.358 171.985, 545.874 172.491, 547.786 172.790 C 549.043 172.987, 552.145 171.933, 554.680 170.447 C 558.701 168.091, 560.685 167.680, 570.201 167.229 C 577.493 166.883, 580.779 166.379, 580.109 165.709 C 579.007 164.607, 566.960 163.980, 560.250 164.675 M 532.546 166.127 C 528.402 167.098, 518.538 172.872, 519.456 173.789 C 520.195 174.529, 537 166.944, 537 165.871 C 537 165.392, 536.888 165.045, 536.750 165.100 C 536.612 165.156, 534.721 165.618, 532.546 166.127 M 450.291 170.708 C 445.582 172.337, 443.794 175.822, 439.881 191 C 438.072 198.018, 437.047 213.380, 438.304 214.638 C 439.567 215.900, 466.923 221.126, 472.500 221.170 C 475.800 221.196, 482.018 220.683, 486.318 220.030 C 492.207 219.136, 495.786 219.120, 500.818 219.968 C 506.774 220.971, 508.249 220.861, 514.388 218.964 C 520.205 217.165, 522.695 216.934, 530.388 217.478 C 542.451 218.332, 548.431 217.050, 560.500 211.026 C 575.552 203.514, 581.065 201.841, 591.958 201.483 L 601.417 201.172 613.458 206.485 C 629.092 213.382, 636.532 215.551, 633.970 212.464 C 632.845 211.108, 633.200 211.008, 637.001 211.616 C 640.137 212.118, 641.113 211.992, 640.594 211.152 C 640.202 210.519, 639.234 210, 638.441 210 C 637.648 210, 637 209.502, 637 208.893 C 637 208.242, 637.720 208.071, 638.750 208.478 C 642.087 209.798, 647 210.267, 647 209.267 C 647 208.719, 645.313 207.593, 643.250 206.764 L 639.500 205.257 645.896 205.379 C 654.207 205.536, 654.995 203.722, 647.554 201.559 C 640.191 199.418, 640.534 198.684, 648.500 199.537 C 652.393 199.954, 655 199.855, 655 199.291 C 655 195.918, 642.605 191, 634.104 191 C 631.851 191, 626.738 189.528, 622.108 187.546 C 605.253 180.332, 595.316 178.461, 590 181.500 C 586.249 183.644, 582.321 183.296, 577.088 180.354 L 572.380 177.708 564.257 180.841 C 552.331 185.440, 544.470 185.916, 534.925 182.618 C 525.727 179.439, 524.021 179.398, 517 182.183 C 504.626 187.091, 494.820 185.373, 467.620 173.529 C 456.258 168.582, 456.380 168.602, 450.291 170.708 M 213 171.453 C 213 171.702, 214.628 172.355, 216.617 172.905 C 220.523 173.983, 226.309 173.309, 225.425 171.878 C 224.883 171.001, 213 170.595, 213 171.453 M 396.877 180.450 C 394.639 185.231, 393.575 189.209, 393.225 194.099 C 392.616 202.610, 394.454 203.547, 395.482 195.250 C 395.874 192.088, 397.258 186.144, 398.557 182.043 C 401.579 172.501, 400.898 171.856, 396.877 180.450 M 578.148 175.887 C 576.442 176.968, 580.389 180.007, 583.473 179.986 C 586.381 179.967, 590 178.890, 590 178.044 C 590 175.788, 580.914 174.135, 578.148 175.887 M 210.463 178.750 C 210.835 179.713, 211.378 181.676, 211.668 183.114 C 212.175 185.625, 212.607 185.779, 222.571 187.009 C 241.292 189.318, 239.057 184.768, 218.659 179.045 C 209.815 176.563, 209.614 176.556, 210.463 178.750 M 319.564 180.583 C 310.899 181.929, 305.799 183.985, 311.050 184.013 C 316.932 184.046, 342 181.569, 342 180.955 C 342 178.971, 331.101 178.789, 319.564 180.583 M 296.250 182.272 C 290.408 183.395, 289.226 185.003, 294.250 184.994 C 298.531 184.987, 305 183.157, 305 181.953 C 305 180.839, 303.404 180.897, 296.250 182.272 M 199.763 189.250 C 199.505 192.688, 198.965 196.400, 198.563 197.500 C 197.934 199.221, 198.125 199.169, 199.929 197.124 C 202.599 194.097, 203.392 190.901, 202.565 186.493 C 201.552 181.097, 200.282 182.347, 199.763 189.250 M 212 189.257 C 212 189.398, 211.598 190.913, 211.108 192.625 L 210.215 195.737 219.358 195.228 C 227.419 194.779, 229.930 193.999, 229.985 191.923 C 229.993 191.606, 226.512 190.815, 222.250 190.166 C 214.538 188.993, 212 188.767, 212 189.257 M 516 190.810 C 516 191.284, 517.800 193.288, 520 195.263 C 524.244 199.072, 525.146 202.771, 522.940 207.316 C 522.099 209.048, 522.409 208.919, 524.440 206.694 C 527.701 203.121, 527.683 199.965, 524.381 196.041 C 521.679 192.829, 516 189.285, 516 190.810 M 545.500 192.800 C 549.173 196.488, 564.651 198.126, 574.951 195.917 C 583.063 194.177, 580.859 193.426, 567.750 193.464 C 561.013 193.484, 553.025 193.117, 550 192.648 C 546.319 192.078, 544.831 192.128, 545.500 192.800 M 490.159 203.624 C 488.516 205.617, 485.896 208.133, 484.336 209.215 L 481.500 211.183 484.500 210.556 C 487.771 209.873, 494 203.945, 494 201.515 C 494 199.309, 493.479 199.595, 490.159 203.624" stroke="none" fill="#333" fill-rule="evenodd"/>
</svg>