<svg width="714pt" height="275pt" viewBox="0 0 768 296" xmlns="http://www.w3.org/2000/svg">
	<rect x="0" y="0" width="100%" height="100%" fill="#FFF" />
	<path d="M 282 50.595 C 267.884 55.638, 262.896 63.867, 263.174 81.657 C 263.380 94.870, 261.395 102.992, 254.334 117.834 C 250.403 126.095, 249.032 127.023, 237.662 129.118 C 231.179 130.313, 230.927 130.280, 228.422 127.927 C 224.402 124.150, 211.176 123.733, 207.638 127.272 C 205.830 129.079, 203.581 129.942, 199.330 130.460 C 184.555 132.260, 177.473 138.875, 174.978 153.208 C 171.409 173.699, 184.417 190, 204.338 190 C 209.932 190, 215.971 191.577, 215.992 193.044 C 215.996 193.343, 213.637 194.088, 210.750 194.701 C 202.304 196.492, 194.277 199.897, 187.398 204.606 L 180.981 209 170.738 209 C 162.327 209, 158.618 209.540, 149.998 212.020 C 144.224 213.680, 132.525 215.952, 124 217.068 C 115.475 218.185, 104 219.798, 98.500 220.654 C 93 221.510, 84.207 222.548, 78.960 222.961 C 70.957 223.590, 67.825 224.392, 59.520 227.941 C 54.075 230.267, 47.318 233.032, 44.505 234.084 C 37.481 236.712, 24.671 248.633, 25.159 252.087 C 25.623 255.371, 32.070 255.913, 38.186 253.182 C 48.127 248.742, 59.570 246.121, 58.605 248.504 C 58.272 249.327, 57.749 250.617, 57.442 251.371 C 55.691 255.677, 62.906 257.136, 70 253.909 C 72.475 252.784, 78.325 251.427, 83 250.893 C 88.706 250.242, 93.636 248.942, 98 246.937 L 104.500 243.949 125.500 247.081 C 162.437 252.590, 185.059 252.269, 200.490 246.018 C 204.346 244.457, 210.225 242.901, 213.555 242.562 C 234.305 240.447, 251.364 233.362, 268.151 219.886 L 270.801 217.758 282.978 221.629 L 295.154 225.500 294.640 229.493 C 293.350 239.503, 298.296 248.975, 307.105 253.365 C 325.623 262.593, 345.718 245.536, 339.319 226.021 C 337.592 220.752, 337.540 220.036, 338.918 220.469 C 349.110 223.672, 370.841 223.865, 387.620 220.902 C 401.144 218.514, 412.739 218.757, 424.500 221.674 C 428.971 222.784, 435.959 223.466, 443.839 223.562 C 455.792 223.708, 456.255 223.795, 458.619 226.345 C 461.486 229.437, 464.803 230.456, 469.510 229.692 C 472.118 229.269, 473.681 229.707, 476.206 231.571 C 485.272 238.262, 501.125 243.526, 516.500 244.950 C 522.654 245.521, 528.662 246.923, 535.500 249.383 C 543.191 252.151, 547.044 252.984, 552.188 252.991 C 555.866 252.996, 561.795 253.677, 565.362 254.504 C 569.533 255.472, 572.678 255.699, 574.174 255.141 C 575.462 254.660, 583.331 254.629, 591.808 255.071 C 603.978 255.706, 608.078 255.577, 611.808 254.446 C 614.389 253.662, 618.759 253.017, 621.520 253.011 C 633.876 252.984, 649.369 246.324, 660.201 236.384 C 666.798 230.330, 667.628 229.863, 670.926 230.347 C 672.892 230.635, 679.225 231.394, 685 232.032 C 690.775 232.671, 699.668 234.275, 704.763 235.596 C 716.012 238.516, 722.705 238.648, 728.305 236.063 C 732.824 233.977, 739 228.776, 739 227.056 C 739 226.475, 739.659 226, 740.465 226 C 742.105 226, 744.379 222.422, 743.570 221.113 C 743.282 220.648, 743.937 219.462, 745.024 218.479 C 747.414 216.315, 747.619 211.342, 745.419 208.910 C 743.969 207.308, 744.010 206.990, 745.919 205.081 C 748.239 202.761, 748.737 197.137, 746.795 195.195 C 746.132 194.532, 745.569 192.754, 745.545 191.245 C 745.514 189.384, 744.776 188.182, 743.250 187.513 C 742.013 186.970, 741 186.135, 741 185.657 C 741 185.180, 739.810 183.374, 738.355 181.645 C 731.858 173.924, 721.683 171.626, 708.410 174.883 C 698.772 177.249, 688.748 178.650, 674.319 179.650 L 665.137 180.286 662.138 175.557 C 660.340 172.722, 658.323 167.280, 657.099 161.966 C 654.555 150.918, 652.190 145.830, 646.649 139.481 C 644.258 136.742, 641.399 132.452, 640.295 129.949 C 637.253 123.050, 632.595 118.436, 624.674 114.475 C 620.728 112.503, 616.375 109.840, 615 108.558 C 607.895 101.936, 589.673 97.956, 562 96.981 C 550.288 96.568, 540.803 95.753, 538.250 94.940 C 534.752 93.826, 532.984 93.812, 528.250 94.857 C 525.088 95.555, 519.350 96.543, 515.500 97.052 C 505.413 98.387, 494.247 100.879, 488.623 103.051 C 485.163 104.388, 483.222 104.654, 481.939 103.967 C 477.749 101.725, 468.197 103.644, 465.128 107.345 C 463.380 109.452, 456.737 109.524, 450.995 107.498 C 448.655 106.672, 443.806 105.528, 440.220 104.955 C 435.734 104.239, 431.544 102.654, 426.779 99.871 C 411.614 91.014, 356.920 64.060, 348.965 61.523 C 344.072 59.963, 337.124 58.612, 332.500 58.322 C 325.696 57.896, 323.250 57.201, 316.144 53.673 C 308.115 49.687, 307.371 49.514, 297.144 49.256 C 289.338 49.060, 285.300 49.417, 282 50.595 M 283.205 53.894 C 267.708 59.247, 261.802 74.286, 268.827 90.500 L 270.994 95.500 268.693 92.922 L 266.391 90.343 264.339 98.922 C 262.630 106.067, 260.366 112.524, 256.298 121.851 C 255.862 122.849, 256.596 122.751, 259.104 121.474 L 262.500 119.746 260 122.468 C 256.844 125.905, 250.743 129.463, 245.243 131.074 L 240.985 132.321 245.822 135.083 C 252.345 138.808, 260.744 148.120, 261.575 152.546 C 262.457 157.251, 261.347 163.882, 258.918 168.414 L 256.908 172.164 259.204 171.462 C 260.467 171.076, 263.032 170.133, 264.904 169.367 C 266.775 168.601, 268.489 168.156, 268.711 168.378 C 269.858 169.525, 253.901 177.782, 239 183.752 C 238.175 184.082, 236.150 185.326, 234.500 186.517 C 232.850 187.707, 229.925 189.274, 228 190 C 222.756 191.978, 221.814 193.364, 226.250 192.576 C 228.313 192.209, 230 192.284, 230 192.742 C 230 193.200, 223.813 195.090, 216.250 196.941 C 199.595 201.019, 196.046 202.476, 186.288 209.242 C 181.343 212.671, 178.553 214.065, 178.269 213.250 C 177.386 210.718, 163.865 211.768, 149.487 215.485 C 136.413 218.865, 116.939 222, 109.014 222 C 106.878 222, 101.839 222.709, 97.815 223.576 C 93.792 224.442, 85.775 225.489, 80 225.902 C 63.695 227.069, 47.951 233.597, 39.250 242.798 C 29.276 253.345, 31.640 256.003, 42.213 246.130 C 48.047 240.683, 49.012 240.168, 55.600 238.996 C 65.618 237.214, 66.833 238.224, 57.392 240.485 C 52.328 241.698, 48.518 243.267, 46.760 244.865 C 43.716 247.631, 43.753 248.738, 46.834 247.089 C 47.937 246.499, 52.138 245.550, 56.170 244.981 C 60.201 244.412, 65.879 243.058, 68.788 241.973 C 71.696 240.888, 75.128 240, 76.415 240 C 77.702 240, 79.286 239.360, 79.936 238.578 C 81.428 236.779, 87 234.769, 87 236.029 C 87 237.494, 83.007 239.674, 76.401 241.815 C 69.035 244.203, 64.552 246.448, 61.947 249.053 C 57.353 253.647, 61.398 254.266, 71.404 250.500 C 75.057 249.125, 79.979 248, 82.341 248 C 90.224 248, 96.868 245.339, 99.307 241.204 C 100.915 238.479, 101.564 237.976, 101.812 239.263 C 102.236 241.465, 102.615 241.444, 113.750 238.585 C 123.750 236.018, 125.790 236.538, 118.350 239.758 C 112.190 242.424, 112.980 242.641, 141.206 246.031 C 174.855 250.072, 193.484 247.789, 209.269 237.691 C 216.300 233.193, 217.279 233.050, 213.437 237.083 L 210.500 240.167 214.500 239.492 C 232.724 236.420, 249.015 230.144, 260.106 221.921 C 266.975 216.829, 267.853 215.106, 263.691 214.882 C 257.991 214.574, 268.279 213.235, 276.500 213.214 L 285.500 213.192 280.500 214.400 L 275.500 215.607 285.796 219.031 L 296.093 222.456 298.619 219.227 C 305.132 210.906, 314.298 208.629, 327.751 211.992 C 337.808 214.506, 342.396 213.846, 353.457 208.292 L 358.500 205.760 356.017 208.442 C 352.553 212.185, 348.166 214.709, 343.675 215.541 C 338.756 216.454, 339.990 217.563, 347.434 218.919 C 356.552 220.580, 371.568 220.208, 384.129 218.010 C 400.049 215.225, 412.574 215.393, 428.309 218.606 C 441.984 221.397, 452.517 221.340, 455.398 218.459 C 456.910 216.947, 458.897 207.019, 461.994 185.500 C 465.583 160.574, 465.847 155.174, 464.408 136.231 C 463.667 126.479, 463.047 117.002, 463.030 115.171 C 463.002 112.065, 462.815 111.881, 460.250 112.437 C 458.738 112.765, 455.025 112.335, 452 111.482 C 448.975 110.629, 438.014 108.603, 427.642 106.981 C 417.271 105.358, 401.746 102.707, 393.142 101.090 C 384.539 99.473, 372.775 97.663, 367 97.068 C 361.225 96.472, 354.993 95.735, 353.150 95.429 L 349.801 94.872 352.284 98.186 C 353.650 100.009, 355.088 102.625, 355.480 104 C 356.101 106.182, 355.797 106.034, 353.095 102.837 C 349.602 98.706, 340.440 91.940, 331.500 86.889 C 325.869 83.709, 324.927 83.500, 316.181 83.500 C 308.118 83.500, 307.242 83.342, 309.681 82.327 C 315.959 79.715, 321.170 79.850, 335.963 83.007 C 352.699 86.577, 353.634 86.996, 344.917 87.012 L 338.500 87.024 343.170 90.078 C 347.497 92.909, 348.632 93.163, 358.670 93.552 C 372.977 94.107, 378.533 94.713, 390.500 97.023 C 405.691 99.955, 423.374 102.960, 423.674 102.660 C 425.127 101.206, 351.208 65.455, 343 63.642 C 331.045 61, 327.509 60.704, 328.970 62.464 C 330.971 64.874, 329.410 64.328, 320.644 59.550 C 306.852 52.032, 294.152 50.113, 283.205 53.894 M 524.500 99.528 C 522.300 100.253, 518.173 100.881, 515.329 100.923 C 509.221 101.014, 494.531 104.257, 487.591 107.048 C 483.196 108.815, 482.506 108.863, 481.012 107.511 C 478.887 105.588, 474.926 105.586, 470.328 107.507 L 466.721 109.015 467.354 122.757 C 467.702 130.316, 468.262 141.900, 468.597 148.500 C 469.255 161.459, 465.371 193.967, 460.848 213.362 L 458.781 222.225 460.801 224.245 C 462.408 225.853, 464.020 226.238, 468.688 226.133 C 474.033 226.012, 475.007 226.341, 479.656 229.834 C 485.151 233.963, 500.413 239.613, 508.726 240.596 L 513.500 241.161 507.250 237.522 C 496.600 231.323, 497.068 231.455, 530.500 244.059 C 543.464 248.947, 545.203 249.352, 554 249.533 C 559.225 249.640, 564.737 250.228, 566.250 250.839 C 569.357 252.095, 570.073 250.644, 567.124 249.067 C 561.255 245.925, 555.281 229.774, 556.416 220.115 C 558.221 204.758, 567.878 194.647, 583.307 191.960 C 587.048 191.309, 589.972 190.660, 589.805 190.518 C 589.637 190.377, 583.261 187.921, 575.636 185.060 C 559.732 179.095, 549.986 176.959, 538.198 176.854 C 528.973 176.772, 527.824 177.288, 509.619 189.698 C 505.284 192.653, 501.573 194.906, 501.371 194.705 C 500.274 193.607, 519.372 177.094, 523.361 175.693 C 524.112 175.429, 523.907 174.623, 522.758 173.326 C 520.743 171.052, 517.801 162.912, 514.871 151.500 C 511.996 140.305, 509.124 127, 509.582 127 C 510.861 127, 515.432 138.652, 519.009 151.030 C 524.868 171.311, 525.316 171.950, 533.673 171.986 L 536.847 172 535.368 169.036 C 533.440 165.170, 532.611 153.952, 533.742 147 L 534.636 141.500 535.358 147 C 538.622 171.842, 537.769 170.723, 556.226 174.401 C 574.898 178.122, 588.537 177.203, 581.647 172.688 C 578.120 170.377, 570.233 157.245, 567.290 148.785 C 561.033 130.793, 567.679 112.690, 583.175 105.510 C 588.946 102.837, 588.749 102.708, 576.136 100.921 C 570.954 100.187, 560.914 99.917, 549.743 100.210 C 534.500 100.610, 531.997 100.475, 533.548 99.341 C 535.208 98.128, 535.055 98.010, 531.941 98.105 C 530.049 98.163, 526.700 98.803, 524.500 99.528 M 280.817 110.732 C 280.471 121.398, 281.226 130.413, 282.264 128 C 284.176 123.554, 284.941 114.323, 283.895 108.319 C 282.257 98.913, 281.173 99.763, 280.817 110.732 M 521.639 104.622 C 517.115 106.976, 507.419 115.753, 508.334 116.667 C 508.971 117.304, 523.220 107.548, 525.924 104.622 C 528.930 101.371, 527.887 101.371, 521.639 104.622 M 590.186 106.564 C 567.508 112.658, 561.913 135.722, 576.966 161.060 L 581.062 167.953 585.781 167.324 C 588.376 166.977, 594.968 165.698, 600.428 164.480 C 607.085 162.996, 609.763 162.700, 608.557 163.582 C 606.270 165.254, 607.028 168.691, 610.625 172.967 C 614.343 177.385, 619.719 179.821, 628.711 181.163 C 632.995 181.802, 635.920 182.520, 635.211 182.759 C 634.370 183.042, 635.303 184.690, 637.899 187.506 C 640.086 189.878, 643.020 194.079, 644.419 196.840 C 648.779 205.444, 652.986 206.975, 658.636 202.014 C 662.984 198.198, 666.363 197.380, 671.440 198.918 C 679.146 201.254, 687.560 201.979, 705 201.812 C 719.436 201.674, 723.178 201.939, 726.372 203.322 C 731.963 205.745, 741.429 205.571, 744 203 C 748.592 198.408, 745.552 195.652, 736.827 196.494 C 730.902 197.066, 730.659 197.010, 733 195.614 C 734.375 194.794, 737.212 193.826, 739.305 193.464 C 742.120 192.977, 743.024 192.376, 742.781 191.153 C 742.416 189.312, 737.948 188.997, 732.125 190.400 C 727.329 191.556, 728.971 189.389, 734.042 187.869 C 736.219 187.217, 738 186.291, 738 185.810 C 738 184.175, 734.832 183.716, 731.213 184.827 C 726.016 186.422, 725.949 185.372, 731.104 183.130 C 736.507 180.779, 734.145 179.014, 727.847 180.695 C 725.731 181.260, 724 181.343, 724 180.880 C 724 180.417, 725.125 179.756, 726.500 179.411 C 730.797 178.332, 729.255 177.186, 722.538 176.467 C 717.353 175.912, 714.735 176.195, 709.288 177.901 C 705.285 179.155, 695.577 180.709, 685.628 181.687 L 668.756 183.347 671.610 185.424 C 673.180 186.566, 675.597 188.535, 676.982 189.799 L 679.500 192.099 675 189.915 C 662.098 183.655, 658.143 178.625, 654.147 163.394 C 651.050 151.591, 650.140 149.364, 646.324 144.250 C 643.821 140.897, 641.623 139.853, 642.638 142.500 C 642.955 143.325, 642.806 144, 642.307 144 C 641.809 144, 640.434 140.715, 639.253 136.701 C 635.499 123.940, 625.586 115.808, 610.269 112.921 C 604.062 111.752, 602.691 110.076, 607.809 109.916 C 610.291 109.838, 610.189 109.692, 606.500 108.033 C 600.573 105.369, 596.122 104.968, 590.186 106.564 M 345.867 112.392 C 344.964 114.375, 344.990 115.283, 345.986 116.483 C 347.763 118.624, 350.201 116.502, 349.801 113.163 C 349.388 109.720, 347.274 109.305, 345.867 112.392 M 480.420 116.573 C 479.677 120.534, 481.482 139.842, 483.052 144.730 C 483.633 146.537, 483.865 141.869, 483.721 131.300 C 483.573 120.455, 483.110 114.709, 482.320 113.919 C 481.413 113.013, 480.973 113.627, 480.420 116.573 M 398.500 116.681 C 397.400 116.906, 395.375 118.006, 394 119.125 L 391.500 121.161 396.390 120.581 C 399.079 120.261, 402.454 119.985, 403.890 119.967 L 406.500 119.933 404.139 117.967 C 402.841 116.885, 401.491 116.061, 401.139 116.136 C 400.788 116.211, 399.600 116.456, 398.500 116.681 M 418.967 123.685 C 421.317 126.673, 427 130.478, 427 129.063 C 427 127.965, 419.007 121, 417.747 121 C 417.257 121, 417.805 122.208, 418.967 123.685 M 348.496 133.112 C 345.820 138.658, 341.647 145.401, 339.222 148.098 C 336.798 150.794, 335.104 153, 335.457 153 C 338.823 153, 347.180 145.171, 349.186 140.139 C 350.537 136.749, 353.995 123.662, 353.635 123.302 C 353.485 123.151, 351.172 127.566, 348.496 133.112 M 370.237 126.613 C 365.475 130.606, 361.176 137.284, 359.994 142.529 C 359.008 146.898, 360.142 147.012, 362.195 142.750 C 363.057 140.963, 366.109 136.575, 368.979 133 C 377.477 122.413, 377.919 120.173, 370.237 126.613 M 210 129 C 210 129.550, 210.648 130, 211.441 130 C 212.234 130, 213.124 130.392, 213.421 130.872 C 213.717 131.351, 210.031 132.252, 205.230 132.873 C 192.662 134.499, 189.006 135.759, 184.877 139.887 C 178.615 146.150, 176.263 158.910, 179.431 169.438 C 183.239 182.091, 191.532 187.500, 207.123 187.500 C 214.410 187.500, 216.629 187.803, 216.266 188.750 C 215.243 191.416, 227.872 188.128, 231.117 184.883 C 232.221 183.779, 235.111 182.024, 237.539 180.983 C 253.300 174.228, 260.933 163.585, 257.900 152.599 C 255.730 144.741, 244.733 136.335, 232.755 133.380 C 229.068 132.470, 226.292 131.336, 226.586 130.861 C 226.880 130.385, 225.939 129.547, 224.495 128.998 C 221.081 127.700, 210 127.701, 210 129 M 591.259 129.932 C 590.577 131.038, 588.327 132.836, 586.259 133.927 L 582.500 135.912 586.095 135.956 C 590.256 136.007, 593.338 133.302, 592.830 130.043 C 592.502 127.936, 592.491 127.936, 591.259 129.932 M 434 130.301 C 434 130.757, 448.936 139.837, 451.417 140.889 C 453.588 141.810, 447.665 134.957, 444.732 133.154 C 441.627 131.246, 434 129.218, 434 130.301 M 399.728 134.767 C 397.705 136.839, 394.868 141.451, 393.425 145.017 C 389.931 153.649, 389.569 153.984, 383.628 154.100 C 374.647 154.274, 372.722 155.362, 378.879 156.783 C 389.131 159.149, 391.622 157.433, 397.827 143.729 C 399.514 140.005, 401.848 135.618, 403.015 133.979 C 405.978 129.818, 404.127 130.262, 399.728 134.767 M 273.858 141.319 C 275.688 143.537, 281.625 145.082, 284.325 144.043 C 286.439 143.229, 286.422 143.175, 283.691 142.105 C 282.147 141.500, 278.997 140.705, 276.691 140.339 C 272.880 139.733, 272.623 139.822, 273.858 141.319 M 642 152.261 C 642 154.685, 641.295 156.579, 639.913 157.866 L 637.827 159.810 639.887 160.464 C 641.021 160.824, 642.860 162.277, 643.974 163.694 C 646.313 166.668, 646.401 166.033, 644.887 157.082 C 643.600 149.479, 642 146.806, 642 152.261 M 599 150.957 C 599 152.677, 605.183 156.972, 609.224 158.060 C 613.761 159.282, 620.326 158.633, 625.298 156.471 C 628.333 155.151, 628.004 155.076, 619 155.029 C 611.089 154.989, 608.622 154.572, 604.250 152.536 C 601.362 151.192, 599 150.481, 599 150.957 M 282.281 154.254 C 280.140 156.588, 274.238 165.654, 272.030 170 C 271.104 171.822, 272.025 171.280, 275.426 168 C 279.688 163.891, 285.914 153.580, 284.804 152.471 C 284.550 152.216, 283.414 153.019, 282.281 154.254 M 354.500 154.399 L 351.500 155.747 354.250 156.482 C 357.700 157.404, 362.273 156.324, 361.743 154.713 C 361.170 152.974, 357.981 152.836, 354.500 154.399 M 323.500 156.057 C 321.300 156.512, 317.561 156.911, 315.191 156.942 C 312.585 156.977, 311.126 157.395, 311.500 158 C 312.740 160.006, 330.524 159.212, 333.139 157.033 L 335.500 155.067 331.500 155.148 C 329.300 155.193, 325.700 155.602, 323.500 156.057 M 341.581 160.603 C 343.498 166.972, 343.369 171.988, 340.990 183.547 C 339.885 188.919, 339.166 193.499, 339.392 193.725 C 339.617 193.951, 341.279 190.393, 343.085 185.818 C 347.168 175.470, 347.638 166.670, 344.434 160.561 C 341.422 154.821, 339.848 154.844, 341.581 160.603 M 398 158 C 397.122 158.567, 396.989 158.976, 397.678 158.985 C 398.325 158.993, 402.308 159.480, 406.527 160.067 C 415.209 161.275, 417.002 160.734, 411.686 158.513 C 407.609 156.810, 400.268 156.534, 398 158 M 428.667 157.667 C 427.632 158.701, 427.881 163.809, 429 164.500 C 429.550 164.840, 430 164.191, 430 163.059 C 430 160.799, 431.537 160.266, 432.338 162.250 C 432.615 162.938, 432.878 162.578, 432.921 161.450 C 433.037 158.433, 430.319 156.015, 428.667 157.667 M 355.434 167.500 C 354.481 172.579, 355.636 177.197, 359.029 181.882 C 363.220 187.667, 364.348 187.003, 361.373 180.503 C 359.989 177.480, 358.601 172.530, 358.288 169.503 C 357.641 163.231, 356.398 162.359, 355.434 167.500 M 387.660 164.741 C 386.219 167.072, 385.836 176.344, 387.008 180.529 C 389.148 188.171, 389.957 186.557, 389.550 175.454 C 389.173 165.139, 388.782 162.925, 387.660 164.741 M 599.914 167.820 C 599.042 168.194, 596.884 170.158, 595.118 172.185 C 591.834 175.954, 586.461 178.343, 578.032 179.782 L 573.714 180.519 583.473 184.463 C 591.142 187.562, 593.887 189.221, 596.284 192.204 C 597.962 194.292, 600.047 196, 600.917 196.001 C 603.286 196.002, 615.169 201.830, 617.777 204.270 C 619.864 206.221, 620.432 206.299, 624.542 205.200 C 627.010 204.540, 632.580 204, 636.921 204 L 644.813 204 641.893 198.291 C 636.987 188.697, 632.363 184.870, 624.158 183.613 C 616.126 182.381, 606.486 175.257, 604.535 169.111 C 603.848 166.947, 602.700 166.626, 599.914 167.820 M 486.460 184.642 C 484.071 190.201, 476.413 213.875, 475.669 218 L 475.037 221.500 476.962 219.209 C 479.660 215.998, 482.730 207.482, 486.177 193.648 C 489.231 181.393, 489.339 177.940, 486.460 184.642 M 519.749 190.199 C 515.711 194.236, 510.732 203.928, 508.548 212 C 507.932 214.275, 508.042 214.230, 509.765 211.500 C 520.001 195.283, 525.055 186.722, 524.639 186.306 C 524.365 186.031, 522.164 187.783, 519.749 190.199 M 419 193.070 C 417.075 193.545, 411.535 194.462, 406.689 195.106 C 396.953 196.400, 396.390 197.772, 405.221 198.683 C 411.310 199.312, 418.697 197.366, 423 194 C 425.726 191.867, 424.767 191.644, 419 193.070 M 383 194.447 C 377.137 195.493, 376.714 195.724, 378.684 196.804 C 382.115 198.683, 385.448 198.217, 388 195.500 C 389.292 194.125, 390.158 193.065, 389.924 193.144 C 389.691 193.222, 386.575 193.809, 383 194.447 M 251 194.504 C 251 195.714, 269.602 203.899, 277 205.945 C 281.125 207.086, 288.325 208.234, 293 208.497 L 301.500 208.975 297 207.433 C 294.525 206.585, 288.534 205.005, 283.686 203.923 C 276.115 202.232, 253.991 195.570, 251.750 194.305 C 251.338 194.072, 251 194.162, 251 194.504 M 577.463 196.632 C 560.899 202.347, 554.541 225.779, 565.264 241.585 C 569.817 248.298, 572.544 249.962, 580.880 251.117 C 590.071 252.391, 591.288 251.959, 586.624 249.077 C 581.234 245.746, 582.805 245.486, 589.626 248.581 C 593.740 250.448, 597.822 251.398, 603.250 251.752 C 611.505 252.290, 613.297 251.232, 607.612 249.177 C 604.445 248.032, 598.527 243.140, 599.333 242.334 C 599.532 242.135, 602.163 243.101, 605.179 244.482 C 614.324 248.668, 618.899 248.812, 625.442 245.119 C 631.773 241.547, 632.665 242.331, 627.465 246.896 C 623.361 250.500, 623.330 250.488, 631.298 248.423 C 641.539 245.769, 649.204 241.649, 657.975 234.081 C 666.619 226.624, 673.108 222.748, 678.750 221.670 C 683.198 220.821, 682.826 221.541, 677.629 223.840 C 670.747 226.884, 671.143 227.756, 679.744 228.495 C 691.451 229.503, 699.848 230.897, 706.500 232.938 C 712.434 234.760, 717.679 235.432, 723.500 235.118 L 726.500 234.956 724 233 C 721.124 230.750, 721.473 230.572, 725.798 232.079 C 730.995 233.891, 733.473 231.642, 728.548 229.584 C 723.819 227.609, 724.268 226.656, 729.213 228.173 C 732.861 229.293, 736 228.823, 736 227.156 C 736 226.658, 734.763 225.997, 733.250 225.687 C 731.737 225.377, 729.600 224.414, 728.500 223.547 C 726.587 222.038, 726.631 222.002, 729.500 222.718 C 739.411 225.193, 744.843 221.873, 735.250 219.204 C 732.362 218.401, 730 217.351, 730 216.872 C 730 215.728, 731.663 215.779, 736.284 217.062 C 740.749 218.302, 743.676 217.597, 744.472 215.090 C 745.829 210.812, 741.904 208, 734.575 208 C 732.193 208, 728.502 207.262, 726.372 206.360 C 723.196 205.014, 718.363 204.695, 699.500 204.586 C 679.785 204.472, 676.043 204.207, 673.300 202.727 C 668.064 199.902, 660.326 201.461, 660.634 205.278 C 660.707 206.192, 659.913 207.210, 658.869 207.541 C 657.825 207.873, 657.229 208.562, 657.544 209.072 C 658.361 210.392, 656.100 210.229, 648.312 208.404 C 641.640 206.840, 625.886 206.781, 624.353 208.314 C 623.982 208.685, 624.539 209.967, 625.589 211.163 C 627.476 213.312, 627.475 213.329, 625.500 212.529 C 620.997 210.705, 613.323 209, 609.615 209 C 604.484 209, 605.506 208.060, 611.652 207.125 L 616.500 206.388 610.234 203.171 C 604.751 200.357, 593.956 197.230, 584.500 195.718 C 582.850 195.455, 579.683 195.866, 577.463 196.632 M 437.250 197.195 C 430.175 198.485, 430.606 200, 438.050 200 C 443.288 200, 450 198.020, 450 196.474 C 450 195.741, 443.077 196.132, 437.250 197.195 M 320.901 201.896 C 319.029 203.426, 318.764 204.127, 319.699 205.078 C 321.126 206.530, 326.380 203.640, 325.750 201.749 C 325.104 199.811, 323.390 199.863, 320.901 201.896 M 380.297 208.471 C 378.536 209.237, 375.386 211.057, 373.297 212.515 L 369.500 215.167 373 214.489 C 374.925 214.117, 378.207 212.654, 380.294 211.240 C 386.385 207.109, 386.387 205.823, 380.297 208.471 M 313.500 213.905 C 300.615 217.172, 294.472 229.637, 299.880 241.541 C 308.430 260.365, 337 253.791, 337 233 C 337 220.530, 325.196 210.938, 313.500 213.905 M 247 217.999 C 241.794 218.883, 236.365 221.072, 233.500 223.440 C 231.578 225.030, 231.636 225.068, 235 224.428 C 239.404 223.590, 251.183 219.217, 252.449 217.951 C 253.513 216.887, 253.550 216.887, 247 217.999 M 175.625 219.436 C 168.644 221.984, 169.251 222.859, 177.637 222.335 C 183.129 221.991, 186.994 222.308, 190.453 223.385 C 197.006 225.424, 197.348 224.717, 191.294 221.649 C 184.767 218.342, 180.339 217.716, 175.625 219.436 M 638.001 222.501 C 639.479 224.074, 640.011 226.046, 640.042 230.064 L 640.084 235.500 642 232 C 643.054 230.075, 643.935 227.724, 643.958 226.776 C 643.981 225.827, 645.462 224.292, 647.250 223.364 C 650.986 221.425, 650.710 221.282, 642.251 220.759 L 636.001 220.372 638.001 222.501" stroke="none" fill="#333" fill-rule="evenodd"/>
</svg>