<svg width="97pt" height="275pt" viewBox="0 0 316 897" xmlns="http://www.w3.org/2000/svg">
	<rect x="0" y="0" width="100%" height="100%" fill="#FFF" />
	<path d="M 252.084 41.316 C 251.488 41.912, 251 43.016, 251 43.770 C 251 44.523, 249.666 48.370, 248.035 52.320 C 242.928 64.684, 241.474 78.578, 243.540 95.287 C 245.616 112.086, 246.848 108.110, 227.343 147.557 C 218.378 165.687, 212.524 178.764, 211.776 182.332 C 210.822 186.881, 210.261 187.910, 209.038 187.362 C 184.902 176.542, 164.296 181.864, 155.425 201.209 C 150.063 212.902, 151.072 231.254, 157.632 241.320 L 160.121 245.139 157.484 256.479 C 155.750 263.936, 153.990 268.964, 152.346 271.160 C 149.045 275.569, 146.157 281.229, 143.977 287.566 C 143.001 290.405, 140.348 295.442, 138.083 298.760 C 129.263 311.682, 126.499 319.280, 126.535 330.500 C 126.560 338.242, 127.063 341.855, 128.760 346.500 C 131.117 352.953, 132.407 375.601, 132.460 411.500 C 132.487 429.455, 130.578 437, 126.010 437 C 124.684 437, 123.278 438.156, 122.203 440.130 C 121.267 441.851, 118.925 444.930, 117 446.971 C 107.298 457.260, 94.917 477.585, 92.006 488 C 89.404 497.314, 88.547 510.011, 89.812 520.500 C 90.618 527.177, 90.471 529.823, 88.921 536.500 C 87.900 540.900, 84.937 554.342, 82.338 566.371 L 77.611 588.241 80.151 590.092 C 82.494 591.798, 82.631 592.314, 81.905 596.721 C 81.473 599.350, 81.092 607.031, 81.060 613.792 C 80.984 629.348, 78.906 639.982, 74.980 644.897 C 70.707 650.247, 60.452 672.248, 57.592 682.203 C 54.338 693.531, 53.585 703.160, 54.988 715.500 C 58.235 744.058, 53.253 790.414, 43.400 823.333 C 37.251 843.876, 41.435 849.632, 63.500 850.989 C 70.179 851.400, 79.490 852.734, 84.500 853.998 C 98.753 857.595, 128.676 857.229, 136.340 853.365 C 145.949 848.520, 148.381 839.080, 140.050 838.965 C 138.647 838.945, 136.427 838.334, 135.116 837.607 C 132.910 836.385, 133.152 836.286, 138.323 836.286 C 145.234 836.286, 149.007 834.142, 148.985 830.227 C 148.963 826.331, 148.166 825.599, 142 823.803 C 131.725 820.811, 121.520 816.354, 114.500 811.794 C 110.650 809.293, 103.973 805.577, 99.663 803.536 C 89.215 798.590, 88.452 796.958, 88.654 780 C 88.822 765.835, 89.648 762.126, 100.365 727.412 C 110.045 696.058, 111.793 689.670, 113.058 681.019 C 114.017 674.460, 114.769 672.460, 117.467 669.305 C 119.256 667.212, 121.872 663.222, 123.282 660.437 C 124.691 657.653, 126.584 654.760, 127.488 654.010 C 129.548 652.301, 131.712 648.150, 133.977 641.566 C 134.944 638.756, 137.482 634.123, 139.617 631.271 C 141.753 628.418, 145.122 622.352, 147.104 617.792 C 150.623 609.698, 150.801 609.488, 154.589 609 L 158.470 608.500 162.295 596 C 167.466 579.103, 176.797 545.080, 178.572 536.649 C 179.366 532.881, 181.547 527.031, 183.419 523.649 C 188.249 514.925, 195.805 485.611, 196.603 472.500 C 196.737 470.300, 198.701 463.775, 200.968 458 C 205.507 446.437, 207.483 438.846, 208.518 429 C 208.968 424.727, 210.369 420.101, 212.607 415.500 C 214.918 410.749, 216.495 405.448, 217.517 399 C 218.345 393.775, 219.487 387.025, 220.055 384 C 220.623 380.975, 220.818 375.082, 220.489 370.905 C 219.914 363.620, 220.019 363.102, 223.080 358.179 C 226.246 353.085, 226.265 352.975, 225.674 343.274 C 225.346 337.898, 224.781 332.253, 224.418 330.729 C 223.784 328.065, 223.862 327.997, 226.444 328.979 C 235.857 332.557, 247.699 326.502, 251.031 316.407 C 257.204 297.703, 232.494 282.713, 218.945 296.941 L 215.390 300.675 213.606 296.363 C 210.857 289.715, 212.582 283.332, 219.039 276.267 C 226.222 268.408, 231.141 257.375, 236.399 237.331 C 239.739 224.601, 242.079 217.933, 245.452 211.538 C 247.953 206.795, 250.011 201.921, 250.024 200.707 C 250.037 199.493, 251.202 195.800, 252.613 192.500 C 258.963 177.649, 263.544 154.493, 264.977 130 C 265.623 118.965, 266.184 115.678, 268.048 112 C 271.263 105.654, 271.837 94.232, 269.463 83.836 C 267.905 77.017, 267.815 74.886, 268.810 68.480 C 270.294 58.938, 269.088 55.197, 264.750 55.882 C 264.337 55.947, 264 54.651, 264 53.002 C 264 50.950, 262.896 48.835, 260.500 46.294 C 258.575 44.253, 257 42.280, 257 41.908 C 257 40.674, 253.186 40.214, 252.084 41.316 M 253.412 45.750 C 253.122 46.712, 251.961 49.750, 250.830 52.500 C 246.092 64.024, 244.652 77.716, 246.550 93.200 C 247.379 99.965, 248.284 106.238, 248.561 107.140 C 249.286 109.500, 245.307 119.416, 237.128 135.631 C 233.208 143.403, 230 150.114, 230 150.545 C 230 150.975, 227.466 155.864, 224.369 161.408 C 217.451 173.794, 216.483 176.456, 213.503 191.279 C 210.998 203.742, 209.100 207.790, 200.503 219 C 193.943 227.553, 189.854 235.533, 186.963 245.419 L 184.308 254.500 177.789 258 C 163.512 265.666, 159.217 270.143, 155.002 281.750 C 153.753 285.188, 152.385 288, 151.961 288 C 150.985 288, 151.953 280.118, 153.236 277.629 C 153.951 276.241, 153.887 275.952, 152.988 276.507 C 151.505 277.424, 147.001 287.402, 146.998 289.779 C 146.996 290.725, 145.152 294.200, 142.900 297.500 C 129.153 317.640, 126.545 331.015, 133.001 348.274 C 134.568 352.463, 134.916 355.682, 134.756 364.500 C 134.646 370.550, 135.126 384.768, 135.822 396.096 C 137.204 418.587, 136.564 427.014, 132.932 434.132 C 131.043 437.835, 131.032 438.073, 132.720 438.673 C 152.884 445.852, 169.609 453.665, 183.447 462.371 C 188.368 465.467, 192.707 468, 193.088 468 C 195.209 468, 203.655 441.730, 204.933 431.159 C 205.742 424.475, 206.890 420.180, 208.971 416.057 C 210.570 412.889, 212.590 406.517, 213.459 401.898 C 214.328 397.279, 215.538 391.025, 216.148 388 C 217.021 383.666, 217.344 370.577, 216.752 363.480 C 216.705 362.920, 217.944 360.530, 219.506 358.170 C 223.154 352.658, 223.720 346.195, 221.562 334.679 C 219.579 324.098, 213.927 304.338, 210.980 297.683 C 209.375 294.057, 209.014 291.875, 209.523 288.862 C 210.178 284.985, 210.134 284.900, 208.100 286.170 C 205.775 287.622, 205.588 288.847, 206.907 294 C 208.260 299.286, 209.006 305.337, 208.207 304.554 C 207.818 304.172, 206.571 301.106, 205.436 297.742 C 204.300 294.377, 202.912 291.471, 202.351 291.284 C 201.790 291.097, 197.601 295.026, 193.042 300.014 C 188.482 305.003, 184.528 308.861, 184.255 308.588 C 183.189 307.522, 193.382 294.791, 199.702 289.297 C 222.834 269.184, 226.038 264.052, 233.493 235.158 C 236.803 222.326, 238.877 216.318, 241.466 212.055 C 243.391 208.887, 245.676 203.523, 246.544 200.135 C 247.412 196.747, 249.227 191.561, 250.578 188.610 C 255.368 178.148, 260.281 151.528, 261.634 128.710 C 262.163 119.779, 262.878 116.043, 265.149 110.333 C 268.507 101.892, 268.764 96.144, 266.313 84.318 C 264.819 77.108, 264.775 75.168, 265.939 67.998 C 267.598 57.782, 266.251 55.455, 263.156 63.190 C 261.988 66.111, 260.538 70.858, 259.935 73.741 C 258.476 80.712, 256.489 82.013, 257.413 75.392 C 257.788 72.702, 258.781 67.575, 259.620 64 C 261.212 57.212, 261.178 48.500, 259.560 48.500 C 258.307 48.500, 255.322 58.485, 253.431 68.998 C 252.591 73.673, 251.472 77.928, 250.945 78.455 C 249.380 80.020, 250.944 67.446, 253.594 57.161 C 254.917 52.024, 256 46.962, 256 45.911 C 256 43.517, 254.118 43.400, 253.412 45.750 M 273.463 72.250 C 272.461 74.889, 273.495 856, 274.500 856 C 275.165 856, 275.584 724.333, 275.751 463.500 C 275.924 194.066, 275.679 71, 274.970 71 C 274.402 71, 273.724 71.563, 273.463 72.250 M 228.716 180.250 C 224.250 189.276, 222.179 195, 223.379 195 C 224.125 195, 230.384 182.636, 233.007 175.982 C 236.260 167.729, 233.604 170.371, 228.716 180.250 M 244.099 186.500 C 243.361 188.700, 241.861 191.986, 240.765 193.803 C 238.361 197.787, 239.358 199.483, 242.048 195.985 C 244.525 192.763, 246.237 187.635, 245.792 184.767 C 245.503 182.908, 245.198 183.220, 244.099 186.500 M 176.826 185.979 C 156.965 191.975, 148.857 218.520, 160.446 239.604 C 162.322 243.017, 163.690 245.976, 163.486 246.180 C 163.282 246.385, 162.226 250.590, 161.140 255.526 C 160.054 260.462, 158.837 265.400, 158.435 266.500 C 157.930 267.885, 158.909 267.355, 161.621 264.774 C 163.774 262.724, 169.091 259.124, 173.437 256.774 L 181.337 252.500 183.996 244 C 187.434 233.008, 190.526 227.080, 197.982 217.185 C 208.827 202.792, 211.877 193.004, 206.495 189.859 C 199.576 185.815, 184.082 183.789, 176.826 185.979 M 174.015 245.191 C 174.024 249.211, 174.467 253.175, 175 254 C 175.670 255.036, 175.974 252.967, 175.985 247.309 C 175.993 242.804, 175.550 238.840, 175 238.500 C 174.368 238.109, 174.006 240.569, 174.015 245.191 M 205.500 248 C 203.504 251.963, 202.076 255.410, 202.327 255.660 C 203.044 256.377, 206.694 250.804, 208.556 246.151 C 211.377 239.102, 209.369 240.317, 205.500 248 M 227 294.722 C 223.886 295.892, 219.919 299.255, 218.565 301.874 C 217.301 304.318, 217.435 305.520, 219.897 313.827 C 223.139 324.768, 224.285 326.129, 230.785 326.753 C 244.030 328.026, 252.925 314.849, 246.819 303 C 243.330 296.230, 233.696 292.205, 227 294.722 M 196.549 301.250 C 196.335 301.938, 194.065 310.825, 191.504 321 C 188.574 332.639, 185.389 342.618, 182.915 347.908 C 180.752 352.532, 179.185 356.519, 179.434 356.767 C 180.058 357.391, 186.444 347.265, 188.462 342.449 C 192.832 332.027, 199.731 300, 197.607 300 C 197.238 300, 196.762 300.563, 196.549 301.250 M 157 306.724 C 157 310.491, 166.979 315.308, 172 313.965 C 174.261 313.360, 174.117 313.226, 170.500 312.561 C 164.110 311.386, 163.158 311.004, 159.995 308.342 C 158.348 306.956, 157 306.228, 157 306.724 M 142.195 316.315 C 139.501 322.661, 141.648 340.856, 146.142 349.750 C 149.549 356.494, 152.059 358.408, 149.420 352.250 C 145.474 343.046, 144.798 339.829, 144.112 327 C 143.484 315.242, 143.236 313.863, 142.195 316.315 M 196.208 348.750 C 198.306 353.701, 202.045 357.982, 206.058 360.030 C 210.945 362.523, 211.204 361.329, 206.474 358.108 C 204.542 356.792, 201.357 353.530, 199.396 350.858 C 195.340 345.333, 194.535 344.800, 196.208 348.750 M 192.485 366.970 C 194.011 369.923, 196.744 372, 199.101 372 C 199.778 372, 198.383 370.200, 196 368 C 190.815 363.213, 190.493 363.119, 192.485 366.970 M 184.027 375.711 C 183.997 378.147, 187.106 381.533, 190.088 382.313 C 192.739 383.006, 192.486 381.598, 189.691 380.102 C 188.421 379.423, 186.633 377.659, 185.718 376.183 C 184.138 373.637, 184.052 373.613, 184.027 375.711 M 200.073 377.800 C 199.999 381.123, 203.020 388.393, 203.673 386.464 C 203.866 385.895, 203.151 382.970, 202.085 379.964 C 200.294 374.917, 200.141 374.752, 200.073 377.800 M 170.403 389.537 C 168.939 394.233, 167.963 398.296, 168.234 398.568 C 169.016 399.349, 172.862 389.715, 173.593 385.147 C 174.666 378.436, 173.261 380.369, 170.403 389.537 M 138.698 430.910 C 135.616 438.018, 135.473 438.682, 137.370 437.108 C 139.062 435.704, 142.306 427.419, 141.781 425.844 C 141.570 425.209, 140.182 427.489, 138.698 430.910 M 195.995 429.750 C 195.992 430.163, 194.894 435.664, 193.554 441.976 C 190.967 454.163, 190.928 456.501, 193.411 450.558 C 196.428 443.339, 198.815 429, 197 429 C 196.450 429, 195.998 429.337, 195.995 429.750 M 124.337 442.750 C 123.397 444.262, 121.549 446.625, 120.230 448 C 111.892 456.695, 98.724 477.897, 95.707 487.485 C 93.144 495.631, 92.451 526.425, 94.798 527.875 C 96.018 528.629, 98.380 538.953, 97.528 539.805 C 96.929 540.405, 96.271 538.643, 95.175 533.500 L 94.323 529.500 93.133 533.500 C 92.479 535.700, 91.264 541.325, 90.433 546 C 89.603 550.675, 87.366 561.204, 85.462 569.397 C 80.731 589.756, 79.910 587.630, 94.425 592.620 C 104.344 596.029, 104.168 596.100, 108.461 586.952 C 110.538 582.526, 112.522 579.193, 112.869 579.546 C 113.216 579.899, 113.500 584.295, 113.500 589.316 L 113.500 598.444 120 600.247 C 127.940 602.450, 147.987 606, 152.483 606 C 154.742 606, 155.932 605.454, 156.297 604.250 C 161.189 588.093, 174.201 541.466, 175.116 536.814 C 175.789 533.396, 178.260 526.834, 180.609 522.232 C 183.563 516.443, 185.685 510.263, 187.495 502.182 C 188.934 495.757, 191.036 486.538, 192.167 481.695 C 193.298 476.852, 194.060 472.736, 193.861 472.549 C 188.130 467.145, 161.167 453.052, 142.309 445.604 C 125.798 439.084, 126.542 439.202, 124.337 442.750 M 123.037 448.643 C 123.057 449.114, 129.245 451.921, 136.787 454.881 C 144.329 457.840, 155.563 462.647, 161.750 465.561 C 173.285 470.995, 176.288 471.550, 168.748 466.854 C 160.691 461.836, 150.463 457.220, 138.179 453.058 C 131.402 450.761, 125.214 448.636, 124.429 448.334 C 123.643 448.033, 123.017 448.172, 123.037 448.643 M 179.492 474.987 C 180.252 476.217, 188.591 482, 189.604 482 C 190.906 482, 185.609 476.867, 182.800 475.405 C 179.619 473.750, 178.652 473.628, 179.492 474.987 M 176.070 518.250 C 176.116 524.908, 176.442 527.799, 177 526.500 C 178.225 523.649, 178.225 508, 177 508 C 176.394 508, 176.028 512.036, 176.070 518.250 M 95 519.479 C 95 520.857, 101.306 531, 102.162 531 C 103.346 531, 99.426 522.981, 97.110 520.666 C 95.950 519.505, 95 518.971, 95 519.479 M 107.766 595.337 C 105.678 599.749, 105.603 599.753, 94.719 596.074 L 86.063 593.148 85.573 596.324 C 85.303 598.071, 84.861 606.250, 84.589 614.500 C 84.043 631.081, 82.272 640.907, 79.112 644.883 C 72.366 653.369, 62.068 676.463, 59.370 689.157 C 58.156 694.872, 57.966 699.382, 58.514 709.500 C 60.615 748.271, 57.866 780.567, 49.788 812 C 41.256 845.198, 41.779 846.523, 63.868 847.684 C 69.716 847.992, 79 849.313, 84.500 850.620 C 92.206 852.452, 97.324 852.998, 106.809 852.999 C 119.727 853, 121.247 852.254, 114.270 849.339 C 112.353 848.538, 111.027 847.639, 111.325 847.342 C 112.258 846.409, 118.676 848.984, 120.534 851.038 C 122.737 853.472, 127.557 853.817, 126.229 851.445 C 125.751 850.590, 123.591 848.805, 121.430 847.477 C 116.654 844.543, 118.538 844.213, 124.040 847.020 C 126.218 848.132, 128 849.707, 128 850.520 C 128 851.334, 128.900 852, 130 852 C 133.318 852, 132.259 849.188, 127.906 846.440 C 125.654 845.019, 124.058 843.608, 124.360 843.306 C 125.111 842.556, 134 847.846, 134 849.042 C 134 850.309, 136.712 850.276, 137.501 848.999 C 137.841 848.448, 136.082 846.761, 133.591 845.249 C 127.115 841.317, 127.926 840.268, 134.634 843.901 C 140.512 847.085, 142 847.116, 142 844.052 C 142 842.734, 140.965 842.028, 138.297 841.528 C 136.260 841.146, 132.967 840.004, 130.980 838.990 C 128.993 837.976, 124.862 836.266, 121.801 835.190 C 115.948 833.133, 109.213 828.916, 94.774 818.269 C 84.379 810.604, 84.005 809.724, 84.025 793 C 84.052 771.083, 86.019 761.782, 100.595 714.666 C 104.140 703.208, 108.019 688.872, 109.215 682.808 C 110.926 674.139, 112.010 671.006, 114.291 668.142 C 115.887 666.139, 118.925 661.537, 121.043 657.917 C 123.161 654.296, 125.567 650.774, 126.390 650.091 C 127.214 649.408, 128.882 645.845, 130.098 642.174 C 131.313 638.503, 133.810 633.659, 135.645 631.408 C 138.374 628.061, 147 611.566, 147 609.693 C 147 609.411, 143.738 608.650, 139.750 608 C 130.021 606.417, 112.806 602.084, 111.311 600.843 C 110.649 600.294, 109.971 598.006, 109.804 595.759 L 109.500 591.674 107.766 595.337 M 124.523 626.550 C 113.201 634.371, 111.282 638.011, 121.872 631.578 C 127.140 628.377, 130.750 625.183, 132.410 622.250 C 133.449 620.416, 133.224 620.538, 124.523 626.550 M 98.654 632.283 C 98.300 637.352, 97.128 644.858, 96.050 648.962 C 94.061 656.537, 93.999 658.739, 95.874 655.236 C 98.301 650.700, 101 638.114, 101 631.329 C 101 620.857, 99.406 621.505, 98.654 632.283 M 115.445 637.089 C 114.466 638.673, 112.004 648.338, 112.463 648.796 C 113.151 649.485, 115.806 643.550, 116.526 639.715 C 117.212 636.054, 116.762 634.958, 115.445 637.089 M 79.103 698.043 C 75.533 709.146, 74.072 715.074, 75.055 714.466 C 76.374 713.651, 82.141 694.978, 81.798 692.631 C 81.627 691.456, 80.480 693.758, 79.103 698.043 M 83.819 720.641 C 80.734 727.163, 77.453 734.975, 76.527 738 C 75.602 741.025, 74.628 744.175, 74.363 745 C 72.530 750.709, 76.905 741.888, 82.956 727.677 C 91.356 707.947, 91.893 703.569, 83.819 720.641 M 62.626 773.250 C 61.678 778.888, 60.681 784.850, 60.408 786.500 C 59.309 793.159, 61.850 786.184, 63.323 778.500 C 65.847 765.328, 66.132 763, 65.219 763 C 64.740 763, 63.573 767.612, 62.626 773.250 M 58.083 803.049 C 56.570 810.104, 56.733 815.174, 58.557 817.777 C 60.971 821.225, 62.065 820.399, 60.390 816.392 C 58.977 813.010, 59.097 805.347, 60.649 799.750 C 60.916 798.788, 60.692 798, 60.150 798 C 59.609 798, 58.678 800.272, 58.083 803.049 M 87.436 802.435 C 88.242 809.339, 89.426 810.728, 102.196 819.760 C 119.399 831.926, 121.966 833.003, 133.717 832.985 C 144.207 832.968, 146.401 832.321, 145.840 829.406 C 145.586 828.090, 144.215 827.336, 141.112 826.806 C 138.707 826.396, 135.786 825.436, 134.620 824.672 C 133.454 823.909, 130.004 822.560, 126.953 821.674 C 123.902 820.787, 118.578 818.234, 115.122 816 C 111.665 813.766, 104.877 809.950, 100.038 807.519 C 95.199 805.089, 90.254 801.840, 89.050 800.300 L 86.860 797.500 87.436 802.435" stroke="none" fill="#333" fill-rule="evenodd"/>
</svg>