<svg width="179pt" height="275pt" viewBox="0 0 560 859" xmlns="http://www.w3.org/2000/svg">
	<rect x="0" y="0" width="100%" height="100%" fill="#FFF" />
	<path d="M 176.500 42.030 C 166.708 43.542, 154.842 47.747, 149.756 51.505 C 131.307 65.138, 126.397 95.810, 139.191 117.500 C 151.133 137.746, 153.707 145.660, 152.528 158.500 C 151.431 170.431, 150.552 172.336, 141.318 182.784 C 131.463 193.936, 127.425 199.827, 125.748 205.500 C 125.098 207.700, 122.740 211.755, 120.509 214.512 C 114.876 221.469, 109.033 236.151, 108.987 243.460 C 108.980 244.582, 107.790 249.100, 106.343 253.500 C 102.583 264.929, 102.600 281.335, 106.386 295 C 108.617 303.054, 109.066 306.936, 109.338 320.500 C 109.594 333.324, 110.092 337.989, 111.846 344 C 118.558 367.012, 120.110 374.645, 120.946 388.766 C 121.953 405.773, 122.144 406.170, 134 415.933 C 137.575 418.877, 140.831 421.784, 141.235 422.393 C 142.569 424.403, 142.069 437.638, 140.549 440.568 C 139.751 442.106, 138.793 445.870, 138.420 448.932 C 138.047 451.994, 136.872 456.224, 135.809 458.331 C 128.003 473.805, 125.907 514.405, 132.017 531.790 C 133.094 534.853, 133.868 537.429, 133.737 537.516 C 133.607 537.603, 124.275 540.040, 113 542.932 C 58.566 556.896, 52.429 558.739, 49.500 561.992 C 46.447 565.384, 46.514 586.536, 49.590 590.654 C 52.601 594.685, 53.509 594.791, 86.250 594.900 L 116 595 116 605.965 C 116 615.906, 116.187 617.030, 118 618 C 119.973 619.056, 120 620.094, 120 694.035 L 120 769 111.750 768.966 C 107.213 768.947, 93.600 768.508, 81.500 767.991 L 59.500 767.049 52.182 770.775 C 40.621 776.660, 41 775.975, 41 791.016 C 41 803.355, 41.104 804.018, 43.250 805.342 C 44.971 806.403, 56.544 807.129, 92.500 808.430 C 118.350 809.365, 153.450 810.772, 170.500 811.556 C 218.779 813.777, 218.465 813.792, 225.816 809.041 C 233.294 804.208, 233.445 803.705, 232.351 787.293 L 231.500 774.527 227.500 773.872 C 225.300 773.511, 212.250 772.922, 198.500 772.563 C 184.750 772.203, 171.813 771.665, 169.750 771.366 L 166 770.824 166 756.471 C 166 748.577, 166.337 741.943, 166.750 741.728 C 167.162 741.513, 193.150 742.138, 224.500 743.115 L 281.500 744.893 286.750 741.436 L 292 737.980 292 724.549 C 292 717.162, 291.584 710.861, 291.075 710.547 C 290.567 710.232, 276.163 709.683, 259.067 709.326 L 227.984 708.677 228.242 651.652 L 228.500 594.628 246 588.044 C 262.299 581.911, 263.618 581.225, 265.214 578.046 C 269.020 570.465, 270.272 570.102, 290.500 570.716 C 311.492 571.352, 322.424 570.354, 348.054 565.463 C 365.262 562.178, 373 561.284, 373 562.580 C 373 562.899, 370.932 567.511, 368.404 572.830 C 359.410 591.750, 356.731 601.605, 356.256 617.500 C 355.868 630.507, 356.028 632.103, 358.500 640 C 363.488 655.932, 363.885 660.090, 364.037 698 C 364.193 736.843, 363.712 741.917, 358.161 760.005 C 354.643 771.469, 351.572 789.040, 352.534 792.204 C 354.952 800.155, 362.701 804.944, 373.207 804.978 C 379.828 805, 395.521 808.610, 415 814.594 C 420.292 816.220, 426.708 817.357, 432 817.608 C 436.675 817.829, 442.644 818.279, 445.264 818.607 C 447.884 818.935, 450.809 818.860, 451.764 818.439 C 452.719 818.019, 455.777 817.784, 458.561 817.917 C 462.181 818.091, 463.996 817.710, 464.934 816.580 C 465.695 815.663, 467.791 815, 469.931 815 C 471.959 815, 474.491 814.339, 475.559 813.532 C 476.626 812.724, 478.719 812.049, 480.209 812.032 C 482.731 812.002, 484.188 810.993, 492.063 803.827 C 498.287 798.162, 495.079 791.428, 485.500 790.050 C 473.143 788.271, 447.230 776.118, 437.500 767.537 L 434.500 764.891 444.654 765.289 C 453.785 765.646, 455.563 766.045, 462.314 769.251 C 473.205 774.423, 479.407 775.605, 487.796 774.106 C 492.666 773.235, 495.370 773.190, 497.358 773.946 C 501.689 775.592, 511.051 775.222, 514.989 773.248 C 525.780 767.841, 518.473 758, 499 751.712 C 482.359 746.338, 478.587 744.406, 466.373 735 C 444.773 718.364, 443.511 715.850, 444.305 691 C 444.875 673.138, 447.129 659.226, 453.593 633.655 C 458.494 614.267, 461.896 593.125, 462.602 577.670 C 463.075 567.312, 463.828 562.365, 466.131 554.500 C 471.009 537.843, 472.006 519.917, 468.525 511.454 C 467.836 509.779, 464.677 505.605, 461.505 502.179 C 452.122 492.044, 441.781 488.001, 403.730 479.593 L 384.547 475.354 390.332 472.705 C 397.451 469.446, 417.278 457.575, 418.933 455.580 C 419.599 454.778, 419.999 452.856, 419.822 451.310 L 419.500 448.500 410.500 448.784 C 403.088 449.017, 400.530 449.547, 396 451.784 C 391.635 453.940, 389.159 454.484, 384 454.422 C 377.056 454.339, 364.326 450.811, 369 450.265 C 378.751 449.127, 380.433 448.658, 382.626 446.465 C 388.273 440.818, 384.172 437, 372.458 437 C 367.760 437, 360.447 436.278, 356.208 435.396 C 346.326 433.340, 335.999 433.916, 330.290 436.842 C 324.356 439.883, 321.429 439.561, 313.642 435.011 C 304.653 429.758, 300.508 426.453, 288.353 414.847 C 282.773 409.518, 276.770 404.415, 275.013 403.507 C 272.514 402.214, 271.937 401.382, 272.360 399.678 C 272.657 398.480, 273.203 392.100, 273.573 385.500 C 274.009 377.732, 275.218 369.621, 277.003 362.500 C 280.775 347.454, 282.146 316.051, 279.411 307.356 C 277.763 302.118, 277.766 301.583, 279.465 296.193 C 285.814 276.051, 272.177 249.235, 244.942 228.308 C 241.336 225.536, 235.250 220.171, 231.418 216.384 C 227.586 212.598, 222.887 208.593, 220.976 207.484 C 216.015 204.606, 215 199.907, 217.445 191.139 C 218.464 187.488, 219.601 181.002, 219.973 176.726 C 220.822 166.946, 220.922 166.855, 229.509 168.077 C 237.911 169.273, 246.285 168.399, 249.222 166.021 C 251.129 164.477, 251.403 163.118, 251.661 153.891 C 252.179 135.434, 253.202 128.578, 255.500 128.158 C 262.937 126.802, 262.634 120.174, 254.509 106.559 C 249.314 97.852, 248.804 96.498, 249.308 92.739 C 250.621 82.952, 244.426 64.673, 237.106 56.730 C 226.431 45.149, 199.147 38.532, 176.500 42.030 M 172.613 46.537 C 148.513 51.094, 136 66.544, 136 91.742 C 136 101.760, 138.410 109.808, 144.015 118.500 C 153.650 133.444, 155.500 139.081, 155.500 153.500 C 155.500 171.625, 155.258 172.384, 146.182 182.697 C 134.698 195.746, 131.148 200.762, 129.522 206.238 C 128.716 208.951, 126.724 212.690, 125.094 214.546 C 118.740 221.783, 116.661 226.891, 111.482 248 C 106.975 266.369, 106.810 267.522, 107.328 277 C 107.829 286.157, 109.740 297.593, 110.623 296.710 C 112.081 295.253, 113.773 277.890, 113.274 269.519 C 112.645 258.981, 113.912 256.776, 115.828 265.076 C 117.459 272.140, 117.284 281.832, 115.326 293 C 114.243 299.176, 113.632 308.449, 113.580 319.500 L 113.500 336.500 118.194 353.500 C 123.254 371.822, 124.998 382.023, 125.004 393.322 C 125.008 401.960, 126.471 404.805, 134.148 411.107 C 137.092 413.523, 145.125 421.134, 152 428.020 C 166.647 442.692, 173.625 447.565, 193.689 457.141 C 228.627 473.814, 238.773 478.993, 243.257 482.443 C 247.143 485.432, 249.530 486.367, 256.285 487.546 C 260.833 488.340, 268.578 489.869, 273.495 490.944 C 283.581 493.148, 285.455 492.998, 278.315 490.559 C 272.950 488.726, 265.906 485.107, 267.578 485.042 C 268.826 484.993, 279.196 489.114, 286.596 492.600 C 292.463 495.363, 298.890 495.634, 318.500 493.947 C 329.720 492.981, 331.182 492.598, 341 488.050 C 346.775 485.375, 353.152 482.671, 355.170 482.042 C 362.404 479.787, 362.706 476, 355.652 476 C 351.879 476, 349.530 476.838, 342.500 480.693 C 335.107 484.748, 325.075 486.393, 315.717 485.085 C 310.647 484.377, 305.825 483.222, 305 482.519 C 304.175 481.816, 301.925 480.459, 300 479.504 C 298.075 478.548, 295.596 476.942, 294.490 475.934 C 293.033 474.606, 290.557 474.019, 285.490 473.801 L 278.500 473.500 284.412 472.145 C 289.548 470.969, 291.387 471.002, 298.412 472.396 C 311.682 475.030, 318 474.056, 318 469.375 C 318 466.176, 315.226 464.973, 304.343 463.453 C 298.380 462.621, 292.931 461.147, 289.255 459.375 C 280.234 455.025, 271.034 454.860, 262.417 458.892 C 255.494 462.132, 253 462.690, 253 461 C 253 460.450, 253.745 460, 254.655 460 C 255.565 460, 253.428 458.143, 249.905 455.873 C 233.338 445.197, 223.952 436.542, 211.548 420.500 C 200.237 405.872, 194.985 400.878, 182.172 392.563 C 172.858 386.519, 171.991 385.660, 167.548 378.082 C 162.487 369.450, 161.642 364.559, 166.555 372.334 C 169.973 377.745, 170.585 377.992, 171.294 374.250 C 171.581 372.738, 173.413 367.670, 175.367 362.988 C 180.490 350.707, 182.357 338.877, 182.386 318.500 C 182.400 309.150, 182.049 298.818, 181.607 295.540 L 180.804 289.581 178.407 293.540 C 175.384 298.534, 175.161 295.589, 178.117 289.710 C 184.990 276.038, 193.162 266.498, 188.554 277.524 C 186.620 282.154, 186.574 281.904, 189.250 281.330 L 191.500 280.848 189.250 282.834 C 188.012 283.927, 187 285.031, 187 285.288 C 187 286.336, 211.897 299.901, 217 301.633 C 225.540 304.532, 245.336 304.262, 253.816 301.131 C 260.971 298.489, 262.865 298.881, 257.863 301.967 C 243.157 311.041, 220.477 309.224, 199.770 297.311 C 193.571 293.745, 187.824 290.461, 186.999 290.012 C 185.681 289.295, 185.497 292.450, 185.499 315.848 C 185.500 345.715, 184.480 352.254, 177.387 367.817 C 171.634 380.442, 172.044 381.767, 184.137 389.588 C 196.990 397.903, 202.723 403.356, 214.435 418.407 C 229.474 437.733, 231.110 439.060, 240.725 439.719 C 245.111 440.019, 251.633 439.951, 255.218 439.567 L 261.736 438.869 262.416 431.185 C 262.790 426.958, 264.476 417.650, 266.164 410.500 C 268.171 401.995, 269.513 393.005, 270.044 384.500 C 270.601 375.589, 271.689 368.512, 273.504 362 C 275.525 354.752, 276.281 349.300, 276.693 339 C 277.574 317.020, 277.358 311.938, 275.295 306.113 C 273.419 300.820, 273.419 300.660, 275.286 296.887 C 278.308 290.779, 278.589 282.630, 276.042 275 C 271.087 260.156, 256.345 240.383, 243.964 231.976 C 240.820 229.840, 235.379 224.975, 231.874 221.164 C 228.368 217.352, 223.594 213.276, 221.265 212.104 C 212.814 207.855, 210.677 200.555, 214.368 188.543 C 215.726 184.119, 217.061 177.061, 217.334 172.857 L 217.830 165.214 208.165 162.137 C 193.425 157.444, 189.052 153.702, 187.509 144.465 L 186.847 140.500 189.502 145 C 194.700 153.809, 197.773 155.582, 218.083 161.484 C 230.578 165.115, 240.220 166.007, 245.454 164.018 C 247.898 163.088, 248.041 162.642, 248.088 155.768 C 248.167 144.225, 248.441 140.591, 249.337 139.204 C 249.798 138.491, 249.877 135.744, 249.514 133.099 C 248.796 127.883, 250.375 125, 253.949 125 C 259.615 125, 258.824 120.492, 250.829 107.224 C 245.899 99.045, 245.583 98.126, 245.774 92.500 C 246.338 75.838, 238.204 59.239, 226.300 52.760 C 213.996 46.063, 189.893 43.269, 172.613 46.537 M 171.750 100.080 C 167.453 102.583, 165.831 110.918, 168.326 117.684 C 171.944 127.498, 182.116 135.635, 187.627 133.124 C 191.170 131.510, 190.495 130, 186.228 130 C 173.660 130, 164.787 105.502, 176 101.760 C 176.825 101.485, 178.963 101.853, 180.750 102.579 C 184.466 104.087, 185.083 102.872, 181.777 100.557 C 179.260 98.793, 174.359 98.560, 171.750 100.080 M 182.004 162.650 C 181.998 164.525, 189.755 180.832, 195.078 190.136 C 203.961 205.659, 203.580 201.898, 194.508 184.500 C 184.592 165.482, 182.009 160.969, 182.004 162.650 M 141.500 205.434 C 139.850 206.179, 137.600 207.548, 136.500 208.476 L 134.500 210.163 136.500 209.441 C 141.789 207.531, 148.809 206, 152.277 206 C 154.583 206, 155.871 205.600, 155.500 205 C 154.604 203.550, 145.013 203.847, 141.500 205.434 M 174 205 C 172.775 205.792, 172.892 205.972, 174.641 205.985 C 175.818 205.993, 180.993 207.087, 186.141 208.415 C 197.079 211.238, 216.147 214.349, 218.717 213.730 C 221.872 212.971, 214.157 210.339, 205 209.051 C 200.325 208.393, 192.567 206.988, 187.761 205.927 C 177.879 203.748, 176.121 203.630, 174 205 M 182.536 217.357 C 186.262 222.969, 190.943 234.862, 190.979 238.809 C 190.991 240.079, 191.396 240.874, 191.879 240.575 C 194.785 238.779, 189.514 221.681, 184.263 215.869 C 179.262 210.334, 178.379 211.095, 182.536 217.357 M 246.968 242.750 C 255.255 253.426, 262.239 267.228, 264.130 276.665 C 265.334 282.674, 264.855 288.092, 262.422 296 C 261.719 298.286, 261.802 298.378, 263.393 297.073 C 272.935 289.243, 267.693 265.140, 252.418 246.622 C 247.231 240.334, 242.462 236.945, 246.968 242.750 M 129.044 280.572 C 128.938 283.134, 139.268 294.066, 140.567 292.766 C 140.821 292.512, 138.342 289.423, 135.059 285.902 C 131.775 282.381, 129.069 279.982, 129.044 280.572 M 270.032 322.050 C 270.061 330.774, 270.182 331.346, 271.610 329.500 C 273.441 327.130, 273.146 315.746, 271.203 313.803 C 270.266 312.866, 270.007 314.688, 270.032 322.050 M 219 315.762 C 219 318.388, 227.809 324.180, 233.750 325.459 C 238.571 326.497, 237.709 325.471, 231.292 322.533 C 228.153 321.096, 224.103 318.790, 222.292 317.409 C 220.481 316.028, 219 315.287, 219 315.762 M 200.500 322.964 C 202.700 324.055, 205.850 324.923, 207.500 324.892 L 210.500 324.837 207.006 323.316 C 205.084 322.479, 201.934 321.612, 200.006 321.387 L 196.500 320.980 200.500 322.964 M 120.070 325.185 C 119.985 329.672, 121.269 333.275, 124.765 338.356 C 126.225 340.477, 128.438 345.202, 129.684 348.856 L 131.948 355.500 131.974 350.793 C 131.994 347.093, 131.007 344.204, 127.362 337.293 C 124.811 332.457, 122.142 326.925, 121.432 325 L 120.141 321.500 120.070 325.185 M 258.344 330.895 C 254.504 333.591, 250.524 337.077, 249.499 338.642 C 247.640 341.479, 247.640 341.482, 249.691 339.993 C 250.822 339.172, 254.410 336.635, 257.664 334.355 C 260.918 332.075, 264.189 329.477, 264.933 328.581 C 267.714 325.229, 265.107 326.145, 258.344 330.895 M 194.220 336.159 C 194.802 337.907, 201.125 341.007, 203.984 340.947 C 206.104 340.903, 205.779 340.537, 201.922 338.620 C 195.191 335.276, 193.775 334.824, 194.220 336.159 M 214 337.058 C 214 339.125, 227.196 345.285, 228.477 343.816 C 228.628 343.642, 225.433 341.869, 221.376 339.876 C 217.319 337.883, 214 336.614, 214 337.058 M 268.245 348.194 C 267.591 354.351, 267.255 359.588, 267.500 359.833 C 268.636 360.970, 270.329 353.667, 270.764 345.750 C 271.455 333.169, 269.656 334.915, 268.245 348.194 M 238.228 355.963 C 237.374 358.287, 237.167 361.764, 237.599 366.529 C 238.126 372.347, 237.912 374.251, 236.413 377.065 C 234.289 381.054, 233.893 391.395, 235.746 394.500 C 236.741 396.168, 236.944 395.218, 236.970 388.770 C 236.987 384.219, 237.632 379.461, 238.537 377.199 C 239.658 374.398, 239.996 370.535, 239.787 362.929 C 239.519 353.179, 239.417 352.726, 238.228 355.963 M 258.500 381.469 L 255.500 383.928 258 383.932 C 260.776 383.937, 264 381.899, 264 380.140 C 264 378.285, 261.709 378.839, 258.500 381.469 M 135.010 387.750 C 135.027 392.645, 139.509 400.647, 143.838 403.511 C 148.143 406.360, 165.993 414.341, 166.631 413.702 C 166.845 413.488, 162.510 410.900, 156.998 407.950 C 145.051 401.555, 139.692 396.601, 137.462 389.886 C 135.619 384.336, 134.996 383.793, 135.010 387.750 M 260.750 403.865 C 258.844 409.708, 258.461 415.549, 259.925 416.454 C 261.199 417.241, 263.254 407.397, 262.839 402.500 L 262.500 398.500 260.750 403.865 M 269.975 410.250 C 269.368 412.587, 268.454 416.075, 267.943 418 C 265.997 425.332, 265.641 436.517, 267.272 439.087 C 268.114 440.414, 269.094 442.895, 269.449 444.601 C 270.191 448.169, 273.289 449.812, 289 454.967 C 300.091 458.607, 303.491 459.534, 311.120 461.003 C 316.634 462.065, 318.163 463.051, 321.867 467.931 C 323.648 470.278, 324.105 470.356, 335.106 470.171 C 355.374 469.830, 358 469.929, 360.233 471.125 C 361.442 471.772, 366.497 472.507, 371.466 472.759 C 382.162 473.300, 385.257 472.336, 400.781 463.623 C 411.313 457.712, 413.006 455.988, 408.250 456.016 C 404.928 456.036, 397.400 460.208, 397.750 461.836 C 397.897 462.520, 396.750 463, 394.968 463 C 393.301 463, 389.139 463.956, 385.718 465.124 C 379.268 467.326, 370.023 467.723, 364.393 466.038 C 362.229 465.390, 363.767 465.150, 370.500 465.086 C 380.468 464.991, 387.743 463.019, 399.146 457.321 C 405.726 454.033, 411.304 453.065, 412.502 455.003 C 413.397 456.451, 417 454.314, 417 452.335 C 417 451.001, 416.222 450.854, 412.250 451.437 C 409.637 451.820, 405.700 452.216, 403.500 452.317 C 401.300 452.418, 397.904 453.493, 395.954 454.706 C 391.133 457.704, 385.721 458.400, 378.049 457.009 C 371.354 455.795, 357 449.620, 357 447.954 C 357 447.420, 360.929 447, 365.935 447 C 375.524 447, 379.684 445.988, 380.671 443.414 C 381.671 440.810, 379.084 440.032, 369.373 440.015 C 364.353 440.007, 356.970 439.260, 352.966 438.356 C 344.682 436.485, 335.928 437.465, 328.901 441.050 C 323.693 443.708, 322.190 443.544, 314.376 439.471 C 305.394 434.790, 298.467 429.474, 287 418.464 C 277.836 409.665, 273.372 406, 271.816 406 C 271.410 406, 270.581 407.913, 269.975 410.250 M 233.630 411.250 C 232.673 414.822, 232.934 427.350, 234 429 C 234.659 430.020, 234.974 427.060, 234.985 419.750 C 235 408.882, 234.726 407.161, 233.630 411.250 M 146.019 433.143 C 145.997 440.773, 145.998 440.774, 155.417 441.597 C 159.942 441.993, 161.074 441.856, 159.836 441.063 C 158.920 440.476, 155.441 436.960, 152.105 433.248 L 146.038 426.500 146.019 433.143 M 260.500 442.006 C 258.850 442.423, 253.225 442.833, 248 442.918 L 238.500 443.072 241.500 445.549 C 252.461 454.601, 257.672 456.553, 264.581 454.195 C 270.797 452.073, 270.505 452.314, 269.020 450.524 C 268.324 449.686, 266.348 448.971, 264.628 448.937 C 261.689 448.877, 261.640 448.817, 263.817 447.944 C 265.575 447.239, 266.058 446.367, 265.817 444.335 C 265.455 441.278, 264.699 440.947, 260.500 442.006 M 142.551 447.508 C 141.702 453.169, 141.731 453.202, 148.825 454.691 L 154.500 455.883 148.218 455.625 C 140.654 455.315, 139.215 456.931, 136.057 469.278 C 130.242 492.014, 131.171 522.614, 138.088 536.173 C 144.677 549.088, 152.530 553.184, 175.228 555.542 C 213.933 559.564, 213.796 559.539, 233.648 566 C 244.017 569.374, 252.951 572.273, 253.503 572.441 C 254.148 572.638, 254.376 568.633, 254.140 561.222 C 253.408 538.163, 260.092 515.184, 271.862 500.293 L 275.905 495.180 268.658 493.567 C 264.673 492.681, 258.559 491.496, 255.072 490.934 C 248.622 489.895, 244.631 488.265, 239.809 484.701 L 237.119 482.712 231.212 484.921 C 227.963 486.136, 222.648 488.684, 219.402 490.583 L 213.500 494.035 217.500 490.424 C 221.740 486.595, 229.905 482, 232.467 482 C 235.429 482, 233.947 480.390, 228.542 477.740 L 223.084 475.063 217.310 478.100 C 207.328 483.351, 198.152 491.942, 185.973 507.439 C 180.042 514.986, 179.157 515.573, 181.945 510.107 C 189.448 495.402, 210.498 475.051, 218.250 475.009 C 221.580 474.992, 219.976 473.358, 214.250 470.934 C 209.060 468.737, 207.116 468.501, 194.284 468.510 C 178.519 468.520, 178.240 467.138, 193.828 466.250 L 203.155 465.719 195.356 462.280 C 188.511 459.261, 186.117 458.750, 175.797 458.105 C 161.159 457.191, 159.367 456.006, 172.583 455.982 L 182.500 455.964 177.367 453.133 C 174.543 451.576, 170.943 449.406, 169.367 448.310 C 167.445 446.974, 163.368 445.934, 157 445.157 C 151.775 444.519, 146.544 443.735, 145.376 443.415 C 143.492 442.898, 143.173 443.360, 142.551 447.508 M 322.406 446.848 C 322.798 447.481, 323.975 448, 325.022 448 C 326.069 448, 329.251 448.916, 332.093 450.037 C 338.362 452.508, 339.343 452.123, 334.177 449.220 C 329.742 446.727, 321.277 445.021, 322.406 446.848 M 348.061 457.030 C 339.422 461.208, 337.674 463.085, 344.746 460.589 C 349.635 458.865, 358.870 453, 356.697 453 C 356.531 453, 352.644 454.814, 348.061 457.030 M 152.946 463.750 C 151.205 468.601, 150.495 472.751, 150.425 478.500 C 150.372 482.900, 149.966 488.213, 149.524 490.307 C 148.801 493.729, 148.944 494.172, 150.935 494.693 C 153.035 495.242, 152.929 495.497, 148.866 499.636 C 143.756 504.843, 144.519 505.343, 150.332 500.596 C 161.468 491.502, 179.238 482.075, 200.389 474.041 C 205.630 472.050, 202.487 471.992, 195.430 473.950 C 185.579 476.682, 175.418 481.196, 164.872 487.523 C 152.789 494.773, 150.081 494.855, 152.537 487.894 C 153.456 485.291, 153.727 481.871, 153.342 477.735 C 152.897 472.959, 153.257 469.896, 154.881 464.645 C 157.302 456.812, 157.270 457, 156.185 457 C 155.737 457, 154.279 460.038, 152.946 463.750 M 369.544 460.862 C 371.056 462.493, 382.547 463.542, 383.421 462.128 C 383.898 461.355, 382.721 461, 379.684 461 C 377.245 461, 373.731 460.715, 371.875 460.368 C 369.399 459.904, 368.778 460.035, 369.544 460.862 M 319.134 474.308 C 317.270 476.170, 315.822 476.500, 309.519 476.500 C 301.399 476.500, 301.013 477.692, 308.663 479.144 C 314.473 480.247, 320.135 479.452, 325.369 476.799 C 329.537 474.687, 329.283 473.596, 324.414 472.690 C 322.068 472.253, 320.803 472.641, 319.134 474.308 M 339.758 476.023 C 328.076 481.337, 324.205 481.300, 334.677 475.975 C 338.651 473.954, 339.108 473.465, 337.274 473.195 C 335.913 472.994, 333.537 474.081, 331.162 475.990 C 326.087 480.069, 319.193 482.117, 313.184 481.331 C 310.608 480.994, 308.821 481.065, 309.212 481.488 C 311.078 483.504, 325.115 483.764, 330.088 481.875 C 332.801 480.844, 335.926 480, 337.031 480 C 338.136 480, 340.718 478.941, 342.770 477.646 C 344.821 476.351, 347.512 474.971, 348.750 474.579 C 351.137 473.822, 351.856 471.984, 349.750 472.023 C 349.063 472.036, 344.566 473.836, 339.758 476.023 M 364 478.038 C 364 479.817, 363.195 481.451, 361.856 482.388 L 359.712 483.890 362.106 484.396 C 363.423 484.674, 370.185 486.052, 377.134 487.458 C 390.479 490.157, 403.028 494.142, 419.500 500.911 C 431.157 505.702, 435.505 509.670, 441.021 520.549 C 444.419 527.251, 444.496 527.666, 444.321 538.455 C 444.214 544.990, 443.496 551.746, 442.562 555 C 441.694 558.025, 440.323 563.744, 439.516 567.709 C 438.709 571.674, 436.939 577.652, 435.581 580.993 C 434.224 584.334, 432.384 591.890, 431.494 597.784 C 428.992 614.344, 422.197 649.231, 418.979 662.031 C 412.063 689.547, 409.194 714.197, 410.866 731.735 C 412.205 745.780, 413.594 748.570, 422.973 756.045 L 430.296 761.882 438.418 761.309 C 448.435 760.602, 454.885 761.908, 465.442 766.781 C 473.268 770.393, 473.845 770.502, 485.500 770.586 C 492.100 770.634, 499.750 771.009, 502.500 771.420 C 509.621 772.485, 515.389 770.462, 515.816 766.750 C 516.081 764.448, 515.756 764.002, 513.816 764.013 C 510.937 764.028, 494.114 757.600, 496.075 757.233 C 497.359 756.993, 504.296 758.629, 509.500 760.399 C 510.600 760.774, 509.250 759.962, 506.500 758.596 C 503.750 757.230, 496.075 754.256, 489.444 751.988 C 478.028 748.083, 476.701 747.332, 464.444 737.834 C 447.900 725.014, 447.267 724.413, 444.423 718.827 C 437.290 704.815, 439.511 674.108, 450.992 628 C 455.642 609.322, 457.946 594.218, 458.999 575.500 C 459.619 564.474, 460.329 559.953, 462.344 554.218 C 466.631 542.017, 468.217 524.719, 465.895 515.497 C 464.485 509.899, 455.520 499.793, 449.123 496.591 C 439.773 491.911, 421.729 486.878, 388.500 479.679 C 364.989 474.586, 364 474.520, 364 478.038 M 342.334 490.985 C 330.287 496.672, 329.424 496.859, 310.013 497.979 C 297.475 498.703, 293.191 498.588, 287.513 497.379 L 280.500 495.885 276.196 500.598 C 265.745 512.046, 257 538.959, 257 559.678 C 257 564.506, 256.023 564.109, 272.500 565.975 C 295.429 568.572, 318.553 567.188, 348.300 561.440 C 367.614 557.707, 376.141 557.197, 381.532 559.449 C 385.945 561.293, 385.992 562.423, 381.626 561.714 L 378.252 561.167 372.178 573.833 C 358.379 602.607, 356.106 620.783, 363.413 643.913 C 367.210 655.933, 368 664.998, 368 696.533 C 368 731.089, 366.980 742.332, 362.395 758.321 C 356.607 778.503, 355.207 788.851, 357.632 793.523 C 360.450 798.953, 364.925 800.967, 375.640 801.629 C 381.796 802.010, 389.383 803.554, 400.500 806.692 C 409.300 809.175, 418.975 811.883, 422 812.710 C 425.338 813.622, 429.684 814.019, 433.058 813.719 C 436.707 813.394, 439.455 813.689, 441.058 814.577 C 443.911 816.157, 447.880 816.362, 449.974 815.037 C 451.971 813.774, 448.168 809.678, 442 806.449 C 439.525 805.153, 438.199 804.072, 439.054 804.047 C 441.732 803.966, 450.573 808.891, 453.354 812.013 C 456.337 815.361, 461.614 816.170, 462.661 813.440 C 463.421 811.459, 458.764 806.467, 453.750 803.888 C 448.382 801.127, 449.125 800.679, 455.250 802.982 C 458.179 804.084, 461.942 806.513, 463.763 808.478 C 466.933 811.898, 469.153 812.646, 472.418 811.393 C 476.251 809.922, 471.426 804.846, 462.400 800.853 C 456.556 798.268, 457.212 797.577, 463.684 799.499 C 466.638 800.376, 470.631 802.684, 473.375 805.099 C 477.070 808.351, 478.558 809.077, 480.521 808.584 C 485.809 807.257, 481.267 801.930, 470.500 796.834 C 464.730 794.103, 464.653 794.019, 468.500 794.631 C 473.316 795.397, 477.227 797.274, 482.271 801.238 C 485.912 804.100, 486.130 804.145, 488.580 802.539 C 490.570 801.236, 491.051 800.190, 490.809 797.696 C 490.509 794.604, 490.308 794.480, 483.722 793.291 C 479.993 792.619, 474.818 791.118, 472.222 789.956 C 469.625 788.793, 464.077 786.583, 459.892 785.043 C 450.198 781.476, 444.491 777.791, 426.706 763.613 C 409.399 749.817, 408.639 748.540, 406.941 730.374 C 405.376 713.631, 407.687 694.474, 415.131 662.500 C 419.646 643.108, 425.178 614.650, 427.571 598.511 C 428.467 592.467, 430.272 584.817, 431.582 581.511 C 432.893 578.205, 434.658 572.125, 435.504 568 C 436.350 563.875, 437.802 558.250, 438.731 555.500 C 439.914 551.996, 440.431 547.058, 440.459 539 C 440.500 527.565, 440.479 527.460, 436.699 520.388 C 431.818 511.257, 429.174 508.816, 420 504.969 C 399.158 496.231, 386.162 492.362, 364.875 488.559 L 352.251 486.303 342.334 490.985 M 181.860 491.626 C 174.194 497.202, 156.246 515.261, 153.603 520.057 C 152.353 522.324, 156.451 518.838, 165.603 509.847 C 173.246 502.337, 181.878 494.125, 184.783 491.597 C 191.590 485.675, 190.020 485.690, 181.860 491.626 M 205 527.336 C 187.140 537.626, 178.961 544.082, 192.283 537.373 C 199.371 533.804, 214.841 522.945, 212.750 523.007 C 212.613 523.012, 209.125 524.959, 205 527.336 M 419.016 525.056 C 419.039 527.221, 429.281 545.658, 429.723 544.332 C 429.933 543.702, 428.784 540.332, 427.169 536.843 C 423.977 529.946, 418.990 522.736, 419.016 525.056 M 239.500 540.870 C 237.850 541.880, 231.189 545.777, 224.699 549.531 C 213.590 555.956, 210.708 558, 212.754 558 C 215.874 558, 244 541.302, 244 539.449 C 244 538.572, 242.460 539.058, 239.500 540.870 M 354.090 541.119 C 346.778 541.966, 335.077 544.621, 317.500 549.421 C 302.312 553.568, 313.927 552.610, 334.176 548.045 C 343.824 545.870, 356.844 543.525, 363.109 542.834 C 372.963 541.747, 373.960 541.479, 370.500 540.846 C 365.697 539.969, 363.727 540.001, 354.090 541.119 M 95.500 550.988 C 75.150 556.417, 57.375 561.312, 56 561.866 L 53.500 562.873 56 562.921 C 60.993 563.015, 196.580 564.117, 199.423 564.085 C 201.031 564.068, 202.725 563.675, 203.188 563.212 C 203.651 562.749, 197.386 561.822, 189.265 561.152 C 158.335 558.600, 148.491 555.773, 141.036 547.303 C 138.816 544.782, 137 542.332, 137 541.859 C 137 540.154, 131.920 541.271, 95.500 550.988 M 401.005 549.816 C 400.998 551.645, 402.768 554.836, 406.265 559.296 C 409.931 563.972, 410.836 563.501, 408.089 558.347 C 405.495 553.480, 401.012 548.081, 401.005 549.816 M 204.187 565.211 C 200.927 567.225, 199.777 567.255, 131.687 567.108 C 93.634 567.027, 59.913 566.686, 56.750 566.351 L 51 565.742 51 576.260 C 51 592.694, 41.406 590.799, 128.750 591.614 L 203 592.306 203 581.531 C 203 572.066, 203.182 570.907, 204.500 572 C 205.629 572.937, 206 575.459, 206 582.190 C 206 592.712, 204.502 592.442, 221.500 584.984 C 239.982 576.875, 245.434 574.101, 243.927 573.576 C 220.955 565.584, 218.698 564.990, 215.113 565.985 C 210.275 567.329, 209.137 567.212, 211.273 565.591 C 212.937 564.329, 212.906 564.208, 210.773 563.636 C 207.868 562.858, 208.081 562.807, 204.187 565.211 M 258.015 569.133 C 258.052 572.428, 259.661 573.383, 262.908 572.038 C 266.295 570.635, 267.011 569.008, 264.250 568.986 C 263.288 568.979, 261.488 568.701, 260.250 568.370 C 258.717 567.959, 258.005 568.202, 258.015 569.133 M 239.500 580.188 C 234 582.998, 224.325 587.593, 218 590.398 L 206.500 595.500 162.750 595.177 L 119 594.854 119 604.833 L 119 614.812 133.750 615.206 L 148.500 615.599 164.500 610.755 C 173.300 608.091, 189.500 603.261, 200.500 600.023 C 217.318 595.071, 227.666 591.514, 259.250 579.822 C 263.004 578.433, 262.716 576.507, 258.750 576.469 C 256.962 576.452, 254.150 576.132, 252.500 575.758 C 250.075 575.209, 247.582 576.058, 239.500 580.188 M 146.015 604.809 C 146.006 610.764, 146.360 613.895, 147 613.500 C 148.281 612.708, 148.281 598.982, 147 597 C 146.336 595.972, 146.026 598.429, 146.015 604.809 M 218.250 597.800 L 213 599.438 213 658.334 L 213 717.230 215.250 715.804 C 216.488 715.020, 219.188 713.357, 221.250 712.108 L 225 709.837 225 652.918 C 225 621.613, 224.662 596.037, 224.250 596.081 C 223.838 596.126, 221.137 596.900, 218.250 597.800 M 198.500 603.815 L 190.500 606.500 190.242 661.750 L 189.983 717 198.433 717 C 203.080 717, 207.163 717.455, 207.506 718.010 C 207.920 718.679, 201.103 718.985, 187.315 718.914 L 166.500 718.808 166.214 728.404 C 166.056 733.682, 166.281 738.011, 166.714 738.026 C 212.529 739.514, 262.668 740.955, 269.336 740.974 L 278.172 741 277.946 737.250 C 277.504 729.909, 278.015 723, 279 723 C 279.593 723, 280 726.667, 280 732 C 280 741.848, 280.029 741.890, 284.784 738.991 C 289.043 736.394, 289.128 736.088, 288.788 724.635 L 288.500 714.911 285 717.542 C 279.190 721.909, 278.512 721.967, 245.318 720.916 C 218.481 720.067, 213.283 719.661, 211.780 718.301 C 210.113 716.792, 210 713.032, 210 658.845 C 210 604.396, 209.897 601.004, 208.250 601.065 C 207.287 601.101, 202.900 602.339, 198.500 603.815 M 397.676 613.500 C 396.684 617.900, 394.767 624.875, 393.417 629 C 391.134 635.976, 389.944 638.415, 382.533 651.302 C 378.202 658.831, 380.260 657.882, 385.565 649.903 C 392.891 638.883, 400.573 616.505, 399.778 608.500 C 399.562 606.322, 398.986 607.692, 397.676 613.500 M 175 610.858 L 166.500 613.561 166.500 660.531 L 166.500 707.500 176.750 707.785 L 187 708.070 187 658.035 C 187 611.020, 186.894 608.005, 185.250 608.078 C 184.287 608.120, 179.675 609.372, 175 610.858 M 155.412 616.807 L 150.324 618.382 149.692 698.887 C 149.344 743.165, 149.235 779.568, 149.450 779.783 C 149.665 779.998, 152.793 778.447, 156.401 776.337 L 162.962 772.500 162.981 693.750 C 162.996 631.345, 162.741 615.024, 161.750 615.116 C 161.063 615.181, 158.210 615.941, 155.412 616.807 M 123 699.914 L 123 780.828 134.750 781.188 C 141.213 781.386, 146.500 781.537, 146.500 781.524 C 146.500 781.511, 146.377 744.938, 146.227 700.250 L 145.954 619 134.477 619 L 123 619 123 699.914 M 379.678 704.203 C 378.292 709.863, 375.896 729.180, 376.208 732.181 C 376.726 737.171, 378.708 727.389, 379.978 713.575 C 380.951 702.994, 380.838 699.467, 379.678 704.203 M 419.750 708.875 C 419.337 710.731, 419.029 714.106, 419.063 716.375 C 419.121 720.102, 419.221 720.263, 420.108 718.041 C 420.648 716.689, 420.957 713.314, 420.795 710.541 C 420.513 705.727, 420.466 705.652, 419.750 708.875 M 166 713.500 C 166 715.721, 166.419 716.001, 169.750 716.007 C 171.813 716.011, 176.537 716.301, 180.250 716.652 L 187 717.289 187 714.145 L 187 711 176.500 711 L 166 711 166 713.500 M 221.760 714.294 C 219.703 715.507, 218.015 716.766, 218.010 717.091 C 217.999 717.720, 251.737 718.993, 268.518 718.997 C 277.817 719, 278.822 718.803, 282.518 716.250 L 286.500 713.500 272.500 712.872 C 240.815 711.451, 225.871 711.870, 221.760 714.294 M 371.250 754.193 C 368.955 762.810, 371.155 767.487, 378 768.541 C 381.082 769.016, 381.277 768.926, 379.631 767.790 C 373.723 763.711, 373.512 763.347, 373 756.339 L 372.500 749.500 371.250 754.193 M 53.765 773.299 C 50.612 775.060, 48.024 776.770, 48.015 777.100 C 48.007 777.430, 62.737 778.234, 80.750 778.887 C 98.763 779.539, 114.963 780.253, 116.750 780.473 C 119.923 780.865, 120 780.783, 120 777.025 C 120 772.191, 120.479 772.278, 89.500 771.494 C 76.850 771.175, 64.925 770.730, 63 770.506 C 60.407 770.204, 58.015 770.928, 53.765 773.299 M 158.187 777.958 L 151.873 781.693 163.687 782.337 C 170.184 782.691, 184.725 783.251, 196 783.581 L 216.500 784.180 221.245 780.719 L 225.990 777.257 219.245 776.657 C 215.535 776.326, 202.600 775.794, 190.500 775.474 C 178.400 775.153, 167.600 774.741, 166.500 774.557 C 165.400 774.373, 161.659 775.903, 158.187 777.958 M 224.575 781.463 C 217.348 787.371, 217.539 787.353, 181.379 785.520 C 163.296 784.603, 146.700 783.679, 144.500 783.468 C 142.300 783.256, 133.975 783.042, 126 782.993 C 118.025 782.943, 97.550 782.257, 80.500 781.469 C 63.450 780.680, 48.213 780.027, 46.639 780.017 L 43.779 780 44.153 790.930 C 44.359 796.942, 44.783 802.116, 45.096 802.429 C 45.409 802.742, 63.178 803.673, 84.582 804.498 C 160.423 807.421, 197.616 808.968, 206.899 809.585 L 216.298 810.209 215.641 803.801 C 214.917 796.731, 215.820 787.420, 217.106 788.706 C 217.556 789.156, 218.054 794.137, 218.212 799.774 L 218.500 810.024 223.750 806.485 L 229 802.947 229 790.973 C 229 784.388, 228.662 779.016, 228.250 779.036 C 227.838 779.056, 226.184 780.148, 224.575 781.463" stroke="none" fill="#333" fill-rule="evenodd"/>
</svg>