<svg width="179pt" height="275pt" viewBox="0 0 560 859" xmlns="http://www.w3.org/2000/svg">
	<rect x="0" y="0" width="100%" height="100%" fill="#FFF" />
	<g transform="scale(0.5)"><path d="M 374.500 85.957 C 321.434 95.473, 296.867 120.175, 290.915 170 C 288.354 191.444, 291.987 206.853, 307.566 240.615 C 322.902 273.850, 325.982 285.283, 325.994 309.026 C 326.009 338.847, 322.883 347.005, 301.842 372.055 C 288.015 388.517, 282.368 395.996, 273.518 409.570 C 269.463 415.790, 263.144 424.843, 259.478 429.689 C 245.724 447.867, 237.717 468.604, 236 490.500 C 235.482 497.100, 233.725 509.025, 232.095 517 C 226.705 543.377, 227.068 557.384, 233.649 576.969 L 237.188 587.500 235.957 610.647 C 234.165 644.377, 235.485 656.180, 245.897 699.500 C 253.011 729.098, 254.965 742.460, 255.969 768.378 C 257.148 798.804, 257.266 799.068, 279.536 821 L 292.229 833.500 291.740 845.500 C 291.356 854.917, 290.693 859.114, 288.658 865 C 287.233 869.125, 285.143 877.111, 284.015 882.747 C 282.857 888.528, 280.274 896.833, 278.086 901.805 C 268.042 924.629, 262.561 951.959, 259.898 992.500 C 258.064 1020.409, 259.948 1039.598, 266.518 1059.920 C 271.374 1074.940, 271.185 1076, 263.659 1076 C 255.650 1076, 152.471 1103.382, 116.448 1115.067 C 100.091 1120.373, 97.099 1123.669, 95.049 1138.645 C 93.606 1149.179, 95.189 1171.691, 97.737 1176.882 C 102.590 1186.768, 109.952 1187.688, 199.176 1189.558 L 231.853 1190.243 232.176 1210.051 C 232.484 1228.866, 232.613 1230, 234.759 1232.680 C 239.734 1238.891, 239.506 1231.498, 239.409 1383.500 C 239.360 1462.150, 238.995 1528.638, 238.598 1531.250 L 237.877 1536 226.689 1536.011 C 220.535 1536.018, 193.830 1535.286, 167.344 1534.386 L 119.189 1532.749 106.622 1539.415 C 83.904 1551.468, 84.489 1550.380, 84.537 1580.500 C 84.561 1595.628, 84.970 1604.413, 85.731 1606.167 C 87.974 1611.339, 86.318 1611.233, 263 1617.507 C 332.575 1619.977, 400.246 1622.441, 413.380 1622.981 L 437.261 1623.963 446.523 1618.512 C 463.944 1608.259, 464.335 1607.246, 463.833 1573.647 C 463.442 1547.521, 463.196 1546.711, 455.323 1545.630 C 447.432 1544.546, 419.111 1543.089, 375.086 1541.500 C 352.309 1540.678, 333.566 1539.892, 333.435 1539.753 C 333.304 1539.614, 332.866 1526.290, 332.462 1510.144 L 331.726 1480.788 349.613 1481.420 C 406.085 1483.415, 489.507 1485.343, 522.500 1485.416 C 565.384 1485.511, 563.137 1485.859, 574.107 1477.418 L 580.171 1472.751 579.836 1446.910 C 579.559 1425.572, 579.239 1420.814, 578 1419.606 C 576.358 1418.005, 547.696 1416.694, 485.750 1415.386 L 454 1414.715 454.005 1301.608 L 454.010 1188.500 467.755 1183.646 C 506.233 1170.056, 524.426 1161.616, 527.047 1156.140 C 529.092 1151.868, 532.993 1147.830, 540.743 1141.963 L 547.113 1137.140 575.807 1137.244 C 609.407 1137.366, 618.783 1136.505, 671 1128.509 C 723.558 1120.460, 745 1118.141, 745 1120.503 C 745 1120.779, 741.822 1127.813, 737.938 1136.132 C 708.958 1198.209, 703.588 1236.296, 717.107 1283.871 C 725.060 1311.859, 726.542 1333.682, 725.669 1410 C 724.934 1474.300, 724.339 1479.600, 713.371 1519.483 C 704.532 1551.626, 701.171 1573.928, 703.914 1582.240 C 705.361 1586.625, 712.001 1594.345, 717.088 1597.555 C 723.727 1601.747, 732.710 1604.109, 745.770 1605.097 C 761.580 1606.294, 775.511 1609.267, 806.525 1618.061 C 848.633 1630.002, 858.055 1631.332, 897 1630.829 C 921.111 1630.518, 922.759 1630.376, 927.253 1628.223 C 929.868 1626.971, 934.143 1625.537, 936.753 1625.035 C 939.364 1624.534, 944.548 1622.971, 948.273 1621.562 C 951.998 1620.153, 955.958 1619, 957.072 1619 C 959.852 1619, 963.840 1616.814, 969.082 1612.416 C 971.512 1610.378, 974.850 1608.137, 976.500 1607.437 C 982.265 1604.990, 988.034 1596.619, 987.978 1590.782 C 987.896 1582.244, 981.177 1576.481, 969.595 1575.012 C 946.376 1572.068, 902.146 1552.195, 876.712 1533.278 C 871.879 1529.684, 868.104 1526.562, 868.324 1526.342 C 868.544 1526.122, 874.524 1525.925, 881.612 1525.904 C 897.078 1525.859, 907.296 1527.727, 918.500 1532.649 C 944.515 1544.076, 959.741 1546.924, 978.039 1543.787 C 984.099 1542.747, 986.311 1542.819, 993.439 1544.287 C 1010.704 1547.840, 1025.514 1545.486, 1033.002 1537.998 C 1045.954 1525.046, 1032.696 1512.176, 991.885 1498.087 C 960.682 1487.315, 954.819 1484.359, 934.500 1469.158 C 911.850 1452.213, 896.570 1437.481, 890.676 1426.904 L 887 1420.308 887.009 1392.904 C 887.025 1341.424, 888.602 1330.093, 905.501 1260 C 916.141 1215.869, 919.988 1192.914, 923.516 1152.500 C 925.261 1132.513, 927.222 1119.334, 931.403 1099.500 C 938.718 1064.794, 938.981 1029.108, 932.009 1017.290 C 923.956 1003.641, 899.069 982.879, 883.586 976.892 C 865.044 969.723, 824.384 958.219, 786.500 949.424 C 775.500 946.871, 766.279 944.572, 766.008 944.316 C 765.353 943.695, 768.078 942.163, 776.500 938.420 C 791.509 931.749, 826.521 909.734, 831.463 903.862 C 834.415 900.354, 834.568 893.594, 831.771 890.224 C 828.942 886.816, 801.371 890.794, 787.073 896.672 C 773.058 902.434, 757.063 902.852, 740.358 897.893 C 732.402 895.531, 732.337 894.740, 740 893.492 C 758.403 890.495, 766.152 884.052, 762.966 874.397 C 760.957 868.309, 756.206 866.915, 734.080 865.922 C 722.447 865.400, 711.387 864.286, 704.500 862.942 C 684.330 859.008, 673.880 860.418, 647.697 870.602 L 642.894 872.471 635.262 868.542 C 618.286 859.803, 599.735 845.884, 578.500 825.953 C 561.476 809.974, 552.279 802.220, 546.348 798.849 C 540.070 795.279, 540.283 796.093, 539.457 772.500 C 538.867 755.619, 539.021 752.385, 540.839 743.500 C 544.303 726.574, 545.697 712.354, 548.388 666.500 C 549.799 642.462, 549.438 633.924, 546.550 623.038 C 544.585 615.633, 544.709 614.568, 548.884 602.955 C 554.392 587.638, 554.070 569.061, 547.983 550.822 C 539.987 526.867, 515.008 485.123, 492.439 458 C 487.633 452.225, 481.322 444.125, 478.414 440 C 470.640 428.971, 468.279 426.490, 460.039 420.692 C 446.929 411.467, 445.665 404.933, 452.551 382 C 457.470 365.618, 459.947 354.575, 459.976 348.899 C 460.007 343.033, 461.673 338.239, 463.930 337.522 C 464.899 337.215, 468.799 337.599, 472.596 338.377 C 488.664 341.669, 507.625 341.161, 514.285 337.261 C 520.126 333.839, 521.191 331.246, 522.052 318.336 C 522.486 311.826, 523.528 303.800, 524.368 300.500 C 525.764 295.012, 526.825 286.917, 528.521 268.803 C 529.143 262.153, 529.174 262.098, 532.824 260.918 C 549.480 255.533, 549.510 251.033, 533.087 220.193 C 522.298 199.931, 522.297 199.927, 521.658 182.500 C 519.849 133.171, 493.945 100.559, 447.805 89.523 C 424.233 83.885, 394.201 82.424, 374.500 85.957 M 374.500 93.496 C 327.314 101.816, 304.839 124.195, 298.908 168.768 C 296.039 190.323, 299.902 206.544, 316.451 242.432 C 333.455 279.306, 337.001 298.331, 332.494 328.500 C 329.575 348.039, 327.041 352.954, 308 376.011 C 288.686 399.397, 283.327 406.749, 278.330 416.716 C 274.933 423.492, 272.459 426.986, 268.986 429.915 C 256.541 440.409, 247.196 463.263, 243.512 492.215 C 242.652 498.972, 240.871 509.900, 239.553 516.500 C 236.460 531.992, 235.529 546.963, 236.901 559.151 C 238.066 569.509, 238.757 572.268, 239.991 571.505 C 241.328 570.679, 241.977 565.111, 243.489 541.495 C 245.222 514.432, 246.557 510.656, 248.965 526 C 250.785 537.600, 250.121 552.926, 246.575 581.197 C 240.226 631.801, 240.998 649.070, 251.484 691 C 259.773 724.145, 262.660 742.667, 263.911 770.713 C 265.107 797.537, 263.713 795.064, 294.737 825.390 C 358.946 888.152, 363.350 891.298, 433.500 924.491 C 471.002 942.235, 482.096 947.979, 492.738 955.160 C 503.793 962.620, 508.599 964.437, 529 968.872 C 539.175 971.084, 551.670 974.012, 556.767 975.379 C 567.467 978.249, 567.773 977.171, 557.611 972.410 C 549.240 968.489, 541.960 964.076, 543.788 964.031 C 545.973 963.978, 561.833 970.422, 576 977.118 L 589.500 983.500 610 983.833 C 651.352 984.505, 666.686 981.949, 694.500 969.747 C 703.850 965.645, 713.615 961.496, 716.201 960.527 C 723.053 957.959, 724.777 955.777, 722.081 953.081 C 717.851 948.851, 706.151 950.874, 691.336 958.397 C 688.495 959.839, 683.770 961.470, 680.836 962.022 C 677.901 962.573, 672.625 963.976, 669.111 965.140 C 661.465 967.672, 641.792 967.362, 631.500 964.547 C 622.861 962.184, 606.468 953.886, 599.227 948.211 C 593.307 943.571, 591.604 943.005, 583.316 942.923 C 579.017 942.881, 573.700 942.300, 571.500 941.633 L 567.500 940.420 573.566 938.710 C 581.516 936.469, 588.244 936.553, 602.651 939.073 C 615.955 941.401, 635.297 942.010, 638.635 940.206 C 641.016 938.920, 642.404 934.848, 641.468 931.898 C 640.492 928.825, 634.065 926.219, 621.845 923.942 C 607.051 921.184, 594.322 917.653, 585.978 913.990 C 576.092 909.651, 568.622 907.997, 559.040 908.024 C 548.450 908.055, 544.375 908.977, 532.584 914.015 C 521.381 918.802, 520.879 918.853, 521.622 915.140 C 522.155 912.473, 521.756 912.036, 515.698 908.648 C 501.171 900.524, 468.064 875.007, 456.944 863.364 C 453.338 859.589, 444.823 849.300, 438.020 840.500 C 412.859 807.948, 406.410 801.334, 380.249 781.248 C 362.024 767.256, 358.265 762.995, 350.068 747.037 C 343.003 733.282, 343.519 729.471, 350.920 740.750 C 353.897 745.288, 356.596 748.989, 356.916 748.976 C 357.754 748.942, 365.833 730.767, 368.687 722.500 C 378.400 694.355, 383.383 657.241, 383.455 612.500 C 383.511 577.449, 382.780 575.271, 374.568 586.040 C 368.232 594.347, 366.979 592.002, 372.313 581.823 C 376.354 574.113, 397.709 541.631, 399.042 541.167 C 400.475 540.668, 400.198 545.188, 398.500 550 C 395.470 558.588, 396.974 558.964, 408.149 552.412 C 412.453 549.889, 416.543 548.039, 417.237 548.300 C 418.804 548.890, 408.839 558.491, 403.019 562 C 394.607 567.071, 394.281 567.482, 396.140 570.680 C 398.366 574.508, 423.007 597.251, 430.281 602.191 C 445.231 612.343, 455.991 615.197, 480 615.377 C 495.838 615.495, 496.849 615.381, 505.198 612.531 C 514.307 609.422, 515.882 609.484, 514.063 612.883 C 509.612 621.198, 480.877 626.262, 461.500 622.147 C 438.633 617.290, 424.952 609.161, 400.750 586.053 L 390 575.789 389.995 604.144 C 389.985 669.991, 385.316 701.777, 370.410 737.500 C 365.456 749.370, 364.910 755.471, 368.286 761.207 C 370.735 765.367, 372.684 766.992, 393.644 782.345 C 405.411 790.965, 418.987 805.138, 436.438 827.022 C 455.169 850.511, 467.214 864.207, 474.807 870.649 L 481.114 876 497.807 875.944 C 522.321 875.861, 523.351 875.249, 524.496 860.086 C 524.853 855.364, 526.465 840.434, 528.078 826.910 C 530.113 809.851, 531.299 793.765, 531.952 774.390 C 532.686 752.597, 533.340 744.452, 534.929 737.318 C 536.981 728.107, 537.994 718.292, 540.019 688 C 540.625 678.925, 541.525 669.475, 542.017 667 C 543.764 658.221, 543.120 642.185, 540.510 629.500 C 537.647 615.583, 537.463 611.939, 539.433 608.130 C 541.504 604.125, 544.999 589.819, 545.675 582.582 C 547.959 558.114, 522.951 506.519, 487.955 463.500 C 483.481 458, 477.144 449.900, 473.873 445.500 C 470.601 441.100, 466.845 436.097, 465.525 434.381 C 464.204 432.666, 460.018 429.216, 456.221 426.715 C 439.883 415.951, 437.166 404.189, 445.435 380.023 C 449.163 369.131, 451.090 360.043, 453.048 344.128 C 454.482 332.474, 454.941 333.009, 437.500 326.013 C 414.895 316.946, 407.578 312.169, 402.802 303.359 C 400.303 298.750, 397 288.074, 397 284.606 C 397 282.449, 398.927 282.556, 399.599 284.750 C 402.073 292.820, 409.915 303.590, 416.784 308.350 C 424.850 313.940, 456.568 325.991, 477.859 331.554 C 492.541 335.391, 506.938 334.567, 512.316 329.583 C 515.026 327.071, 515.336 325.517, 517.512 303.500 C 518.382 294.700, 519.747 285.281, 520.547 282.568 C 521.378 279.748, 522 273.494, 522 267.957 L 522 258.278 527.732 256.084 C 540.684 251.128, 540.377 247.140, 524.992 220.486 C 515.986 204.884, 515.865 204.479, 514.864 186.646 C 511.761 131.360, 489.172 104.811, 436.805 94.906 C 422.110 92.126, 386.801 91.328, 374.500 93.496 M 372.900 200.991 C 359.459 208.096, 357.153 225.488, 367.054 245.105 C 375.124 261.096, 394.163 272.547, 402.056 266.156 C 405.560 263.318, 404.085 261.045, 399.167 261.704 C 390.980 262.803, 377.701 251.958, 371.786 239.344 C 361.985 218.443, 372.676 198.678, 389.454 206.679 C 393.445 208.583, 394.652 208.087, 393.098 205.183 C 390.268 199.895, 379.286 197.616, 372.900 200.991 M 386 326.361 C 386 332.246, 415.563 399.631, 416.703 396.345 C 417.788 393.214, 390.406 328.605, 387.137 326.585 C 386.512 326.198, 386 326.098, 386 326.361 M 313.388 413.319 C 301.276 417.935, 292.563 424.584, 302.750 421.437 C 311.685 418.677, 316.511 417.841, 330.500 416.634 L 344.500 415.426 341 413.524 C 335.344 410.452, 321.186 410.347, 313.388 413.319 M 388 413.864 C 388 415.577, 403.119 420.266, 423.500 424.875 C 446.001 429.964, 454.035 430.057, 443.504 425.107 C 429.953 418.737, 388 410.239, 388 413.864 M 372 419.581 C 372 419.901, 374.652 423.838, 377.893 428.331 C 385.449 438.804, 389.175 446.296, 395.136 463 L 399.954 476.500 399.383 469.500 C 397.999 452.545, 392.303 437.170, 383.847 427.564 C 379.192 422.275, 372 417.429, 372 419.581 M 484 474.680 C 484 475.054, 487.793 482.367, 492.429 490.930 C 519.688 541.279, 528.825 578.172, 519.500 600.242 C 516.340 607.722, 516.675 609.348, 520.766 606.388 C 535.690 595.591, 531.517 557.093, 510.954 515.859 C 501.300 496.501, 484 470.071, 484 474.680 M 276.579 549.666 C 279.048 560.287, 287.782 574.845, 297.322 584.238 C 308.595 595.337, 307.059 591.533, 289.890 565.836 C 277.556 547.376, 275.452 544.820, 276.579 549.666 M 528.638 639.063 C 527.669 643.905, 527.876 666.805, 528.894 667.434 C 530.706 668.554, 533 660.001, 533 652.129 C 533 641.396, 529.980 632.351, 528.638 639.063 M 254.306 644.614 C 255.161 652.737, 257.823 659.939, 264.863 673.180 C 268.173 679.406, 272.286 688.325, 274.002 693 C 278.791 706.048, 280.885 706.804, 279.063 694.828 C 277.402 683.909, 274.675 676.645, 267.863 664.995 C 264.488 659.223, 260.551 651.160, 259.113 647.077 C 255.732 637.475, 253.431 636.295, 254.306 644.614 M 411 643.025 C 411 645.791, 420.837 651.712, 428.250 653.409 C 433.134 654.527, 431.182 652.241, 423.750 648.139 C 414.911 643.261, 411 641.693, 411 643.025 M 512.961 669.203 C 505.643 673.376, 497 679.818, 497 681.099 C 497 684.284, 514.334 674.472, 517.651 669.410 C 520.033 665.774, 519.049 665.730, 512.961 669.203 M 403 669.926 C 403 673.255, 416.949 680.733, 424.923 681.677 C 432.085 682.526, 431.281 681.463, 421.250 676.825 C 408.907 671.118, 403 668.885, 403 669.926 M 471 674.522 C 471 674.809, 472.836 678.697, 475.081 683.161 C 480.034 693.011, 480.122 694.430, 476.704 709.120 C 471.982 729.415, 473.421 734.080, 478.981 716.500 C 483.367 702.633, 484.066 692.009, 480.989 685.978 C 477.651 679.434, 471 671.807, 471 674.522 M 528.641 683.014 C 528.357 684.381, 527.880 693.375, 527.581 703 C 527.282 712.625, 526.745 721.625, 526.388 723 C 525.796 725.276, 525.883 725.363, 527.362 723.971 C 529.807 721.670, 531.276 711.998, 531.383 697.500 C 531.478 684.706, 529.957 676.672, 528.641 683.014 M 513.341 753.858 C 506.103 758.536, 504.628 761, 509.064 761 C 515.260 761, 522.552 756.094, 521.838 752.407 C 521.275 749.505, 519.645 749.783, 513.341 753.858 M 472.458 760.341 C 471.457 762.825, 472.633 780.033, 473.889 781.289 C 476.311 783.711, 476.426 766.849, 474.029 760.646 C 473.256 758.645, 473.150 758.624, 472.458 760.341 M 286.688 760.646 C 283.442 763.891, 290.695 785.113, 297.499 792.281 C 303.275 798.367, 342.771 819.563, 344.714 817.620 C 345.263 817.070, 338.905 812.712, 327.251 805.649 C 308.547 794.314, 304.431 791.202, 300.280 785.259 C 294.884 777.533, 291.010 769.667, 290.166 764.724 C 289.497 760.808, 288.129 759.204, 286.688 760.646 M 520.542 792.750 C 517.307 801.168, 516.014 818.269, 518.368 821.489 C 520.506 824.412, 521.852 820.862, 523.194 808.764 C 524.625 795.868, 523.034 786.264, 520.542 792.750 M 538.886 806.750 C 535.585 815.281, 532.878 835.932, 532.691 854 C 532.556 867.106, 534.583 877.780, 538.957 887 C 540.943 891.187, 555.751 897.837, 570.023 900.952 C 574.947 902.027, 586.294 905.429, 595.238 908.512 C 604.182 911.596, 616.225 915.240, 622 916.611 C 636.768 920.117, 642.516 922.924, 648.505 929.557 C 655.564 937.375, 664.178 938.607, 692.843 935.898 C 703.010 934.937, 705.267 935.013, 710.500 936.493 C 719.544 939.050, 750.202 939.737, 759.363 937.587 C 776.132 933.652, 817 911.496, 817 906.339 C 817 902.061, 798.226 908.708, 791.602 915.332 C 789.181 917.752, 786.826 919.014, 783.816 919.504 C 781.442 919.891, 774.550 921.841, 768.500 923.837 C 756.106 927.927, 742.390 928.699, 728.750 926.073 C 717.922 923.989, 720.857 923, 737.872 923 C 759.630 923, 767.610 920.968, 790.500 909.599 C 809.591 900.117, 812.301 899.337, 818.089 901.652 C 821.218 902.904, 822.662 903.019, 824.533 902.167 C 827.099 900.998, 828.863 896.463, 827.343 894.943 C 825.510 893.110, 799.168 897.830, 790 901.635 C 768.524 910.546, 752.171 909.755, 727.822 898.626 C 706.960 889.090, 706.893 887, 727.451 887 C 749.200 887, 758.630 884.404, 757.804 878.644 C 757.300 875.125, 753.417 874.187, 729.959 871.919 C 683.671 867.444, 668.854 868.509, 650.787 877.607 L 643.853 881.099 632.191 874.921 C 610.674 863.522, 595.628 852.326, 574 831.618 C 554.610 813.053, 543.739 804, 540.836 804 C 540.349 804, 539.472 805.237, 538.886 806.750 M 472.466 817.500 C 473.470 834.446, 477.044 852.356, 479.026 850.374 C 480.531 848.869, 475.089 812.748, 472.793 809 C 472.219 808.063, 472.096 811.254, 472.466 817.500 M 299.643 849.481 C 298.767 860.876, 299.299 862.709, 303.854 863.983 C 309.886 865.671, 324.144 868.190, 324.672 867.661 C 325.211 867.122, 311.887 852.088, 304.758 845.191 L 300.304 840.882 299.643 849.481 M 293.951 873.091 C 293.336 874.241, 292.581 878.497, 292.275 882.548 C 291.608 891.363, 291.295 891.122, 306.385 893.386 C 322.205 895.760, 321.224 897.376, 304.439 896.590 L 290.379 895.931 285.745 905.715 C 278.485 921.047, 274.175 937.602, 270.313 965 C 267.830 982.614, 267.750 1033.144, 270.189 1043.644 C 275.469 1066.377, 288.089 1085.524, 304.232 1095.294 C 316.144 1102.504, 324.692 1104.275, 375.500 1110.060 C 424.393 1115.627, 432.054 1117.403, 476.396 1133.454 C 493.938 1139.804, 508.380 1145, 508.488 1145 C 508.596 1145, 508.965 1136.274, 509.308 1125.609 C 511.045 1071.618, 526.006 1025.417, 552.403 992.526 C 559.020 984.282, 559.178 983.391, 554.250 982.078 C 546.838 980.102, 533.264 977.106, 520.391 974.605 C 504.809 971.577, 503.808 971.227, 493.508 965.201 C 480.226 957.431, 473.345 958.823, 450.105 973.976 C 437.515 982.186, 435.949 982.667, 442.042 976.454 C 447.055 971.343, 457.981 963.543, 465.500 959.709 C 475.992 954.359, 476.115 953.119, 466.630 948.312 C 450.186 939.980, 423.989 959.566, 392.777 1003.529 C 379.653 1022.015, 377.459 1022.729, 386.216 1005.665 C 400.480 977.871, 418.266 958.032, 438.691 947.132 C 448.522 941.885, 449.366 940.758, 445.113 938.559 C 426.791 929.084, 363.502 955.566, 310.541 994.867 C 304.514 999.340, 299.226 1003, 298.791 1003 C 296.780 1003, 298.719 1000.416, 308.115 990.575 C 318.902 979.276, 318.818 979.474, 315.888 972.266 C 314.773 969.522, 314.839 967.493, 316.329 958.858 C 318.604 945.670, 318.511 945.581, 306.746 949.715 C 301.714 951.483, 297.421 952.754, 297.205 952.539 C 296.307 951.640, 305.735 945.844, 309.732 944.837 C 315.191 943.463, 315.605 942.592, 316.309 931 C 316.948 920.492, 319.928 907.932, 323.283 901.613 C 325.377 897.667, 325.479 897.607, 325.789 900.140 C 325.966 901.592, 325.436 905.417, 324.611 908.640 C 321.526 920.687, 319.568 971.915, 322.096 974.432 C 322.969 975.301, 328.677 972.717, 339.206 966.688 C 369.150 949.541, 386.402 942.235, 413.914 935.052 C 427.941 931.389, 428.699 930.750, 421.840 928.360 C 417.175 926.735, 413.821 926.533, 395.314 926.758 C 383.629 926.900, 373.880 926.614, 373.575 926.121 C 372.715 924.730, 376.386 924.053, 391.500 922.816 C 399.200 922.187, 405.845 921.377, 406.267 921.019 C 407.536 919.939, 377.999 906.172, 371 904.581 C 367.425 903.768, 358.875 902.379, 352 901.494 C 326.453 898.207, 323.695 895.409, 347.114 896.538 C 355.543 896.945, 361.983 896.875, 361.960 896.378 C 361.913 895.340, 339.002 878.999, 334.148 876.541 C 332.134 875.521, 324.354 874.084, 314.648 872.940 C 294.600 870.577, 295.299 870.572, 293.951 873.091 M 522 880.019 C 520.075 880.469, 512.683 881.329, 505.573 881.929 C 498.463 882.530, 492.460 883.207, 492.233 883.434 C 491.553 884.113, 513.539 899.250, 520.261 902.730 C 527.106 906.274, 531.717 906.901, 532.670 904.418 C 533.352 902.641, 530.247 883.460, 528.839 880.750 C 527.852 878.851, 527.266 878.788, 522 880.019 M 646.294 887.322 C 648.447 889.077, 671.848 897.485, 672.570 896.763 C 673.410 895.924, 663.840 890.302, 658.597 888.554 C 651.318 886.128, 643.920 885.387, 646.294 887.322 M 697.271 905.539 C 691.242 908.640, 685.002 912.293, 683.405 913.655 L 680.500 916.133 683.500 915.541 C 690.952 914.069, 710.684 902.406, 708.866 900.547 C 708.518 900.191, 703.300 902.437, 697.271 905.539 M 737.120 913.855 C 735.215 915.131, 743.928 916.917, 755.887 917.703 C 763.664 918.214, 765.193 918.080, 764.808 916.924 C 764.049 914.646, 739.931 911.972, 737.120 913.855 M 644.108 944.667 L 638.716 948.482 626.108 949.034 L 613.500 949.585 617.500 951.503 C 622.432 953.868, 638.236 954.716, 646.274 953.047 C 649.280 952.423, 655.061 950.291, 659.120 948.309 L 666.500 944.705 662 943.321 C 652.272 940.328, 649.999 940.499, 644.108 944.667 M 666 950.174 L 650.500 958.128 640.655 958.721 C 629.579 959.388, 629.638 960.751, 640.782 961.685 C 653.064 962.715, 677.323 958.345, 690.489 952.732 C 694.345 951.088, 700.416 948.704, 703.980 947.433 C 711.129 944.884, 712.478 943.409, 708.559 942.426 C 705.351 941.620, 698.708 943.747, 685 949.970 C 666.050 958.571, 658.980 959.526, 672.659 951.636 C 681.411 946.588, 683.866 944.430, 682.408 943.067 C 681.896 942.589, 674.734 945.691, 666 950.174 M 723 944.905 C 723 945.482, 724.056 946.646, 725.346 947.491 C 730.333 950.759, 731.293 956.797, 727.439 960.652 C 726.031 962.060, 725.052 963.385, 725.263 963.597 C 725.475 963.808, 734.763 965.781, 745.905 967.981 C 793.755 977.430, 847.990 996.296, 861.625 1008.235 C 866.521 1012.522, 873.816 1023.782, 880.834 1037.887 L 886.500 1049.273 886.416 1069.387 C 886.299 1097.396, 882.891 1116.871, 872.485 1149 C 866.540 1167.355, 864.820 1174.668, 860.021 1202 C 854.760 1231.966, 848.708 1260.824, 839.889 1298 C 818.994 1386.086, 817.477 1396.035, 818.278 1439.683 C 819.081 1483.430, 822.786 1492.253, 848.500 1511.654 L 856.500 1517.690 877 1518.338 C 904.545 1519.209, 911.711 1520.737, 929.500 1529.536 C 944.819 1537.113, 955.602 1538.699, 977.522 1536.598 C 984.688 1535.911, 988.559 1536.096, 996.344 1537.498 C 1012.365 1540.382, 1026.298 1537.830, 1029.191 1531.481 C 1031.137 1527.209, 1029.353 1525.966, 1013.431 1520.496 C 1005.219 1517.674, 996.250 1514.333, 993.500 1513.070 C 982.232 1507.897, 997.769 1509.975, 1012.350 1515.591 C 1022.650 1519.558, 1025.496 1519.946, 1018.830 1516.475 C 1012.247 1513.047, 1001.983 1509.063, 981.358 1501.932 C 954.816 1492.754, 951.489 1490.842, 919.103 1466.156 C 896.234 1448.723, 891.082 1443.698, 886.549 1434.402 C 879.957 1420.882, 879.794 1420.093, 879.255 1399 C 878.126 1354.824, 882.458 1322.890, 898.518 1257 C 909.924 1210.201, 912.432 1195.285, 915.502 1156 C 917.491 1130.554, 918.599 1122.431, 921.593 1111.336 C 925.558 1096.646, 928.039 1077.260, 928.695 1055.842 C 929.637 1025.068, 928.589 1021.785, 912.830 1006.135 C 892.796 986.238, 883.192 981.788, 829.287 967.428 C 769.651 951.542, 723 941.656, 723 944.905 M 385.989 971.357 C 368.407 983.163, 323.164 1029.497, 326.227 1032.561 C 326.535 1032.869, 334.373 1025.723, 343.644 1016.681 C 363.988 996.840, 393.603 967, 392.950 967 C 392.691 967, 389.558 968.961, 385.989 971.357 M 705.500 971.723 C 704.400 971.992, 698.325 974.599, 692 977.514 C 667.375 988.866, 659.194 990.278, 617.500 990.366 C 588.290 990.427, 587.237 990.360, 577.500 987.822 L 567.500 985.214 563.272 989.857 C 545.931 1008.902, 529.279 1044.068, 522.593 1075.760 C 517.783 1098.565, 514.648 1124.985, 516.750 1125.008 C 517.163 1125.013, 522.673 1125.699, 528.995 1126.535 C 568.746 1131.786, 610.171 1130.158, 670 1120.994 C 684.025 1118.845, 703.574 1116.172, 713.442 1115.052 C 723.310 1113.932, 731.838 1112.562, 732.392 1112.008 C 733.650 1110.750, 735.060 1110.934, 717.784 1110.106 C 699.441 1109.228, 696.762 1107.920, 709.118 1105.875 C 723.799 1103.445, 757.507 1108.516, 766.697 1114.537 C 770.304 1116.900, 769.422 1117.752, 764.250 1116.901 C 761.638 1116.471, 758.705 1116.092, 757.734 1116.060 C 756.431 1116.016, 754.248 1119.601, 749.398 1129.750 C 721.995 1187.093, 719.559 1196.016, 719.565 1239 L 719.569 1266.500 722.901 1278.500 C 732.438 1312.846, 733.962 1328.277, 733.962 1390.500 C 733.962 1455.908, 731.967 1476.112, 721.521 1516.500 C 704.508 1582.281, 707.142 1593.046, 741.233 1597.047 C 762.144 1599.501, 777.219 1602.411, 795.847 1607.591 C 846.079 1621.557, 849.270 1622.247, 863.201 1622.145 C 874.411 1622.064, 876.674 1622.343, 882.474 1624.526 C 889.785 1627.278, 892.695 1627.552, 896.453 1625.839 C 902.317 1623.167, 896.981 1617.026, 879.750 1606.615 C 875.937 1604.311, 876.202 1602.673, 880.250 1603.528 C 885.427 1604.622, 892.168 1608.685, 901.151 1616.127 C 905.743 1619.930, 911.003 1623.458, 912.841 1623.966 C 917.114 1625.147, 923.325 1623.265, 923.832 1620.636 C 924.340 1617.997, 912.984 1607.192, 904.686 1602.420 C 892.758 1595.559, 897.923 1595.394, 911.194 1602.212 C 915.425 1604.386, 922.043 1608.814, 925.900 1612.052 C 933.923 1618.788, 936.573 1619.789, 940.715 1617.647 C 947.003 1614.396, 947.023 1613.273, 940.896 1607.624 C 937.839 1604.806, 931.212 1600.290, 926.169 1597.588 C 917.079 1592.719, 914.455 1590.196, 919.750 1591.417 C 925.660 1592.781, 938.846 1600.158, 945.692 1605.933 C 953.827 1612.795, 957.080 1613.556, 961.611 1609.658 C 964.155 1607.470, 964.234 1607.171, 962.800 1605.126 C 958.892 1599.546, 945.888 1591.175, 934.521 1586.922 C 928.165 1584.544, 927.148 1582.599, 932.750 1583.537 C 941.100 1584.936, 949.196 1588.391, 958.509 1594.531 C 973.107 1604.156, 978.011 1603.199, 978.815 1590.567 L 979.217 1584.248 969.968 1582.548 C 956.410 1580.056, 938.774 1574.090, 910.224 1562.336 C 886.421 1552.537, 825.799 1505.387, 818.505 1491 C 812.653 1479.458, 810.014 1463.227, 810.006 1438.722 C 809.994 1403.125, 815.243 1368.809, 830.387 1305.484 C 838.909 1269.847, 846.123 1236.082, 850.469 1211.500 C 856.099 1179.646, 857.879 1171.476, 862.051 1158.338 C 875.382 1116.358, 881.850 1079.077, 879.084 1060.162 C 876.218 1040.559, 864.427 1018.333, 853.007 1011.004 C 824.360 992.621, 726.522 966.567, 705.500 971.723 M 408.609 1058.532 C 382.954 1074.044, 376.931 1078.144, 378.853 1078.784 C 382.935 1080.145, 423.655 1055.383, 432.077 1046.419 C 436.027 1042.214, 433.087 1043.731, 408.609 1058.532 M 842.576 1047.250 C 845.070 1055.149, 857.616 1078.718, 858.732 1077.601 C 860.011 1076.322, 850.542 1054.454, 845.806 1047.750 C 843.445 1044.407, 841.587 1044.120, 842.576 1047.250 M 718 1074.690 C 702.992 1076.274, 687.888 1079.057, 656.265 1086.066 C 614.996 1095.212, 612.177 1096.009, 623.500 1095.334 C 637.266 1094.513, 653.616 1092.075, 679.500 1086.985 C 708.619 1081.259, 714.060 1080.361, 731.314 1078.436 C 746.053 1076.791, 749.204 1076.139, 748.434 1074.893 C 747.911 1074.048, 725.502 1073.898, 718 1074.690 M 244.021 1087.060 C 177.613 1104.004, 114.646 1121.021, 113.274 1122.393 C 112.940 1122.727, 113.004 1123.338, 113.417 1123.750 C 114.404 1124.738, 400.356 1124.625, 405.352 1123.634 C 407.471 1123.215, 409.007 1122.673, 408.765 1122.432 C 408.523 1122.190, 394.484 1120.428, 377.566 1118.516 C 310.154 1110.896, 302.149 1108.483, 284.239 1090.375 C 278.595 1084.669, 273.420 1080.011, 272.739 1080.024 C 272.057 1080.037, 259.134 1083.204, 244.021 1087.060 M 466 1093.524 C 442.457 1107.647, 437.036 1111.353, 438.201 1112.528 C 440.695 1115.045, 489 1085.003, 489 1080.935 C 489 1079.635, 490.743 1078.681, 466 1093.524 M 806.467 1097.750 C 807.784 1103.041, 816.805 1116, 819.172 1116 C 820.433 1116, 816.322 1106.407, 812.501 1100.434 C 808.694 1094.483, 805.276 1092.963, 806.467 1097.750 M 410.336 1128.390 L 401.317 1132.779 291.909 1132.140 C 177.194 1131.469, 104.736 1131.928, 103.332 1133.333 C 102.874 1133.791, 102.500 1142.714, 102.500 1153.161 L 102.500 1172.157 105.649 1174.974 C 112.825 1181.394, 126.230 1181.926, 281.750 1181.967 L 407 1182 407 1167.640 C 407 1152.718, 407.742 1144, 409.011 1144 C 410.294 1144, 411.033 1150.027, 411.686 1165.818 L 412.319 1181.137 414.869 1180.497 C 420.897 1178.984, 488 1148.195, 488 1146.942 C 488 1145.673, 454.691 1133.438, 442.614 1130.270 C 436.476 1128.660, 435.692 1128.658, 429.824 1130.230 C 422.569 1132.174, 421.802 1131.904, 424.975 1128.527 L 427.291 1126.061 424.580 1125.031 C 420.583 1123.511, 420.151 1123.613, 410.336 1128.390 M 517.200 1135.200 C 514.372 1138.028, 516.709 1144, 520.645 1144 C 523.334 1144, 535 1138.281, 535 1136.963 C 535 1136.207, 524.102 1134, 520.368 1134 C 519.286 1134, 517.860 1134.540, 517.200 1135.200 M 488 1154.381 C 483.875 1156.228, 471.597 1162.085, 460.715 1167.399 C 449.834 1172.712, 433.938 1179.970, 425.392 1183.529 L 409.853 1190 323.799 1190 L 237.745 1190 238.474 1209.250 C 238.876 1219.838, 239.270 1228.569, 239.352 1228.653 C 239.433 1228.738, 253.450 1228.928, 270.500 1229.077 L 301.500 1229.348 328.500 1220.620 C 343.350 1215.819, 372.600 1206.762, 393.500 1200.493 C 444.918 1185.070, 483.074 1172.037, 511.361 1160.235 C 523.320 1155.245, 523.339 1155.094, 512.303 1152.616 C 501.397 1150.167, 496.643 1150.513, 488 1154.381 M 292.458 1197.489 C 291.645 1203.999, 292.233 1223.566, 293.273 1224.606 C 294.787 1226.120, 295.342 1223.691, 295.791 1213.596 C 296.551 1196.504, 294.076 1184.541, 292.458 1197.489 M 431.500 1195.450 L 423.500 1198.846 422.713 1267.673 C 421.761 1351.017, 422.167 1429.567, 423.558 1430.958 C 424.210 1431.610, 428.463 1429.474, 436.023 1424.699 L 447.500 1417.452 447.488 1308.976 C 447.477 1215.435, 447.270 1199.949, 445.988 1196.500 C 444.036 1191.253, 441.773 1191.089, 431.500 1195.450 M 393.634 1206.799 L 375.768 1212.383 376.499 1321.941 C 376.901 1382.199, 377.312 1431.597, 377.414 1431.715 C 377.515 1431.834, 384.881 1432.365, 393.782 1432.896 C 402.684 1433.427, 410.537 1434.230, 411.233 1434.681 C 413.729 1436.295, 401.272 1436.701, 374 1435.893 C 358.875 1435.446, 343.238 1435.061, 339.250 1435.040 L 332 1435 332 1454.858 L 332 1474.716 364.750 1475.394 C 455.739 1477.278, 546.271 1479.802, 549.750 1480.553 C 551.997 1481.038, 552 1481.023, 552.011 1467.269 C 552.022 1453.085, 552.693 1446, 554.024 1446 C 555.482 1446, 555.937 1449.075, 556.622 1463.585 C 557.426 1480.586, 557.535 1480.737, 565.584 1475.863 C 574.545 1470.437, 574.077 1471.993, 573.771 1448.642 L 573.500 1427.988 563.500 1434.678 L 553.500 1441.368 501.500 1440.117 C 433.560 1438.482, 424.260 1437.637, 420.190 1432.731 C 419.404 1431.783, 418.510 1426.223, 417.954 1418.826 C 417.180 1408.542, 415.057 1261.173, 415.013 1214.750 C 415.001 1202.285, 414.836 1201.010, 413.250 1201.108 C 412.288 1201.167, 403.460 1203.729, 393.634 1206.799 M 800.194 1207.219 C 799.577 1208.715, 796.793 1217.876, 794.005 1227.579 C 787.644 1249.723, 780.491 1267.905, 772.696 1281.744 C 758.904 1306.228, 757.112 1310.018, 760.984 1306.515 C 769.237 1299.045, 785.297 1268.573, 792.464 1246.781 C 798.722 1227.754, 805.023 1195.504, 800.194 1207.219 M 350.500 1220.030 L 332.500 1225.806 332.245 1319.403 L 331.990 1413 350.995 1413 L 370 1413 370 1314.059 C 370 1259.641, 369.663 1214.924, 369.250 1214.686 C 368.837 1214.448, 360.400 1216.853, 350.500 1220.030 M 312.147 1231.882 L 300.794 1235.555 300.466 1241.027 C 300.285 1244.037, 299.843 1316.424, 299.483 1401.887 L 298.828 1557.275 307.164 1552.761 C 311.749 1550.279, 317.750 1546.923, 320.500 1545.304 L 325.500 1542.360 325.783 1388.430 C 326.051 1242.691, 325.905 1227.852, 324.205 1228.104 C 323.817 1228.162, 318.391 1229.862, 312.147 1231.882 M 246 1397.344 L 246 1558.688 264.750 1559.377 C 286.116 1560.162, 293.927 1561.406, 291.667 1563.667 C 290.591 1564.742, 128.992 1560.303, 101.250 1558.436 L 92 1557.813 92 1581.254 L 92 1604.695 118.250 1605.384 C 192.818 1607.341, 384.901 1614.477, 421.161 1616.638 L 431.822 1617.273 432.161 1596.219 C 432.477 1576.599, 432.939 1572.606, 434.693 1574.360 C 435.075 1574.741, 435.674 1583.816, 436.025 1594.525 C 436.377 1605.235, 436.926 1614.260, 437.247 1614.580 C 437.975 1615.309, 440.476 1613.996, 450.250 1607.756 L 458 1602.807 457.942 1582.654 C 457.911 1571.569, 457.573 1560.793, 457.192 1558.707 L 456.500 1554.915 447.119 1561.414 C 440.190 1566.214, 436.270 1568.221, 432.119 1569.095 C 419.570 1571.735, 299.010 1566.323, 295.584 1562.965 C 293.816 1561.233, 293.157 1523.255, 292.423 1380.855 L 291.683 1237.210 288.092 1236.616 C 286.116 1236.289, 275.837 1236.017, 265.250 1236.011 L 246 1236 246 1397.344 M 758.118 1406.649 C 753.948 1422.487, 750.195 1461.205, 753.113 1458.287 C 754.520 1456.880, 757.500 1436.629, 759.027 1418.094 C 760.224 1403.563, 759.924 1399.787, 758.118 1406.649 M 332 1425 L 332 1431 351 1431 L 370 1431 370 1425 L 370 1419 351 1419 L 332 1419 332 1425 M 462.681 1422.121 C 450.120 1422.729, 449.687 1422.828, 441.181 1427.051 C 432.793 1431.214, 432.601 1431.385, 435.500 1432.119 C 439.685 1433.179, 498.933 1435, 529.221 1435 L 554.384 1435 562.217 1429.858 C 566.524 1427.030, 569.925 1424.604, 569.775 1424.466 C 569.516 1424.231, 507.136 1422.199, 485.500 1421.721 C 480 1421.599, 469.731 1421.779, 462.681 1422.121 M 740.664 1502.891 C 736.349 1520.768, 739.988 1529.116, 753.344 1531.980 C 760.048 1533.418, 760.083 1532.863, 753.593 1528.069 C 746.358 1522.724, 745.264 1520.363, 744.041 1507.453 C 743.480 1501.532, 742.865 1496.532, 742.675 1496.342 C 742.484 1496.151, 741.580 1499.098, 740.664 1502.891 M 114 1543.072 C 106.807 1546.470, 99.005 1551.168, 99.002 1552.103 C 99 1552.873, 112.254 1553.622, 159.500 1555.522 C 180.400 1556.362, 205.825 1557.486, 216 1558.020 C 226.175 1558.553, 235.738 1558.992, 237.250 1558.995 L 240 1559 240 1551.572 L 240 1544.144 234.750 1543.613 C 227.497 1542.880, 143.894 1539.951, 131 1539.979 C 121.382 1540, 119.954 1540.260, 114 1543.072 M 316.239 1553.288 C 306.070 1559.445, 306.007 1559.506, 309.239 1560.159 C 315.078 1561.339, 402.195 1564.996, 424.520 1564.999 L 433.539 1565 442.339 1558.589 C 449.066 1553.689, 450.710 1552.054, 449.319 1551.651 C 446.078 1550.709, 346.532 1546.861, 330 1547.038 C 327.519 1547.065, 323.511 1548.885, 316.239 1553.288" stroke="none" fill="#333" fill-rule="evenodd"/>
</g></svg>